SplineFontDB: 3.2
FontName: BadesenCP1252
FullName: BadesenCP1252
FamilyName: BadesenCP1252
Weight: Regular
Copyright: Copyright (c) 2024-, Felipe R.T.
Version: 001.000
ItalicAngle: 0
UnderlinePosition: 0
UnderlineWidth: 0
Ascent: 2000
Descent: 48
InvalidEm: 0
sfntRevision: 0x00010000
LayerCount: 2
Layer: 0 1 "Back" 1
Layer: 1 1 "Fore" 0
HasVMetrics: 1
XUID: [1021 972 899731564 26187]
BaseHoriz: 7 'hang' 'icfb' 'icft' 'ideo' 'idtp' 'math' 'romn'
StyleMap: 0x0040
FSType: 0
OS2Version: 4
OS2_WeightWidthSlopeOnly: 1
OS2_UseTypoMetrics: 1
CreationTime: 1735051068
ModificationTime: 1735820455
PfmFamily: 65
TTFWeight: 600
TTFWidth: 5
LineGap: 0
VLineGap: 0
OS2TypoAscent: 0
OS2TypoAOffset: 1
OS2TypoDescent: 0
OS2TypoDOffset: 1
OS2TypoLinegap: 1000
OS2WinAscent: 0
OS2WinAOffset: 1
OS2WinDescent: 0
OS2WinDOffset: 1
HheadAscent: 0
HheadAOffset: 1
HheadDescent: 0
HheadDOffset: 1
OS2Vendor: 'PfEd'
OS2CodePages: 00000001.00000000
OS2UnicodeRanges: 8000002f.0000000a.00000000.00000000
MarkAttachClasses: 1
DEI: 91125
ShortTable: cvt  2
  33
  633
EndShort
ShortTable: maxp 16
  1
  0
  217
  80
  20
  0
  0
  2
  0
  1
  1
  0
  64
  46
  0
  0
EndShort

StartChar: exclam
Encoding: 33 33 0
Width: 415
VWidth: 3072
GlyphClass: 1
Flags: W
LayerCount: 2
Fore
SplineSet
79.5 -111 m 5,0,-1
 79.5 148 l 5,1,-1
 335.5 148 l 5,2,-1
 335.5 -111 l 5,3,-1
 79.5 -111 l 5,0,-1
79.5 273 m 5,4,-1
 79.5 1944 l 1,5,-1
 335.5 1944 l 1,6,-1
 335.5 273 l 5,7,-1
 79.5 273 l 5,4,-1
EndSplineSet
Validated: 1
EndChar

StartChar: quotedbl
Encoding: 34 34 1
Width: 927
VWidth: 3072
GlyphClass: 1
Flags: W
LayerCount: 2
Fore
SplineSet
588.5 1304 m 1,0,-1
 588.5 1819 l 1,1,2
 591.5 1819 591.5 1819 847.5 1819 c 1,3,4
 847.5 1816 847.5 1816 847.5 1304 c 1,5,-1
 588.5 1304 l 1,0,-1
79.5 1304 m 1,6,-1
 79.5 1819 l 1,7,-1
 335.5 1819 l 1,8,9
 335.5 1816 335.5 1816 335.5 1304 c 1,10,-1
 79.5 1304 l 1,6,-1
EndSplineSet
Validated: 1
EndChar

StartChar: numbersign
Encoding: 35 35 2
Width: 1183
VWidth: 3072
GlyphClass: 1
Flags: W
LayerCount: 2
Fore
SplineSet
591.5 -101 m 1,0,-1
 591.5 408 l 1,1,-1
 718.5 408 l 1,2,-1
 718.5 -101 l 1,3,-1
 591.5 -101 l 1,0,-1
206.5 -101 m 1,4,-1
 206.5 408 l 1,5,-1
 335.5 408 l 1,6,-1
 335.5 -101 l 1,7,-1
 206.5 -101 l 1,4,-1
847.5 408 m 1,8,-1
 847.5 536 l 1,9,-1
 1103.5 536 l 1,10,-1
 1103.5 408 l 1,11,-1
 847.5 408 l 1,8,-1
464.5 408 m 1,12,-1
 464.5 536 l 1,13,-1
 718.5 536 l 1,14,-1
 718.5 408 l 1,15,-1
 464.5 408 l 1,12,-1
79.5 408 m 1,16,-1
 79.5 536 l 1,17,-1
 335.5 536 l 1,18,-1
 335.5 408 l 1,19,-1
 79.5 408 l 1,16,-1
718.5 408 m 1,20,-1
 718.5 1304 l 1,21,22
 718.5 1304 718.5 1304 847.5 1304 c 1,23,-1
 847.5 408 l 1,24,-1
 718.5 408 l 1,20,-1
335.5 408 m 1,25,-1
 335.5 1304 l 1,26,27
 336.5 1304 336.5 1304 464.5 1304 c 1,28,-1
 464.5 408 l 1,29,-1
 335.5 408 l 1,25,-1
976.5 1304 m 1,30,-1
 976.5 1435 l 1,31,-1
 1103.5 1435 l 1,32,33
 1103.5 1432 1103.5 1432 1103.5 1304 c 1,34,-1
 976.5 1304 l 1,30,-1
591.5 1304 m 1,35,-1
 591.5 1435 l 1,36,-1
 847.5 1435 l 1,37,38
 847.5 1432 847.5 1432 847.5 1304 c 1,39,-1
 591.5 1304 l 1,35,-1
79.5 1304 m 1,40,-1
 79.5 1435 l 1,41,-1
 464.5 1435 l 1,42,43
 464.5 1432 464.5 1432 464.5 1304 c 1,44,-1
 79.5 1304 l 1,40,-1
847.5 1304 m 1,45,-1
 847.5 1944 l 1,46,47
 848.5 1944 848.5 1944 976.5 1944 c 1,48,-1
 976.5 1304 l 1,49,-1
 847.5 1304 l 1,45,-1
464.5 1304 m 1,50,-1
 464.5 1944 l 1,51,-1
 591.5 1944 l 1,52,-1
 591.5 1304 l 1,53,-1
 464.5 1304 l 1,50,-1
EndSplineSet
Validated: 5
EndChar

StartChar: dollar
Encoding: 36 36 3
Width: 1183
VWidth: 3072
GlyphClass: 1
Flags: W
LayerCount: 2
Fore
SplineSet
718.5 -101 m 1,0,-1
 718.5 24 l 1,1,2
 718.5 24 718.5 24 847.5 24 c 1,3,-1
 847.5 -101 l 1,4,-1
 718.5 -101 l 1,0,-1
335.5 -101 m 1,5,-1
 335.5 24 l 1,6,-1
 591.5 24 l 1,7,-1
 591.5 -101 l 1,8,-1
 335.5 -101 l 1,5,-1
847.5 24 m 1,9,-1
 847.5 152 l 1,10,11
 848.5 152 848.5 152 976.5 152 c 1,12,-1
 976.5 24 l 1,13,-1
 847.5 24 l 1,9,-1
206.5 24 m 1,14,-1
 206.5 152 l 1,15,-1
 335.5 152 l 1,16,-1
 335.5 24 l 1,17,-1
 206.5 24 l 1,14,-1
79.5 152 m 1,18,-1
 79.5 283 l 1,19,-1
 206.5 283 l 1,20,21
 206.5 280 206.5 280 206.5 152 c 1,22,-1
 79.5 152 l 1,18,-1
976.5 152 m 1,23,-1
 976.5 664 l 1,24,-1
 1103.5 664 l 1,25,-1
 1103.5 152 l 1,26,-1
 976.5 152 l 1,23,-1
847.5 664 m 1,27,-1
 847.5 792 l 1,28,29
 848.5 792 848.5 792 976.5 792 c 1,30,-1
 976.5 664 l 1,31,-1
 847.5 664 l 1,27,-1
718.5 792 m 1,32,-1
 718.5 920 l 1,33,34
 718.5 920 718.5 920 847.5 920 c 1,35,-1
 847.5 792 l 1,36,-1
 718.5 792 l 1,32,-1
335.5 920 m 1,37,-1
 335.5 1051 l 1,38,-1
 591.5 1051 l 1,39,40
 591.5 1048 591.5 1048 591.5 920 c 1,41,-1
 335.5 920 l 1,37,-1
206.5 1051 m 1,42,-1
 206.5 1176 l 1,43,-1
 335.5 1176 l 1,44,-1
 335.5 1051 l 1,45,-1
 206.5 1051 l 1,42,-1
976.5 1435 m 1,46,47
 976.5 1432 976.5 1432 976.5 1688 c 1,48,-1
 1103.5 1688 l 1,49,-1
 1103.5 1435 l 1,50,-1
 976.5 1435 l 1,46,47
79.5 1176 m 1,51,-1
 79.5 1688 l 1,52,-1
 206.5 1688 l 1,53,-1
 206.5 1176 l 1,54,-1
 79.5 1176 l 1,51,-1
847.5 1688 m 1,55,-1
 847.5 1819 l 1,56,57
 848.5 1819 848.5 1819 976.5 1819 c 1,58,59
 976.5 1816 976.5 1816 976.5 1688 c 1,60,-1
 847.5 1688 l 1,55,-1
591.5 -101 m 1,61,-1
 591.5 1819 l 1,62,-1
 718.5 1819 l 1,63,-1
 718.5 -101 l 1,64,-1
 591.5 -101 l 1,61,-1
206.5 1688 m 1,65,-1
 206.5 1819 l 1,66,-1
 335.5 1819 l 1,67,68
 335.5 1816 335.5 1816 335.5 1688 c 1,69,-1
 206.5 1688 l 1,65,-1
335.5 1819 m 1,70,-1
 335.5 1944 l 1,71,72
 335.5 1944 335.5 1944 847.5 1944 c 1,73,-1
 847.5 1819 l 1,74,-1
 335.5 1819 l 1,70,-1
EndSplineSet
Validated: 37
EndChar

StartChar: percent
Encoding: 37 37 4
Width: 1183
VWidth: 3072
GlyphClass: 1
Flags: W
LayerCount: 2
Fore
SplineSet
718.5 -101 m 1,0,-1
 718.5 24 l 1,1,-1
 976.5 24 l 1,2,-1
 976.5 -101 l 1,3,-1
 718.5 -101 l 1,0,-1
79.5 -101 m 1,4,5
 79.5 -104 79.5 -104 79.5 152 c 1,6,-1
 206.5 152 l 1,7,-1
 206.5 -101 l 1,8,-1
 79.5 -101 l 1,4,5
976.5 24 m 1,9,-1
 976.5 408 l 1,10,-1
 1103.5 408 l 1,11,-1
 1103.5 24 l 1,12,-1
 976.5 24 l 1,9,-1
591.5 24 m 1,13,-1
 591.5 408 l 1,14,-1
 718.5 408 l 1,15,-1
 718.5 24 l 1,16,-1
 591.5 24 l 1,13,-1
206.5 152 m 1,17,-1
 206.5 408 l 1,18,-1
 335.5 408 l 1,19,-1
 335.5 152 l 1,20,-1
 206.5 152 l 1,17,-1
718.5 408 m 1,21,-1
 718.5 536 l 1,22,-1
 976.5 536 l 1,23,-1
 976.5 408 l 1,24,-1
 718.5 408 l 1,21,-1
335.5 408 m 1,25,-1
 335.5 664 l 1,26,27
 336.5 664 336.5 664 464.5 664 c 1,28,-1
 464.5 408 l 1,29,-1
 335.5 408 l 1,25,-1
464.5 664 m 1,30,-1
 464.5 920 l 1,31,-1
 591.5 920 l 1,32,-1
 591.5 664 l 1,33,-1
 464.5 664 l 1,30,-1
591.5 920 m 1,34,-1
 591.5 1176 l 1,35,-1
 718.5 1176 l 1,36,-1
 718.5 920 l 1,37,-1
 591.5 920 l 1,34,-1
718.5 1176 m 1,38,-1
 718.5 1435 l 1,39,40
 718.5 1435 718.5 1435 847.5 1435 c 1,41,-1
 847.5 1176 l 1,42,-1
 718.5 1176 l 1,38,-1
206.5 1304 m 1,43,-1
 206.5 1435 l 1,44,-1
 464.5 1435 l 1,45,46
 464.5 1432 464.5 1432 464.5 1304 c 1,47,-1
 206.5 1304 l 1,43,-1
847.5 1435 m 1,48,49
 847.5 1432 847.5 1432 847.5 1688 c 1,50,51
 848.5 1688 848.5 1688 976.5 1688 c 1,52,-1
 976.5 1435 l 1,53,-1
 847.5 1435 l 1,48,49
464.5 1435 m 1,54,-1
 464.5 1819 l 1,55,-1
 591.5 1819 l 1,56,-1
 591.5 1435 l 1,57,-1
 464.5 1435 l 1,54,-1
79.5 1435 m 1,58,-1
 79.5 1819 l 1,59,-1
 206.5 1819 l 1,60,-1
 206.5 1435 l 1,61,-1
 79.5 1435 l 1,58,-1
976.5 1688 m 1,62,-1
 976.5 1944 l 1,63,-1
 1103.5 1944 l 1,64,-1
 1103.5 1688 l 1,65,-1
 976.5 1688 l 1,62,-1
206.5 1819 m 1,66,-1
 206.5 1944 l 1,67,-1
 464.5 1944 l 1,68,-1
 464.5 1819 l 1,69,-1
 206.5 1819 l 1,66,-1
EndSplineSet
Validated: 37
EndChar

StartChar: ampersand
Encoding: 38 38 5
Width: 1183
VWidth: 3072
GlyphClass: 1
Flags: W
LayerCount: 2
Fore
SplineSet
335.5 -101 m 1,0,-1
 335.5 24 l 1,1,2
 334.5 24 334.5 24 718.5 24 c 1,3,-1
 718.5 -101 l 1,4,-1
 335.5 -101 l 1,0,-1
976.5 -101 m 1,5,6
 976.5 -104 976.5 -104 976.5 152 c 1,7,-1
 1103.5 152 l 1,8,-1
 1103.5 -101 l 1,9,-1
 976.5 -101 l 1,5,6
718.5 24 m 1,10,-1
 718.5 152 l 1,11,12
 718.5 152 718.5 152 847.5 152 c 1,13,-1
 847.5 24 l 1,14,-1
 718.5 24 l 1,10,-1
206.5 24 m 1,15,-1
 206.5 152 l 1,16,-1
 335.5 152 l 1,17,-1
 335.5 24 l 1,18,-1
 206.5 24 l 1,15,-1
847.5 152 m 1,19,-1
 847.5 792 l 1,20,21
 848.5 792 848.5 792 976.5 792 c 1,22,-1
 976.5 152 l 1,23,-1
 847.5 152 l 1,19,-1
79.5 152 m 1,24,-1
 79.5 792 l 1,25,-1
 206.5 792 l 1,26,-1
 206.5 152 l 1,27,-1
 79.5 152 l 1,24,-1
976.5 792 m 1,28,-1
 976.5 920 l 1,29,-1
 1103.5 920 l 1,30,-1
 1103.5 792 l 1,31,-1
 976.5 792 l 1,28,-1
718.5 792 m 1,32,-1
 718.5 920 l 1,33,34
 718.5 920 718.5 920 847.5 920 c 1,35,-1
 847.5 792 l 1,36,-1
 718.5 792 l 1,32,-1
206.5 792 m 1,37,-1
 206.5 920 l 1,38,-1
 464.5 920 l 1,39,-1
 464.5 792 l 1,40,-1
 206.5 792 l 1,37,-1
464.5 920 m 1,41,-1
 464.5 1051 l 1,42,-1
 718.5 1051 l 1,43,44
 718.5 1048 718.5 1048 718.5 920 c 1,45,-1
 464.5 920 l 1,41,-1
718.5 1051 m 1,46,-1
 718.5 1819 l 1,47,48
 718.5 1819 718.5 1819 847.5 1819 c 1,49,-1
 847.5 1051 l 1,50,-1
 718.5 1051 l 1,46,-1
335.5 1051 m 1,51,-1
 335.5 1819 l 1,52,53
 336.5 1819 336.5 1819 464.5 1819 c 1,54,-1
 464.5 1051 l 1,55,-1
 335.5 1051 l 1,51,-1
464.5 1819 m 1,56,-1
 464.5 1944 l 1,57,-1
 718.5 1944 l 1,58,-1
 718.5 1819 l 1,59,-1
 464.5 1819 l 1,56,-1
EndSplineSet
Validated: 37
EndChar

StartChar: quotesingle
Encoding: 39 39 6
Width: 415
VWidth: 3072
GlyphClass: 1
Flags: W
LayerCount: 2
Fore
SplineSet
79.5 1304 m 1,0,-1
 79.5 1819 l 1,1,-1
 335.5 1819 l 1,2,3
 335.5 1816 335.5 1816 335.5 1304 c 1,4,-1
 79.5 1304 l 1,0,-1
EndSplineSet
Validated: 1
EndChar

StartChar: parenleft
Encoding: 40 40 7
Width: 927
VWidth: 3072
GlyphClass: 1
Flags: W
LayerCount: 2
Fore
SplineSet
588.5 -101 m 1,0,-1
 588.5 24 l 1,1,2
 591.5 24 591.5 24 847.5 24 c 1,3,-1
 847.5 -101 l 1,4,-1
 588.5 -101 l 1,0,-1
464.5 24 m 1,5,-1
 464.5 152 l 1,6,7
 463.5 152 463.5 152 588.5 152 c 1,8,-1
 588.5 24 l 1,9,-1
 464.5 24 l 1,5,-1
335.5 152 m 1,10,-1
 335.5 283 l 1,11,12
 336.5 283 336.5 283 464.5 283 c 1,13,14
 464.5 280 464.5 280 464.5 152 c 1,15,-1
 335.5 152 l 1,10,-1
204.5 283 m 1,16,17
 204.5 280 204.5 280 204.5 536 c 1,18,19
 207.5 536 207.5 536 335.5 536 c 1,20,-1
 335.5 283 l 1,21,-1
 204.5 283 l 1,16,17
79.5 536 m 1,22,-1
 79.5 1304 l 1,23,-1
 204.5 1304 l 1,24,-1
 204.5 536 l 1,25,-1
 79.5 536 l 1,22,-1
204.5 1304 m 1,26,-1
 204.5 1560 l 1,27,28
 207.5 1560 207.5 1560 335.5 1560 c 1,29,-1
 335.5 1304 l 1,30,-1
 204.5 1304 l 1,26,-1
335.5 1560 m 1,31,-1
 335.5 1688 l 1,32,33
 336.5 1688 336.5 1688 464.5 1688 c 1,34,-1
 464.5 1560 l 1,35,-1
 335.5 1560 l 1,31,-1
464.5 1688 m 1,36,-1
 464.5 1819 l 1,37,38
 463.5 1819 463.5 1819 588.5 1819 c 1,39,40
 588.5 1816 588.5 1816 588.5 1688 c 1,41,-1
 464.5 1688 l 1,36,-1
588.5 1819 m 1,42,-1
 588.5 1944 l 1,43,44
 591.5 1944 591.5 1944 847.5 1944 c 1,45,-1
 847.5 1819 l 1,46,-1
 588.5 1819 l 1,42,-1
EndSplineSet
Validated: 37
EndChar

StartChar: parenright
Encoding: 41 41 8
Width: 927
VWidth: 3072
GlyphClass: 1
Flags: W
LayerCount: 2
Fore
SplineSet
79.5 -101 m 1,0,-1
 79.5 24 l 1,1,-1
 335.5 24 l 1,2,-1
 335.5 -101 l 1,3,-1
 79.5 -101 l 1,0,-1
335.5 24 m 1,4,-1
 335.5 152 l 1,5,6
 336.5 152 336.5 152 464.5 152 c 1,7,-1
 464.5 24 l 1,8,-1
 335.5 24 l 1,4,-1
464.5 152 m 1,9,-1
 464.5 283 l 1,10,11
 463.5 283 463.5 283 588.5 283 c 1,12,13
 588.5 280 588.5 280 588.5 152 c 1,14,-1
 464.5 152 l 1,9,-1
588.5 283 m 1,15,16
 588.5 280 588.5 280 588.5 536 c 1,17,18
 591.5 536 591.5 536 718.5 536 c 1,19,-1
 718.5 283 l 1,20,-1
 588.5 283 l 1,15,16
718.5 536 m 1,21,-1
 718.5 1304 l 1,22,23
 718.5 1304 718.5 1304 847.5 1304 c 1,24,-1
 847.5 536 l 1,25,-1
 718.5 536 l 1,21,-1
588.5 1304 m 1,26,-1
 588.5 1560 l 1,27,28
 591.5 1560 591.5 1560 718.5 1560 c 1,29,-1
 718.5 1304 l 1,30,-1
 588.5 1304 l 1,26,-1
464.5 1560 m 1,31,-1
 464.5 1688 l 1,32,33
 463.5 1688 463.5 1688 588.5 1688 c 1,34,-1
 588.5 1560 l 1,35,-1
 464.5 1560 l 1,31,-1
335.5 1688 m 1,36,-1
 335.5 1819 l 1,37,38
 336.5 1819 336.5 1819 464.5 1819 c 1,39,40
 464.5 1816 464.5 1816 464.5 1688 c 1,41,-1
 335.5 1688 l 1,36,-1
79.5 1819 m 1,42,-1
 79.5 1944 l 1,43,-1
 335.5 1944 l 1,44,-1
 335.5 1819 l 1,45,-1
 79.5 1819 l 1,42,-1
EndSplineSet
Validated: 37
EndChar

StartChar: asterisk
Encoding: 42 42 9
Width: 1183
VWidth: 3072
GlyphClass: 1
Flags: W
LayerCount: 2
Fore
SplineSet
847.5 152 m 1,0,-1
 847.5 408 l 1,1,2
 848.5 408 848.5 408 976.5 408 c 1,3,-1
 976.5 152 l 1,4,-1
 847.5 152 l 1,0,-1
206.5 152 m 1,5,-1
 206.5 408 l 1,6,-1
 335.5 408 l 1,7,-1
 335.5 152 l 1,8,-1
 206.5 152 l 1,5,-1
718.5 408 m 1,9,-1
 718.5 664 l 1,10,11
 718.5 664 718.5 664 847.5 664 c 1,12,-1
 847.5 408 l 1,13,-1
 718.5 408 l 1,9,-1
335.5 408 m 1,14,-1
 335.5 664 l 1,15,16
 336.5 664 336.5 664 464.5 664 c 1,17,-1
 464.5 408 l 1,18,-1
 335.5 408 l 1,14,-1
718.5 792 m 1,19,-1
 718.5 1051 l 1,20,-1
 1103.5 1051 l 1,21,-1
 1103.5 792 l 1,22,-1
 718.5 792 l 1,19,-1
79.5 792 m 1,23,-1
 79.5 1051 l 1,24,-1
 464.5 1051 l 1,25,-1
 464.5 792 l 1,26,-1
 79.5 792 l 1,23,-1
464.5 664 m 1,27,-1
 464.5 1176 l 1,28,-1
 718.5 1176 l 1,29,-1
 718.5 664 l 1,30,-1
 464.5 664 l 1,27,-1
718.5 1176 m 1,31,-1
 718.5 1435 l 1,32,33
 718.5 1435 718.5 1435 847.5 1435 c 1,34,-1
 847.5 1176 l 1,35,-1
 718.5 1176 l 1,31,-1
335.5 1176 m 1,36,-1
 335.5 1435 l 1,37,38
 336.5 1435 336.5 1435 464.5 1435 c 1,39,-1
 464.5 1176 l 1,40,-1
 335.5 1176 l 1,36,-1
847.5 1435 m 1,41,42
 847.5 1432 847.5 1432 847.5 1688 c 1,43,44
 911.5 1688 911.5 1688 976.5 1688 c 1,45,-1
 976.5 1435 l 1,46,-1
 847.5 1435 l 1,41,42
206.5 1435 m 1,47,48
 206.5 1560 206.5 1560 206.5 1688 c 1,49,-1
 335.5 1688 l 1,50,-1
 335.5 1435 l 1,51,-1
 206.5 1435 l 1,47,48
EndSplineSet
Validated: 37
EndChar

StartChar: plus
Encoding: 43 43 10
Width: 1183
VWidth: 3072
GlyphClass: 1
Flags: W
LayerCount: 2
Fore
SplineSet
718 442 m 5,0,-1
 718 701 l 5,1,-1
 1104 701 l 5,2,-1
 1104 442 l 5,3,-1
 718 442 l 5,0,-1
80 442 m 5,4,-1
 80 701 l 5,5,-1
 464 701 l 5,6,-1
 464 442 l 5,7,-1
 80 442 l 5,4,-1
464 58 m 5,8,-1
 464 1085 l 5,9,-1
 718 1085 l 5,10,-1
 718 58 l 5,11,-1
 464 58 l 5,8,-1
EndSplineSet
Validated: 5
EndChar

StartChar: comma
Encoding: 44 44 11
Width: 544
VWidth: 3072
GlyphClass: 1
Flags: W
LayerCount: 2
Fore
SplineSet
79.5 24 m 1,0,-1
 79.5 152 l 1,1,-1
 335.5 152 l 1,2,-1
 335.5 24 l 1,3,-1
 79.5 24 l 1,0,-1
206.5 -232 m 1,4,-1
 206.5 -101 l 1,5,-1
 335.5 -101 l 1,6,7
 335.5 -104 335.5 -104 335.5 -232 c 1,8,-1
 206.5 -232 l 1,4,-1
79.5 -616 m 1,9,-1
 79.5 -485 l 1,10,-1
 206.5 -485 l 1,11,12
 206.5 -488 206.5 -488 206.5 -616 c 1,13,-1
 79.5 -616 l 1,9,-1
206.5 -101 m 1,14,15
 206.5 -104 206.5 -104 206.5 152 c 1,16,-1
 464.5 152 l 1,17,-1
 464.5 -101 l 1,18,-1
 206.5 -101 l 1,14,15
335.5 -360 m 1,19,-1
 335.5 -101 l 1,20,21
 336.5 -101 336.5 -101 464.5 -101 c 1,22,-1
 464.5 -360 l 1,23,-1
 335.5 -360 l 1,19,-1
206.5 -485 m 1,24,-1
 206.5 -360 l 1,25,-1
 335.5 -360 l 1,26,-1
 335.5 -485 l 1,27,-1
 206.5 -485 l 1,24,-1
338.5 -101 m 1,28,-1
 338.5 24 l 1,29,30
 339.5 24 339.5 24 464.5 24 c 1,31,-1
 464.5 -101 l 1,32,-1
 338.5 -101 l 1,28,-1
206.5 24 m 1,33,-1
 206.5 152 l 1,34,-1
 464.5 152 l 1,35,-1
 464.5 24 l 1,36,-1
 206.5 24 l 1,33,-1
EndSplineSet
Validated: 37
EndChar

StartChar: hyphen
Encoding: 45 45 12
Width: 671
VWidth: 3072
GlyphClass: 1
Flags: W
LayerCount: 2
Fore
SplineSet
80 442 m 1,0,-1
 80 701 l 5,1,-1
 592 701 l 5,2,-1
 592 442 l 1,3,-1
 80 442 l 1,0,-1
EndSplineSet
Validated: 1
EndChar

StartChar: period
Encoding: 46 46 13
Width: 415
VWidth: 3072
GlyphClass: 1
Flags: W
LayerCount: 2
Fore
SplineSet
79.5 -101 m 1,0,1
 79.5 -104 79.5 -104 79.5 152 c 1,2,-1
 335.5 152 l 1,3,-1
 335.5 -101 l 1,4,-1
 79.5 -101 l 1,0,1
EndSplineSet
Validated: 33
EndChar

StartChar: slash
Encoding: 47 47 14
Width: 1183
VWidth: 3072
GlyphClass: 1
Flags: W
LayerCount: 2
Fore
SplineSet
79.5 -101 m 1,0,1
 79.5 -104 79.5 -104 79.5 152 c 1,2,-1
 206.5 152 l 1,3,-1
 206.5 -101 l 1,4,-1
 79.5 -101 l 1,0,1
206.5 152 m 1,5,-1
 206.5 408 l 1,6,-1
 335.5 408 l 1,7,-1
 335.5 152 l 1,8,-1
 206.5 152 l 1,5,-1
335.5 408 m 1,9,-1
 335.5 664 l 1,10,11
 336.5 664 336.5 664 464.5 664 c 1,12,-1
 464.5 408 l 1,13,-1
 335.5 408 l 1,9,-1
464.5 664 m 1,14,-1
 464.5 920 l 1,15,-1
 591.5 920 l 1,16,-1
 591.5 664 l 1,17,-1
 464.5 664 l 1,14,-1
591.5 920 m 1,18,-1
 591.5 1176 l 1,19,-1
 718.5 1176 l 1,20,-1
 718.5 920 l 1,21,-1
 591.5 920 l 1,18,-1
718.5 1176 m 1,22,-1
 718.5 1435 l 1,23,24
 718.5 1435 718.5 1435 847.5 1435 c 1,25,-1
 847.5 1176 l 1,26,-1
 718.5 1176 l 1,22,-1
847.5 1435 m 1,27,28
 847.5 1432 847.5 1432 847.5 1688 c 1,29,30
 848.5 1688 848.5 1688 976.5 1688 c 1,31,-1
 976.5 1435 l 1,32,-1
 847.5 1435 l 1,27,28
976.5 1688 m 1,33,-1
 976.5 1944 l 1,34,-1
 1103.5 1944 l 1,35,-1
 1103.5 1688 l 1,36,-1
 976.5 1688 l 1,33,-1
EndSplineSet
Validated: 37
EndChar

StartChar: zero
Encoding: 48 48 15
Width: 1183
VWidth: 3072
GlyphClass: 1
Flags: W
LayerCount: 2
Fore
SplineSet
335.5 -101 m 1,0,-1
 335.5 24 l 1,1,2
 335.5 24 335.5 24 847.5 24 c 1,3,-1
 847.5 -101 l 1,4,-1
 335.5 -101 l 1,0,-1
847.5 24 m 1,5,-1
 847.5 152 l 1,6,7
 848.5 152 848.5 152 976.5 152 c 1,8,-1
 976.5 24 l 1,9,-1
 847.5 24 l 1,5,-1
206.5 24 m 1,10,-1
 206.5 152 l 1,11,-1
 335.5 152 l 1,12,-1
 335.5 24 l 1,13,-1
 206.5 24 l 1,10,-1
464.5 792 m 1,14,-1
 464.5 1051 l 1,15,-1
 718.5 1051 l 1,16,-1
 718.5 792 l 1,17,-1
 464.5 792 l 1,14,-1
976.5 152 m 1,18,-1
 976.5 1688 l 1,19,-1
 1103.5 1688 l 1,20,-1
 1103.5 152 l 1,21,-1
 976.5 152 l 1,18,-1
79.5 152 m 1,22,-1
 79.5 1688 l 1,23,-1
 206.5 1688 l 1,24,-1
 206.5 152 l 1,25,-1
 79.5 152 l 1,22,-1
847.5 1688 m 1,26,-1
 847.5 1819 l 1,27,28
 848.5 1819 848.5 1819 976.5 1819 c 1,29,30
 976.5 1816 976.5 1816 976.5 1688 c 1,31,-1
 847.5 1688 l 1,26,-1
206.5 1688 m 1,32,-1
 206.5 1819 l 1,33,-1
 335.5 1819 l 1,34,35
 335.5 1816 335.5 1816 335.5 1688 c 1,36,-1
 206.5 1688 l 1,32,-1
335.5 1819 m 1,37,-1
 335.5 1944 l 1,38,39
 335.5 1944 335.5 1944 847.5 1944 c 1,40,-1
 847.5 1819 l 1,41,-1
 335.5 1819 l 1,37,-1
EndSplineSet
Validated: 5
EndChar

StartChar: one
Encoding: 49 49 16
Width: 1183
VWidth: 3072
GlyphClass: 1
Flags: W
LayerCount: 2
Fore
SplineSet
718.5 -101 m 1,0,-1
 718.5 24 l 1,1,-1
 1103.5 24 l 1,2,-1
 1103.5 -101 l 1,3,-1
 718.5 -101 l 1,0,-1
79.5 -101 m 1,4,-1
 79.5 24 l 1,5,-1
 591.5 24 l 1,6,-1
 591.5 -101 l 1,7,-1
 79.5 -101 l 1,4,-1
79.5 1435 m 1,8,-1
 79.5 1560 l 1,9,-1
 206.5 1560 l 1,10,-1
 206.5 1435 l 1,11,-1
 79.5 1435 l 1,8,-1
206.5 1560 m 1,12,-1
 206.5 1688 l 1,13,-1
 335.5 1688 l 1,14,-1
 335.5 1560 l 1,15,-1
 206.5 1560 l 1,12,-1
591.5 -101 m 1,16,-1
 591.5 1819 l 1,17,-1
 718.5 1819 l 1,18,-1
 718.5 -101 l 1,19,-1
 591.5 -101 l 1,16,-1
335.5 1688 m 1,20,-1
 335.5 1819 l 1,21,22
 336.5 1819 336.5 1819 464.5 1819 c 1,23,24
 464.5 1816 464.5 1816 464.5 1688 c 1,25,-1
 335.5 1688 l 1,20,-1
464.5 1819 m 1,26,-1
 464.5 1944 l 1,27,-1
 718.5 1944 l 1,28,-1
 718.5 1819 l 1,29,-1
 464.5 1819 l 1,26,-1
EndSplineSet
Validated: 5
EndChar

StartChar: two
Encoding: 50 50 17
Width: 1183
VWidth: 3072
GlyphClass: 1
Flags: W
LayerCount: 2
Fore
SplineSet
206.5 -101 m 1,0,-1
 206.5 24 l 1,1,-1
 1103.5 24 l 1,2,-1
 1103.5 -101 l 1,3,-1
 206.5 -101 l 1,0,-1
79.5 -101 m 1,4,5
 79.5 -104 79.5 -104 79.5 664 c 1,6,-1
 206.5 664 l 1,7,-1
 206.5 -101 l 1,8,-1
 79.5 -101 l 1,4,5
206.5 664 m 1,9,-1
 206.5 792 l 1,10,-1
 335.5 792 l 1,11,-1
 335.5 664 l 1,12,-1
 206.5 664 l 1,9,-1
335.5 792 m 1,13,-1
 335.5 920 l 1,14,-1
 591.5 920 l 1,15,-1
 591.5 792 l 1,16,-1
 335.5 792 l 1,13,-1
591.5 920 m 1,17,-1
 591.5 1051 l 1,18,-1
 847.5 1051 l 1,19,20
 847.5 1048 847.5 1048 847.5 920 c 1,21,-1
 591.5 920 l 1,17,-1
847.5 1051 m 1,22,-1
 847.5 1176 l 1,23,24
 848.5 1176 848.5 1176 976.5 1176 c 1,25,-1
 976.5 1051 l 1,26,-1
 847.5 1051 l 1,22,-1
976.5 1176 m 1,27,-1
 976.5 1688 l 1,28,-1
 1103.5 1688 l 1,29,-1
 1103.5 1176 l 1,30,-1
 976.5 1176 l 1,27,-1
79.5 1176 m 1,31,-1
 79.5 1688 l 1,32,-1
 206.5 1688 l 1,33,-1
 206.5 1176 l 1,34,-1
 79.5 1176 l 1,31,-1
847.5 1688 m 1,35,-1
 847.5 1819 l 1,36,37
 848.5 1819 848.5 1819 976.5 1819 c 1,38,39
 976.5 1816 976.5 1816 976.5 1688 c 1,40,-1
 847.5 1688 l 1,35,-1
206.5 1688 m 1,41,-1
 206.5 1819 l 1,42,-1
 335.5 1819 l 1,43,44
 335.5 1816 335.5 1816 335.5 1688 c 1,45,-1
 206.5 1688 l 1,41,-1
335.5 1819 m 1,46,-1
 335.5 1944 l 1,47,48
 335.5 1944 335.5 1944 847.5 1944 c 1,49,-1
 847.5 1819 l 1,50,-1
 335.5 1819 l 1,46,-1
EndSplineSet
Validated: 37
EndChar

StartChar: three
Encoding: 51 51 18
Width: 1183
VWidth: 3072
GlyphClass: 1
Flags: W
LayerCount: 2
Fore
SplineSet
335.5 -101 m 1,0,-1
 335.5 24 l 1,1,2
 335.5 24 335.5 24 847.5 24 c 1,3,-1
 847.5 -101 l 1,4,-1
 335.5 -101 l 1,0,-1
847.5 24 m 1,5,-1
 847.5 152 l 1,6,7
 848.5 152 848.5 152 976.5 152 c 1,8,-1
 976.5 24 l 1,9,-1
 847.5 24 l 1,5,-1
206.5 24 m 1,10,-1
 206.5 152 l 1,11,-1
 335.5 152 l 1,12,-1
 335.5 24 l 1,13,-1
 206.5 24 l 1,10,-1
79.5 152 m 1,14,-1
 79.5 408 l 1,15,-1
 206.5 408 l 1,16,-1
 206.5 152 l 1,17,-1
 79.5 152 l 1,14,-1
976.5 152 m 1,18,-1
 976.5 664 l 1,19,-1
 1103.5 664 l 1,20,-1
 1103.5 152 l 1,21,-1
 976.5 152 l 1,18,-1
847.5 664 m 1,22,-1
 847.5 792 l 1,23,24
 848.5 792 848.5 792 976.5 792 c 1,25,-1
 976.5 664 l 1,26,-1
 847.5 664 l 1,22,-1
464.5 792 m 1,27,-1
 464.5 1051 l 1,28,-1
 847.5 1051 l 1,29,-1
 847.5 792 l 1,30,-1
 464.5 792 l 1,27,-1
847.5 1051 m 1,31,-1
 847.5 1176 l 1,32,33
 848.5 1176 848.5 1176 976.5 1176 c 1,34,-1
 976.5 1051 l 1,35,-1
 847.5 1051 l 1,31,-1
976.5 1176 m 1,36,-1
 976.5 1688 l 1,37,-1
 1103.5 1688 l 1,38,-1
 1103.5 1176 l 1,39,-1
 976.5 1176 l 1,36,-1
79.5 1435 m 1,40,41
 79.5 1432 79.5 1432 79.5 1688 c 1,42,-1
 206.5 1688 l 1,43,-1
 206.5 1435 l 1,44,-1
 79.5 1435 l 1,40,41
847.5 1688 m 1,45,-1
 847.5 1819 l 1,46,47
 848.5 1819 848.5 1819 976.5 1819 c 1,48,49
 976.5 1816 976.5 1816 976.5 1688 c 1,50,-1
 847.5 1688 l 1,45,-1
206.5 1688 m 1,51,-1
 206.5 1819 l 1,52,-1
 335.5 1819 l 1,53,54
 335.5 1816 335.5 1816 335.5 1688 c 1,55,-1
 206.5 1688 l 1,51,-1
335.5 1819 m 1,56,-1
 335.5 1944 l 1,57,58
 335.5 1944 335.5 1944 847.5 1944 c 1,59,-1
 847.5 1819 l 1,60,-1
 335.5 1819 l 1,56,-1
EndSplineSet
Validated: 37
EndChar

StartChar: four
Encoding: 52 52 19
Width: 1183
VWidth: 3072
GlyphClass: 1
Flags: W
LayerCount: 2
Fore
SplineSet
206.5 920 m 1,0,-1
 206.5 1051 l 1,1,-1
 976.5 1051 l 1,2,3
 976.5 1048 976.5 1048 976.5 920 c 1,4,-1
 206.5 920 l 1,0,-1
976.5 -101 m 1,5,-1
 976.5 1944 l 1,6,-1
 1103.5 1944 l 1,7,-1
 1103.5 -101 l 1,8,-1
 976.5 -101 l 1,5,-1
79.5 920 m 1,9,-1
 79.5 1944 l 1,10,-1
 206.5 1944 l 1,11,-1
 206.5 920 l 1,12,-1
 79.5 920 l 1,9,-1
EndSplineSet
Validated: 5
EndChar

StartChar: five
Encoding: 53 53 20
Width: 1183
VWidth: 3072
GlyphClass: 1
Flags: W
LayerCount: 2
Fore
SplineSet
206.5 -101 m 1,0,-1
 206.5 24 l 1,1,-1
 847.5 24 l 1,2,-1
 847.5 -101 l 1,3,-1
 206.5 -101 l 1,0,-1
847.5 24 m 1,4,-1
 847.5 152 l 1,5,6
 848.5 152 848.5 152 976.5 152 c 1,7,-1
 976.5 24 l 1,8,-1
 847.5 24 l 1,4,-1
79.5 24 m 1,9,-1
 79.5 152 l 1,10,-1
 206.5 152 l 1,11,-1
 206.5 24 l 1,12,-1
 79.5 24 l 1,9,-1
976.5 152 m 1,13,-1
 976.5 664 l 1,14,-1
 1103.5 664 l 1,15,-1
 1103.5 152 l 1,16,-1
 976.5 152 l 1,13,-1
847.5 664 m 1,17,-1
 847.5 792 l 1,18,19
 848.5 792 848.5 792 976.5 792 c 1,20,-1
 976.5 664 l 1,21,-1
 847.5 664 l 1,17,-1
206.5 792 m 1,22,-1
 206.5 920 l 1,23,-1
 847.5 920 l 1,24,-1
 847.5 792 l 1,25,-1
 206.5 792 l 1,22,-1
79.5 792 m 1,26,-1
 79.5 1819 l 1,27,-1
 206.5 1819 l 1,28,-1
 206.5 792 l 1,29,-1
 79.5 792 l 1,26,-1
79.5 1819 m 1,30,-1
 79.5 1944 l 1,31,-1
 1103.5 1944 l 1,32,-1
 1103.5 1819 l 1,33,-1
 79.5 1819 l 1,30,-1
EndSplineSet
Validated: 5
EndChar

StartChar: six
Encoding: 54 54 21
Width: 1183
VWidth: 3072
GlyphClass: 1
Flags: W
LayerCount: 2
Fore
SplineSet
335.5 -101 m 1,0,-1
 335.5 24 l 1,1,2
 335.5 24 335.5 24 847.5 24 c 1,3,-1
 847.5 -101 l 1,4,-1
 335.5 -101 l 1,0,-1
847.5 24 m 1,5,-1
 847.5 152 l 1,6,7
 848.5 152 848.5 152 976.5 152 c 1,8,-1
 976.5 24 l 1,9,-1
 847.5 24 l 1,5,-1
206.5 24 m 1,10,-1
 206.5 152 l 1,11,-1
 335.5 152 l 1,12,-1
 335.5 24 l 1,13,-1
 206.5 24 l 1,10,-1
976.5 152 m 1,14,-1
 976.5 664 l 1,15,-1
 1103.5 664 l 1,16,-1
 1103.5 152 l 1,17,-1
 976.5 152 l 1,14,-1
847.5 664 m 1,18,-1
 847.5 792 l 1,19,20
 848.5 792 848.5 792 976.5 792 c 1,21,-1
 976.5 664 l 1,22,-1
 847.5 664 l 1,18,-1
206.5 664 m 1,23,-1
 206.5 792 l 1,24,-1
 335.5 792 l 1,25,-1
 335.5 664 l 1,26,-1
 206.5 664 l 1,23,-1
335.5 792 m 1,27,-1
 335.5 920 l 1,28,29
 335.5 920 335.5 920 847.5 920 c 1,30,-1
 847.5 792 l 1,31,-1
 335.5 792 l 1,27,-1
976.5 1435 m 1,32,33
 976.5 1432 976.5 1432 976.5 1688 c 1,34,-1
 1103.5 1688 l 1,35,-1
 1103.5 1435 l 1,36,-1
 976.5 1435 l 1,32,33
79.5 152 m 1,37,-1
 79.5 1688 l 1,38,-1
 206.5 1688 l 1,39,-1
 206.5 152 l 1,40,-1
 79.5 152 l 1,37,-1
847.5 1688 m 1,41,-1
 847.5 1819 l 1,42,43
 848.5 1819 848.5 1819 976.5 1819 c 1,44,45
 976.5 1816 976.5 1816 976.5 1688 c 1,46,-1
 847.5 1688 l 1,41,-1
206.5 1688 m 1,47,-1
 206.5 1819 l 1,48,-1
 335.5 1819 l 1,49,50
 335.5 1816 335.5 1816 335.5 1688 c 1,51,-1
 206.5 1688 l 1,47,-1
335.5 1819 m 1,52,-1
 335.5 1944 l 1,53,54
 335.5 1944 335.5 1944 847.5 1944 c 1,55,-1
 847.5 1819 l 1,56,-1
 335.5 1819 l 1,52,-1
EndSplineSet
Validated: 37
EndChar

StartChar: seven
Encoding: 55 55 22
Width: 1183
VWidth: 3072
GlyphClass: 1
Flags: W
LayerCount: 2
Fore
SplineSet
79.5 -101 m 1,0,1
 79.5 -104 79.5 -104 79.5 152 c 1,2,-1
 206.5 152 l 1,3,-1
 206.5 -101 l 1,4,-1
 79.5 -101 l 1,0,1
206.5 152 m 1,5,-1
 206.5 408 l 1,6,-1
 335.5 408 l 1,7,-1
 335.5 152 l 1,8,-1
 206.5 152 l 1,5,-1
335.5 408 m 1,9,-1
 335.5 664 l 1,10,11
 336.5 664 336.5 664 464.5 664 c 1,12,-1
 464.5 408 l 1,13,-1
 335.5 408 l 1,9,-1
464.5 664 m 1,14,-1
 464.5 920 l 1,15,-1
 591.5 920 l 1,16,-1
 591.5 664 l 1,17,-1
 464.5 664 l 1,14,-1
718.5 920 m 1,18,-1
 718.5 1051 l 1,19,20
 718.5 1051 718.5 1051 847.5 1051 c 1,21,22
 847.5 1048 847.5 1048 847.5 920 c 1,23,-1
 718.5 920 l 1,18,-1
335.5 920 m 1,24,-1
 335.5 1051 l 1,25,-1
 591.5 1051 l 1,26,27
 591.5 1048 591.5 1048 591.5 920 c 1,28,-1
 335.5 920 l 1,24,-1
591.5 920 m 1,29,-1
 591.5 1176 l 1,30,-1
 718.5 1176 l 1,31,-1
 718.5 920 l 1,32,-1
 591.5 920 l 1,29,-1
718.5 1176 m 1,33,-1
 718.5 1435 l 1,34,35
 718.5 1435 718.5 1435 847.5 1435 c 1,36,-1
 847.5 1176 l 1,37,-1
 718.5 1176 l 1,33,-1
847.5 1435 m 1,38,39
 847.5 1432 847.5 1432 847.5 1688 c 1,40,41
 848.5 1688 848.5 1688 976.5 1688 c 1,42,-1
 976.5 1435 l 1,43,-1
 847.5 1435 l 1,38,39
976.5 1688 m 1,44,-1
 976.5 1819 l 1,45,-1
 1103.5 1819 l 1,46,47
 1103.5 1816 1103.5 1816 1103.5 1688 c 1,48,-1
 976.5 1688 l 1,44,-1
79.5 1819 m 1,49,-1
 79.5 1944 l 1,50,-1
 1103.5 1944 l 1,51,-1
 1103.5 1819 l 1,52,-1
 79.5 1819 l 1,49,-1
EndSplineSet
Validated: 37
EndChar

StartChar: eight
Encoding: 56 56 23
Width: 1183
VWidth: 3072
GlyphClass: 1
Flags: W
LayerCount: 2
Fore
SplineSet
335.5 -101 m 1,0,-1
 335.5 24 l 1,1,2
 335.5 24 335.5 24 847.5 24 c 1,3,-1
 847.5 -101 l 1,4,-1
 335.5 -101 l 1,0,-1
847.5 24 m 1,5,-1
 847.5 152 l 1,6,7
 848.5 152 848.5 152 976.5 152 c 1,8,-1
 976.5 24 l 1,9,-1
 847.5 24 l 1,5,-1
206.5 24 m 1,10,-1
 206.5 152 l 1,11,-1
 335.5 152 l 1,12,-1
 335.5 24 l 1,13,-1
 206.5 24 l 1,10,-1
976.5 152 m 1,14,-1
 976.5 664 l 1,15,-1
 1103.5 664 l 1,16,-1
 1103.5 152 l 1,17,-1
 976.5 152 l 1,14,-1
79.5 152 m 1,18,-1
 79.5 664 l 1,19,-1
 206.5 664 l 1,20,-1
 206.5 152 l 1,21,-1
 79.5 152 l 1,18,-1
847.5 664 m 1,22,-1
 847.5 792 l 1,23,24
 848.5 792 848.5 792 976.5 792 c 1,25,-1
 976.5 664 l 1,26,-1
 847.5 664 l 1,22,-1
206.5 664 m 1,27,-1
 206.5 792 l 1,28,-1
 335.5 792 l 1,29,-1
 335.5 664 l 1,30,-1
 206.5 664 l 1,27,-1
335.5 792 m 1,31,-1
 335.5 1051 l 1,32,33
 335.5 1051 335.5 1051 847.5 1051 c 1,34,-1
 847.5 792 l 1,35,-1
 335.5 792 l 1,31,-1
847.5 1051 m 1,36,-1
 847.5 1176 l 1,37,38
 848.5 1176 848.5 1176 976.5 1176 c 1,39,-1
 976.5 1051 l 1,40,-1
 847.5 1051 l 1,36,-1
206.5 1051 m 1,41,-1
 206.5 1176 l 1,42,-1
 335.5 1176 l 1,43,-1
 335.5 1051 l 1,44,-1
 206.5 1051 l 1,41,-1
976.5 1176 m 1,45,-1
 976.5 1688 l 1,46,-1
 1103.5 1688 l 1,47,-1
 1103.5 1176 l 1,48,-1
 976.5 1176 l 1,45,-1
79.5 1176 m 1,49,-1
 79.5 1688 l 1,50,-1
 206.5 1688 l 1,51,-1
 206.5 1176 l 1,52,-1
 79.5 1176 l 1,49,-1
847.5 1688 m 1,53,-1
 847.5 1819 l 1,54,55
 848.5 1819 848.5 1819 976.5 1819 c 1,56,57
 976.5 1816 976.5 1816 976.5 1688 c 1,58,-1
 847.5 1688 l 1,53,-1
206.5 1688 m 1,59,-1
 206.5 1819 l 1,60,-1
 335.5 1819 l 1,61,62
 335.5 1816 335.5 1816 335.5 1688 c 1,63,-1
 206.5 1688 l 1,59,-1
335.5 1819 m 1,64,-1
 335.5 1944 l 1,65,66
 335.5 1944 335.5 1944 847.5 1944 c 1,67,-1
 847.5 1819 l 1,68,-1
 335.5 1819 l 1,64,-1
EndSplineSet
Validated: 5
EndChar

StartChar: nine
Encoding: 57 57 24
Width: 1183
VWidth: 3072
GlyphClass: 1
Flags: W
LayerCount: 2
Fore
SplineSet
335.5 -101 m 1,0,-1
 335.5 24 l 1,1,2
 335.5 24 335.5 24 847.5 24 c 1,3,-1
 847.5 -101 l 1,4,-1
 335.5 -101 l 1,0,-1
847.5 24 m 1,5,-1
 847.5 152 l 1,6,7
 848.5 152 848.5 152 976.5 152 c 1,8,-1
 976.5 24 l 1,9,-1
 847.5 24 l 1,5,-1
206.5 24 m 1,10,-1
 206.5 152 l 1,11,-1
 335.5 152 l 1,12,-1
 335.5 24 l 1,13,-1
 206.5 24 l 1,10,-1
79.5 152 m 1,14,-1
 79.5 408 l 1,15,-1
 206.5 408 l 1,16,-1
 206.5 152 l 1,17,-1
 79.5 152 l 1,14,-1
335.5 920 m 1,18,-1
 335.5 1051 l 1,19,20
 335.5 1051 335.5 1051 847.5 1051 c 1,21,22
 847.5 1048 847.5 1048 847.5 920 c 1,23,-1
 335.5 920 l 1,18,-1
847.5 1051 m 1,24,-1
 847.5 1176 l 1,25,26
 848.5 1176 848.5 1176 976.5 1176 c 1,27,-1
 976.5 1051 l 1,28,-1
 847.5 1051 l 1,24,-1
206.5 1051 m 1,29,-1
 206.5 1176 l 1,30,-1
 335.5 1176 l 1,31,-1
 335.5 1051 l 1,32,-1
 206.5 1051 l 1,29,-1
976.5 152 m 1,33,-1
 976.5 1688 l 1,34,-1
 1103.5 1688 l 1,35,-1
 1103.5 152 l 1,36,-1
 976.5 152 l 1,33,-1
79.5 1176 m 1,37,-1
 79.5 1688 l 1,38,-1
 206.5 1688 l 1,39,-1
 206.5 1176 l 1,40,-1
 79.5 1176 l 1,37,-1
847.5 1688 m 1,41,-1
 847.5 1819 l 1,42,43
 848.5 1819 848.5 1819 976.5 1819 c 1,44,45
 976.5 1816 976.5 1816 976.5 1688 c 1,46,-1
 847.5 1688 l 1,41,-1
206.5 1688 m 1,47,-1
 206.5 1819 l 1,48,-1
 335.5 1819 l 1,49,50
 335.5 1816 335.5 1816 335.5 1688 c 1,51,-1
 206.5 1688 l 1,47,-1
335.5 1819 m 1,52,-1
 335.5 1944 l 1,53,54
 335.5 1944 335.5 1944 847.5 1944 c 1,55,-1
 847.5 1819 l 1,56,-1
 335.5 1819 l 1,52,-1
EndSplineSet
Validated: 5
EndChar

StartChar: colon
Encoding: 58 58 25
Width: 456
VWidth: 3072
GlyphClass: 1
Flags: W
LayerCount: 2
Fore
SplineSet
100 -67 m 5,0,1
 100 -70 100 -70 100 186 c 5,2,-1
 356 186 l 5,3,-1
 356 -67 l 5,4,-1
 100 -67 l 5,0,1
100 954 m 5,5,-1
 100 1210 l 5,6,-1
 356 1210 l 5,7,-1
 356 954 l 5,8,-1
 100 954 l 5,5,-1
EndSplineSet
Validated: 33
EndChar

StartChar: semicolon
Encoding: 59 59 26
Width: 584
VWidth: 3072
GlyphClass: 1
Flags: W
LayerCount: 2
Fore
SplineSet
100 -326 m 5,0,-1
 100 -198 l 5,1,-1
 226 -198 l 5,2,-1
 226 -326 l 5,3,-1
 100 -326 l 5,0,-1
226 -198 m 5,4,-1
 226 -67 l 5,5,6
 226 -67 226 -67 358 -67 c 5,7,8
 358 -70 358 -70 358 -198 c 5,9,-1
 226 -198 l 5,4,-1
358 -67 m 5,10,-1
 358 58 l 5,11,12
 358 58 358 58 484 58 c 5,13,-1
 484 -67 l 5,14,-1
 358 -67 l 5,10,-1
226 58 m 5,15,-1
 226 186 l 5,16,-1
 484 186 l 5,17,-1
 484 58 l 5,18,-1
 226 58 l 5,15,-1
226 954 m 5,19,-1
 226 1210 l 5,20,-1
 484 1210 l 5,21,-1
 484 954 l 5,22,-1
 226 954 l 5,19,-1
EndSplineSet
Validated: 5
EndChar

StartChar: less
Encoding: 60 60 27
Width: 711
VWidth: 3072
GlyphClass: 1
Flags: W
LayerCount: 2
Fore
SplineSet
485 58 m 1,0,-1
 485 186 l 1,1,-1
 612 186 l 1,2,-1
 612 58 l 1,3,-1
 485 58 l 1,0,-1
359 186 m 1,4,-1
 359 314 l 1,5,6
 360 314 360 314 485 314 c 1,7,-1
 485 186 l 1,8,-1
 359 186 l 1,4,-1
227 314 m 1,9,-1
 227 442 l 1,10,11
 228 442 228 442 359 442 c 1,12,-1
 359 314 l 1,13,-1
 227 314 l 1,9,-1
100 442 m 1,14,-1
 100 701 l 1,15,-1
 227 701 l 1,16,-1
 227 442 l 1,17,-1
 100 442 l 1,14,-1
227 701 m 1,18,-1
 227 826 l 1,19,20
 228 826 228 826 359 826 c 1,21,-1
 359 701 l 1,22,-1
 227 701 l 1,18,-1
359 826 m 1,23,-1
 359 954 l 1,24,25
 360 954 360 954 485 954 c 1,26,-1
 485 826 l 1,27,-1
 359 826 l 1,23,-1
485 954 m 1,28,-1
 485 1085 l 1,29,-1
 612 1085 l 1,30,31
 612 1082 612 1082 612 954 c 1,32,-1
 485 954 l 1,28,-1
EndSplineSet
Validated: 5
EndChar

StartChar: equal
Encoding: 61 61 28
Width: 967
VWidth: 3072
GlyphClass: 1
Flags: W
LayerCount: 2
Fore
SplineSet
100 314 m 1,0,-1
 100 442 l 1,1,-1
 868 442 l 1,2,-1
 868 314 l 1,3,-1
 100 314 l 1,0,-1
100 701 m 1,4,-1
 100 826 l 1,5,-1
 868 826 l 1,6,-1
 868 701 l 1,7,-1
 100 701 l 1,4,-1
EndSplineSet
Validated: 1
EndChar

StartChar: greater
Encoding: 62 62 29
Width: 711
VWidth: 3072
GlyphClass: 1
Flags: W
LayerCount: 2
Fore
SplineSet
100 58 m 1,0,-1
 100 186 l 1,1,-1
 227 186 l 1,2,-1
 227 58 l 1,3,-1
 100 58 l 1,0,-1
227 186 m 1,4,-1
 227 314 l 1,5,6
 228 314 228 314 359 314 c 1,7,-1
 359 186 l 1,8,-1
 227 186 l 1,4,-1
359 314 m 1,9,-1
 359 442 l 1,10,11
 360 442 360 442 485 442 c 1,12,-1
 485 314 l 1,13,-1
 359 314 l 1,9,-1
485 442 m 1,14,-1
 485 701 l 1,15,-1
 612 701 l 1,16,-1
 612 442 l 1,17,-1
 485 442 l 1,14,-1
359 701 m 1,18,-1
 359 826 l 1,19,20
 360 826 360 826 485 826 c 1,21,-1
 485 701 l 1,22,-1
 359 701 l 1,18,-1
227 826 m 1,23,-1
 227 954 l 1,24,25
 228 954 228 954 359 954 c 1,26,-1
 359 826 l 1,27,-1
 227 826 l 1,23,-1
100 954 m 1,28,-1
 100 1085 l 1,29,-1
 227 1085 l 1,30,31
 227 1082 227 1082 227 954 c 1,32,-1
 100 954 l 1,28,-1
EndSplineSet
Validated: 5
EndChar

StartChar: question
Encoding: 63 63 30
Width: 1183
VWidth: 3072
GlyphClass: 1
Flags: W
LayerCount: 2
Fore
SplineSet
464.5 -101 m 1,0,1
 464.5 -104 464.5 -104 464.5 152 c 1,2,-1
 718.5 152 l 1,3,-1
 718.5 -101 l 1,4,-1
 464.5 -101 l 1,0,1
464.5 283 m 1,5,6
 464.5 280 464.5 280 464.5 920 c 1,7,-1
 718.5 920 l 1,8,-1
 718.5 283 l 1,9,-1
 464.5 283 l 1,5,6
591.5 920 m 1,10,-1
 591.5 1051 l 1,11,-1
 847.5 1051 l 1,12,13
 847.5 1048 847.5 1048 847.5 920 c 1,14,-1
 591.5 920 l 1,10,-1
847.5 1051 m 1,15,-1
 847.5 1176 l 1,16,17
 848.5 1176 848.5 1176 976.5 1176 c 1,18,-1
 976.5 1051 l 1,19,-1
 847.5 1051 l 1,15,-1
976.5 1176 m 1,20,-1
 976.5 1688 l 1,21,-1
 1103.5 1688 l 1,22,-1
 1103.5 1176 l 1,23,-1
 976.5 1176 l 1,20,-1
79.5 1435 m 1,24,25
 79.5 1432 79.5 1432 79.5 1688 c 1,26,-1
 206.5 1688 l 1,27,-1
 206.5 1435 l 1,28,-1
 79.5 1435 l 1,24,25
847.5 1688 m 1,29,-1
 847.5 1819 l 1,30,31
 848.5 1819 848.5 1819 976.5 1819 c 1,32,33
 976.5 1816 976.5 1816 976.5 1688 c 1,34,-1
 847.5 1688 l 1,29,-1
206.5 1688 m 1,35,-1
 206.5 1819 l 1,36,-1
 335.5 1819 l 1,37,38
 335.5 1816 335.5 1816 335.5 1688 c 1,39,-1
 206.5 1688 l 1,35,-1
335.5 1819 m 1,40,-1
 335.5 1944 l 1,41,42
 335.5 1944 335.5 1944 847.5 1944 c 1,43,-1
 847.5 1819 l 1,44,-1
 335.5 1819 l 1,40,-1
EndSplineSet
Validated: 37
EndChar

StartChar: at
Encoding: 64 64 31
Width: 1183
VWidth: 3072
GlyphClass: 1
Flags: W
LayerCount: 2
Fore
SplineSet
335.5 -101 m 1,0,-1
 335.5 24 l 1,1,2
 335.5 24 335.5 24 847.5 24 c 1,3,-1
 847.5 -101 l 1,4,-1
 335.5 -101 l 1,0,-1
847.5 24 m 1,5,-1
 847.5 152 l 1,6,7
 848.5 152 848.5 152 976.5 152 c 1,8,-1
 976.5 24 l 1,9,-1
 847.5 24 l 1,5,-1
206.5 24 m 1,10,-1
 206.5 152 l 1,11,-1
 335.5 152 l 1,12,-1
 335.5 24 l 1,13,-1
 206.5 24 l 1,10,-1
847.5 536 m 1,14,-1
 847.5 664 l 1,15,16
 848.5 664 848.5 664 976.5 664 c 1,17,-1
 976.5 536 l 1,18,-1
 847.5 536 l 1,14,-1
464.5 536 m 1,19,-1
 464.5 664 l 1,20,-1
 718.5 664 l 1,21,-1
 718.5 536 l 1,22,-1
 464.5 536 l 1,19,-1
718.5 536 m 1,23,-1
 718.5 1176 l 1,24,25
 718.5 1176 718.5 1176 847.5 1176 c 1,26,-1
 847.5 536 l 1,27,-1
 718.5 536 l 1,23,-1
335.5 664 m 1,28,-1
 335.5 1176 l 1,29,30
 336.5 1176 336.5 1176 464.5 1176 c 1,31,-1
 464.5 664 l 1,32,-1
 335.5 664 l 1,28,-1
464.5 1176 m 1,33,-1
 464.5 1304 l 1,34,-1
 847.5 1304 l 1,35,-1
 847.5 1176 l 1,36,-1
 464.5 1176 l 1,33,-1
976.5 536 m 1,37,-1
 976.5 1688 l 1,38,-1
 1103.5 1688 l 1,39,-1
 1103.5 536 l 1,40,-1
 976.5 536 l 1,37,-1
79.5 152 m 1,41,-1
 79.5 1688 l 1,42,-1
 206.5 1688 l 1,43,-1
 206.5 152 l 1,44,-1
 79.5 152 l 1,41,-1
847.5 1688 m 1,45,-1
 847.5 1819 l 1,46,47
 848.5 1819 848.5 1819 976.5 1819 c 1,48,49
 976.5 1816 976.5 1816 976.5 1688 c 1,50,-1
 847.5 1688 l 1,45,-1
206.5 1688 m 1,51,-1
 206.5 1819 l 1,52,-1
 335.5 1819 l 1,53,54
 335.5 1816 335.5 1816 335.5 1688 c 1,55,-1
 206.5 1688 l 1,51,-1
335.5 1819 m 1,56,-1
 335.5 1944 l 1,57,58
 335.5 1944 335.5 1944 847.5 1944 c 1,59,-1
 847.5 1819 l 1,60,-1
 335.5 1819 l 1,56,-1
EndSplineSet
Validated: 5
EndChar

StartChar: A
Encoding: 65 65 32
Width: 1183
VWidth: 3072
GlyphClass: 1
Flags: W
LayerCount: 2
Fore
SplineSet
206.5 664 m 1,0,-1
 206.5 792 l 1,1,-1
 976.5 792 l 1,2,-1
 976.5 664 l 1,3,-1
 206.5 664 l 1,0,-1
976.5 -101 m 1,4,-1
 976.5 1176 l 1,5,-1
 1103.5 1176 l 1,6,-1
 1103.5 -101 l 1,7,-1
 976.5 -101 l 1,4,-1
79.5 -101 m 1,8,-1
 79.5 1176 l 1,9,-1
 206.5 1176 l 1,10,-1
 206.5 -101 l 1,11,-1
 79.5 -101 l 1,8,-1
847.5 1176 m 1,12,-1
 847.5 1435 l 1,13,14
 848.5 1435 848.5 1435 976.5 1435 c 1,15,-1
 976.5 1176 l 1,16,-1
 847.5 1176 l 1,12,-1
206.5 1176 m 1,17,-1
 206.5 1435 l 1,18,-1
 335.5 1435 l 1,19,-1
 335.5 1176 l 1,20,-1
 206.5 1176 l 1,17,-1
718.5 1435 m 1,21,22
 718.5 1432 718.5 1432 718.5 1688 c 1,23,24
 718.5 1688 718.5 1688 847.5 1688 c 1,25,-1
 847.5 1435 l 1,26,-1
 718.5 1435 l 1,21,22
335.5 1435 m 1,27,28
 335.5 1432 335.5 1432 335.5 1688 c 1,29,30
 336.5 1688 336.5 1688 464.5 1688 c 1,31,-1
 464.5 1435 l 1,32,-1
 335.5 1435 l 1,27,28
464.5 1688 m 1,33,-1
 464.5 1944 l 1,34,-1
 718.5 1944 l 1,35,-1
 718.5 1688 l 1,36,-1
 464.5 1688 l 1,33,-1
EndSplineSet
Validated: 37
EndChar

StartChar: B
Encoding: 66 66 33
Width: 1183
VWidth: 3072
GlyphClass: 1
Flags: W
LayerCount: 2
Fore
SplineSet
206.5 -101 m 1,0,-1
 206.5 24 l 1,1,-1
 847.5 24 l 1,2,-1
 847.5 -101 l 1,3,-1
 206.5 -101 l 1,0,-1
847.5 24 m 1,4,-1
 847.5 152 l 1,5,6
 848.5 152 848.5 152 976.5 152 c 1,7,-1
 976.5 24 l 1,8,-1
 847.5 24 l 1,4,-1
976.5 152 m 1,9,-1
 976.5 664 l 1,10,-1
 1103.5 664 l 1,11,-1
 1103.5 152 l 1,12,-1
 976.5 152 l 1,9,-1
847.5 664 m 1,13,-1
 847.5 792 l 1,14,15
 848.5 792 848.5 792 976.5 792 c 1,16,-1
 976.5 664 l 1,17,-1
 847.5 664 l 1,13,-1
206.5 792 m 1,18,-1
 206.5 1051 l 1,19,-1
 847.5 1051 l 1,20,-1
 847.5 792 l 1,21,-1
 206.5 792 l 1,18,-1
847.5 1051 m 1,22,-1
 847.5 1176 l 1,23,24
 848.5 1176 848.5 1176 976.5 1176 c 1,25,-1
 976.5 1051 l 1,26,-1
 847.5 1051 l 1,22,-1
976.5 1176 m 1,27,-1
 976.5 1688 l 1,28,-1
 1103.5 1688 l 1,29,-1
 1103.5 1176 l 1,30,-1
 976.5 1176 l 1,27,-1
847.5 1688 m 1,31,-1
 847.5 1819 l 1,32,33
 848.5 1819 848.5 1819 976.5 1819 c 1,34,35
 976.5 1816 976.5 1816 976.5 1688 c 1,36,-1
 847.5 1688 l 1,31,-1
79.5 -101 m 1,37,-1
 79.5 1819 l 1,38,-1
 206.5 1819 l 1,39,-1
 206.5 -101 l 1,40,-1
 79.5 -101 l 1,37,-1
79.5 1819 m 1,41,-1
 79.5 1944 l 1,42,-1
 847.5 1944 l 1,43,-1
 847.5 1819 l 1,44,-1
 79.5 1819 l 1,41,-1
EndSplineSet
Validated: 5
EndChar

StartChar: C
Encoding: 67 67 34
Width: 1183
VWidth: 3072
GlyphClass: 1
Flags: W
LayerCount: 2
Fore
SplineSet
335.5 -101 m 1,0,-1
 335.5 24 l 1,1,2
 335.5 24 335.5 24 847.5 24 c 1,3,-1
 847.5 -101 l 1,4,-1
 335.5 -101 l 1,0,-1
847.5 24 m 1,5,-1
 847.5 152 l 1,6,7
 848.5 152 848.5 152 976.5 152 c 1,8,-1
 976.5 24 l 1,9,-1
 847.5 24 l 1,5,-1
206.5 24 m 1,10,-1
 206.5 152 l 1,11,-1
 335.5 152 l 1,12,-1
 335.5 24 l 1,13,-1
 206.5 24 l 1,10,-1
976.5 152 m 1,14,-1
 976.5 408 l 1,15,-1
 1103.5 408 l 1,16,-1
 1103.5 152 l 1,17,-1
 976.5 152 l 1,14,-1
976.5 1435 m 1,18,19
 976.5 1432 976.5 1432 976.5 1688 c 1,20,-1
 1103.5 1688 l 1,21,-1
 1103.5 1435 l 1,22,-1
 976.5 1435 l 1,18,19
79.5 152 m 1,23,-1
 79.5 1688 l 1,24,-1
 206.5 1688 l 1,25,-1
 206.5 152 l 1,26,-1
 79.5 152 l 1,23,-1
847.5 1688 m 1,27,-1
 847.5 1819 l 1,28,29
 848.5 1819 848.5 1819 976.5 1819 c 1,30,31
 976.5 1816 976.5 1816 976.5 1688 c 1,32,-1
 847.5 1688 l 1,27,-1
206.5 1688 m 1,33,-1
 206.5 1819 l 1,34,-1
 335.5 1819 l 1,35,36
 335.5 1816 335.5 1816 335.5 1688 c 1,37,-1
 206.5 1688 l 1,33,-1
335.5 1819 m 1,38,-1
 335.5 1944 l 1,39,40
 335.5 1944 335.5 1944 847.5 1944 c 1,41,-1
 847.5 1819 l 1,42,-1
 335.5 1819 l 1,38,-1
EndSplineSet
Validated: 37
EndChar

StartChar: D
Encoding: 68 68 35
Width: 1183
VWidth: 3072
GlyphClass: 1
Flags: W
LayerCount: 2
Fore
SplineSet
206.5 -101 m 1,0,-1
 206.5 24 l 1,1,-1
 718.5 24 l 1,2,-1
 718.5 -101 l 1,3,-1
 206.5 -101 l 1,0,-1
718.5 24 m 1,4,-1
 718.5 152 l 1,5,6
 718.5 152 718.5 152 847.5 152 c 1,7,-1
 847.5 24 l 1,8,-1
 718.5 24 l 1,4,-1
847.5 152 m 1,9,-1
 847.5 408 l 1,10,11
 848.5 408 848.5 408 976.5 408 c 1,12,-1
 976.5 152 l 1,13,-1
 847.5 152 l 1,9,-1
976.5 408 m 1,14,-1
 976.5 1435 l 1,15,-1
 1103.5 1435 l 1,16,-1
 1103.5 408 l 1,17,-1
 976.5 408 l 1,14,-1
847.5 1435 m 1,18,19
 847.5 1432 847.5 1432 847.5 1688 c 1,20,21
 848.5 1688 848.5 1688 976.5 1688 c 1,22,-1
 976.5 1435 l 1,23,-1
 847.5 1435 l 1,18,19
718.5 1688 m 1,24,-1
 718.5 1819 l 1,25,26
 718.5 1819 718.5 1819 847.5 1819 c 1,27,28
 847.5 1816 847.5 1816 847.5 1688 c 1,29,-1
 718.5 1688 l 1,24,-1
79.5 -101 m 1,30,-1
 79.5 1819 l 1,31,-1
 206.5 1819 l 1,32,-1
 206.5 -101 l 1,33,-1
 79.5 -101 l 1,30,-1
79.5 1819 m 1,34,-1
 79.5 1944 l 1,35,-1
 718.5 1944 l 1,36,-1
 718.5 1819 l 1,37,-1
 79.5 1819 l 1,34,-1
EndSplineSet
Validated: 37
EndChar

StartChar: E
Encoding: 69 69 36
Width: 1183
VWidth: 3072
GlyphClass: 1
Flags: W
LayerCount: 2
Fore
SplineSet
206.5 -101 m 1,0,-1
 206.5 24 l 1,1,-1
 1103.5 24 l 1,2,-1
 1103.5 -101 l 1,3,-1
 206.5 -101 l 1,0,-1
206.5 792 m 1,4,-1
 206.5 1051 l 1,5,-1
 847.5 1051 l 1,6,-1
 847.5 792 l 1,7,-1
 206.5 792 l 1,4,-1
79.5 -101 m 1,8,-1
 79.5 1819 l 1,9,-1
 206.5 1819 l 1,10,-1
 206.5 -101 l 1,11,-1
 79.5 -101 l 1,8,-1
79.5 1819 m 1,12,-1
 79.5 1944 l 1,13,-1
 1103.5 1944 l 1,14,-1
 1103.5 1819 l 1,15,-1
 79.5 1819 l 1,12,-1
EndSplineSet
Validated: 5
EndChar

StartChar: F
Encoding: 70 70 37
Width: 1183
VWidth: 3072
GlyphClass: 1
Flags: W
LayerCount: 2
Fore
SplineSet
206.5 920 m 1,0,-1
 206.5 1051 l 1,1,-1
 847.5 1051 l 1,2,3
 847.5 1048 847.5 1048 847.5 920 c 1,4,-1
 206.5 920 l 1,0,-1
79.5 -101 m 1,5,-1
 79.5 1819 l 1,6,-1
 206.5 1819 l 1,7,-1
 206.5 -101 l 1,8,-1
 79.5 -101 l 1,5,-1
79.5 1819 m 1,9,-1
 79.5 1944 l 1,10,-1
 1103.5 1944 l 1,11,-1
 1103.5 1819 l 1,12,-1
 79.5 1819 l 1,9,-1
EndSplineSet
Validated: 5
EndChar

StartChar: G
Encoding: 71 71 38
Width: 1183
VWidth: 3072
GlyphClass: 1
Flags: W
LayerCount: 2
Fore
SplineSet
335.5 -101 m 1,0,-1
 335.5 24 l 1,1,2
 335.5 24 335.5 24 847.5 24 c 1,3,-1
 847.5 -101 l 1,4,-1
 335.5 -101 l 1,0,-1
847.5 24 m 1,5,-1
 847.5 152 l 1,6,7
 848.5 152 848.5 152 976.5 152 c 1,8,-1
 976.5 24 l 1,9,-1
 847.5 24 l 1,5,-1
206.5 24 m 1,10,-1
 206.5 152 l 1,11,-1
 335.5 152 l 1,12,-1
 335.5 24 l 1,13,-1
 206.5 24 l 1,10,-1
976.5 152 m 1,14,-1
 976.5 920 l 1,15,-1
 1103.5 920 l 1,16,-1
 1103.5 152 l 1,17,-1
 976.5 152 l 1,14,-1
591.5 920 m 1,18,-1
 591.5 1051 l 1,19,-1
 1103.5 1051 l 1,20,21
 1103.5 1048 1103.5 1048 1103.5 920 c 1,22,-1
 591.5 920 l 1,18,-1
976.5 1435 m 1,23,24
 976.5 1432 976.5 1432 976.5 1688 c 1,25,-1
 1103.5 1688 l 1,26,-1
 1103.5 1435 l 1,27,-1
 976.5 1435 l 1,23,24
79.5 152 m 1,28,-1
 79.5 1688 l 1,29,-1
 206.5 1688 l 1,30,-1
 206.5 152 l 1,31,-1
 79.5 152 l 1,28,-1
847.5 1688 m 1,32,-1
 847.5 1819 l 1,33,34
 848.5 1819 848.5 1819 976.5 1819 c 1,35,36
 976.5 1816 976.5 1816 976.5 1688 c 1,37,-1
 847.5 1688 l 1,32,-1
206.5 1688 m 1,38,-1
 206.5 1819 l 1,39,-1
 335.5 1819 l 1,40,41
 335.5 1816 335.5 1816 335.5 1688 c 1,42,-1
 206.5 1688 l 1,38,-1
335.5 1819 m 1,43,-1
 335.5 1944 l 1,44,45
 335.5 1944 335.5 1944 847.5 1944 c 1,46,-1
 847.5 1819 l 1,47,-1
 335.5 1819 l 1,43,-1
EndSplineSet
Validated: 37
EndChar

StartChar: H
Encoding: 72 72 39
Width: 1183
VWidth: 3072
GlyphClass: 1
Flags: W
LayerCount: 2
Fore
SplineSet
206.5 792 m 1,0,-1
 206.5 1051 l 1,1,-1
 976.5 1051 l 1,2,-1
 976.5 792 l 1,3,-1
 206.5 792 l 1,0,-1
976.5 -101 m 1,4,-1
 976.5 1944 l 1,5,-1
 1103.5 1944 l 1,6,-1
 1103.5 -101 l 1,7,-1
 976.5 -101 l 1,4,-1
79.5 -101 m 1,8,-1
 79.5 1944 l 1,9,-1
 206.5 1944 l 1,10,-1
 206.5 -101 l 1,11,-1
 79.5 -101 l 1,8,-1
EndSplineSet
Validated: 5
EndChar

StartChar: I
Encoding: 73 73 40
Width: 1183
VWidth: 3072
GlyphClass: 1
Flags: W
LayerCount: 2
Fore
SplineSet
658.5 -101 m 1,0,-1
 658.5 24 l 1,1,2
 661.5 24 661.5 24 1103.5 24 c 1,3,-1
 1103.5 -101 l 1,4,-1
 658.5 -101 l 1,0,-1
79.5 -101 m 1,5,-1
 79.5 24 l 1,6,-1
 523.5 24 l 1,7,-1
 523.5 -101 l 1,8,-1
 79.5 -101 l 1,5,-1
523.5 -101 m 1,9,-1
 523.5 1819 l 1,10,11
 524.5 1819 524.5 1819 658.5 1819 c 1,12,-1
 658.5 -101 l 1,13,-1
 523.5 -101 l 1,9,-1
79.5 1819 m 1,14,-1
 79.5 1944 l 1,15,-1
 1103.5 1944 l 1,16,-1
 1103.5 1819 l 1,17,-1
 79.5 1819 l 1,14,-1
EndSplineSet
Validated: 5
EndChar

StartChar: J
Encoding: 74 74 41
Width: 1183
VWidth: 3072
GlyphClass: 1
Flags: W
LayerCount: 2
Fore
SplineSet
335.5 -101 m 1,0,-1
 335.5 24 l 1,1,2
 334.5 24 334.5 24 718.5 24 c 1,3,-1
 718.5 -101 l 1,4,-1
 335.5 -101 l 1,0,-1
718.5 24 m 1,5,-1
 718.5 152 l 1,6,7
 718.5 152 718.5 152 847.5 152 c 1,8,-1
 847.5 24 l 1,9,-1
 718.5 24 l 1,5,-1
206.5 24 m 1,10,-1
 206.5 152 l 1,11,-1
 335.5 152 l 1,12,-1
 335.5 24 l 1,13,-1
 206.5 24 l 1,10,-1
79.5 152 m 1,14,-1
 79.5 408 l 1,15,-1
 206.5 408 l 1,16,-1
 206.5 152 l 1,17,-1
 79.5 152 l 1,14,-1
847.5 152 m 1,18,-1
 847.5 1819 l 1,19,20
 848.5 1819 848.5 1819 976.5 1819 c 1,21,22
 976.5 1816 976.5 1816 976.5 152 c 1,23,-1
 847.5 152 l 1,18,-1
79.5 1819 m 1,24,-1
 79.5 1944 l 1,25,-1
 1103.5 1944 l 1,26,-1
 1103.5 1819 l 1,27,-1
 79.5 1819 l 1,24,-1
EndSplineSet
Validated: 37
EndChar

StartChar: K
Encoding: 75 75 42
Width: 1183
VWidth: 3072
GlyphClass: 1
Flags: W
LayerCount: 2
Fore
SplineSet
976.5 152 m 1,0,-1
 976.5 283 l 1,1,-1
 1103.5 283 l 1,2,3
 1103.5 280 1103.5 280 1103.5 152 c 1,4,-1
 976.5 152 l 1,0,-1
847.5 283 m 1,5,-1
 847.5 408 l 1,6,7
 848.5 408 848.5 408 976.5 408 c 1,8,-1
 976.5 283 l 1,9,-1
 847.5 283 l 1,5,-1
718.5 408 m 1,10,-1
 718.5 536 l 1,11,12
 718.5 536 718.5 536 847.5 536 c 1,13,-1
 847.5 408 l 1,14,-1
 718.5 408 l 1,10,-1
591.5 536 m 1,15,-1
 591.5 664 l 1,16,-1
 718.5 664 l 1,17,-1
 718.5 536 l 1,18,-1
 591.5 536 l 1,15,-1
464.5 664 m 1,19,-1
 464.5 792 l 1,20,-1
 591.5 792 l 1,21,-1
 591.5 664 l 1,22,-1
 464.5 664 l 1,19,-1
335.5 792 m 1,23,-1
 335.5 920 l 1,24,25
 336.5 920 336.5 920 464.5 920 c 1,26,-1
 464.5 792 l 1,27,-1
 335.5 792 l 1,23,-1
206.5 920 m 1,28,-1
 206.5 1051 l 1,29,-1
 335.5 1051 l 1,30,31
 335.5 1048 335.5 1048 335.5 920 c 1,32,-1
 206.5 920 l 1,28,-1
335.5 1051 m 1,33,-1
 335.5 1176 l 1,34,35
 336.5 1176 336.5 1176 464.5 1176 c 1,36,-1
 464.5 1051 l 1,37,-1
 335.5 1051 l 1,33,-1
464.5 1176 m 1,38,-1
 464.5 1304 l 1,39,-1
 591.5 1304 l 1,40,-1
 591.5 1176 l 1,41,-1
 464.5 1176 l 1,38,-1
591.5 1304 m 1,42,-1
 591.5 1435 l 1,43,-1
 718.5 1435 l 1,44,45
 718.5 1432 718.5 1432 718.5 1304 c 1,46,-1
 591.5 1304 l 1,42,-1
718.5 1435 m 1,47,-1
 718.5 1560 l 1,48,49
 718.5 1560 718.5 1560 847.5 1560 c 1,50,-1
 847.5 1435 l 1,51,-1
 718.5 1435 l 1,47,-1
847.5 1560 m 1,52,-1
 847.5 1688 l 1,53,54
 848.5 1688 848.5 1688 976.5 1688 c 1,55,-1
 976.5 1560 l 1,56,-1
 847.5 1560 l 1,52,-1
976.5 1688 m 1,57,-1
 976.5 1819 l 1,58,-1
 1103.5 1819 l 1,59,60
 1103.5 1816 1103.5 1816 1103.5 1688 c 1,61,-1
 976.5 1688 l 1,57,-1
79.5 -101 m 1,62,-1
 79.5 1944 l 1,63,-1
 206.5 1944 l 1,64,-1
 206.5 -101 l 1,65,-1
 79.5 -101 l 1,62,-1
EndSplineSet
Validated: 5
EndChar

StartChar: L
Encoding: 76 76 43
Width: 1183
VWidth: 3072
GlyphClass: 1
Flags: W
LayerCount: 2
Fore
SplineSet
206.5 -101 m 1,0,-1
 206.5 24 l 1,1,-1
 1103.5 24 l 1,2,-1
 1103.5 -101 l 1,3,-1
 206.5 -101 l 1,0,-1
79.5 -101 m 1,4,-1
 79.5 1944 l 1,5,-1
 206.5 1944 l 1,6,-1
 206.5 -101 l 1,7,-1
 79.5 -101 l 1,4,-1
EndSplineSet
Validated: 5
EndChar

StartChar: M
Encoding: 77 77 44
Width: 1183
VWidth: 3072
GlyphClass: 1
Flags: W
LayerCount: 2
Fore
SplineSet
464.5 920 m 1,0,-1
 464.5 1176 l 1,1,-1
 718.5 1176 l 1,2,-1
 718.5 920 l 1,3,-1
 464.5 920 l 1,0,-1
718.5 1176 m 1,4,-1
 718.5 1435 l 1,5,6
 718.5 1435 718.5 1435 847.5 1435 c 1,7,-1
 847.5 1176 l 1,8,-1
 718.5 1176 l 1,4,-1
335.5 1176 m 1,9,-1
 335.5 1435 l 1,10,11
 336.5 1435 336.5 1435 464.5 1435 c 1,12,-1
 464.5 1176 l 1,13,-1
 335.5 1176 l 1,9,-1
847.5 1435 m 1,14,15
 847.5 1432 847.5 1432 847.5 1688 c 1,16,17
 848.5 1688 848.5 1688 976.5 1688 c 1,18,-1
 976.5 1435 l 1,19,-1
 847.5 1435 l 1,14,15
206.5 1435 m 1,20,21
 206.5 1432 206.5 1432 206.5 1688 c 1,22,-1
 335.5 1688 l 1,23,-1
 335.5 1435 l 1,24,-1
 206.5 1435 l 1,20,21
976.5 -101 m 1,25,-1
 976.5 1944 l 1,26,-1
 1103.5 1944 l 1,27,-1
 1103.5 -101 l 1,28,-1
 976.5 -101 l 1,25,-1
79.5 -101 m 1,29,-1
 79.5 1944 l 1,30,-1
 206.5 1944 l 1,31,-1
 206.5 -101 l 1,32,-1
 79.5 -101 l 1,29,-1
EndSplineSet
Validated: 37
EndChar

StartChar: N
Encoding: 78 78 45
Width: 1183
VWidth: 3072
GlyphClass: 1
Flags: W
LayerCount: 2
Fore
SplineSet
847.5 152 m 1,0,-1
 847.5 408 l 1,1,2
 848.5 408 848.5 408 976.5 408 c 1,3,-1
 976.5 152 l 1,4,-1
 847.5 152 l 1,0,-1
718.5 408 m 1,5,-1
 718.5 664 l 1,6,7
 718.5 664 718.5 664 847.5 664 c 1,8,-1
 847.5 408 l 1,9,-1
 718.5 408 l 1,5,-1
591.5 664 m 1,10,-1
 591.5 920 l 1,11,-1
 718.5 920 l 1,12,-1
 718.5 664 l 1,13,-1
 591.5 664 l 1,10,-1
464.5 920 m 1,14,-1
 464.5 1176 l 1,15,-1
 591.5 1176 l 1,16,-1
 591.5 920 l 1,17,-1
 464.5 920 l 1,14,-1
335.5 1176 m 1,18,-1
 335.5 1435 l 1,19,20
 336.5 1435 336.5 1435 464.5 1435 c 1,21,-1
 464.5 1176 l 1,22,-1
 335.5 1176 l 1,18,-1
206.5 1435 m 1,23,24
 206.5 1432 206.5 1432 206.5 1688 c 1,25,-1
 335.5 1688 l 1,26,-1
 335.5 1435 l 1,27,-1
 206.5 1435 l 1,23,24
976.5 -101 m 1,28,-1
 976.5 1944 l 1,29,-1
 1103.5 1944 l 1,30,-1
 1103.5 -101 l 1,31,-1
 976.5 -101 l 1,28,-1
79.5 -101 m 1,32,-1
 79.5 1944 l 1,33,-1
 206.5 1944 l 1,34,-1
 206.5 -101 l 1,35,-1
 79.5 -101 l 1,32,-1
EndSplineSet
Validated: 37
EndChar

StartChar: O
Encoding: 79 79 46
Width: 1183
VWidth: 3072
GlyphClass: 1
Flags: W
LayerCount: 2
Fore
SplineSet
335.5 -101 m 1,0,-1
 335.5 24 l 1,1,2
 335.5 24 335.5 24 847.5 24 c 1,3,-1
 847.5 -101 l 1,4,-1
 335.5 -101 l 1,0,-1
847.5 24 m 1,5,-1
 847.5 152 l 1,6,7
 848.5 152 848.5 152 976.5 152 c 1,8,-1
 976.5 24 l 1,9,-1
 847.5 24 l 1,5,-1
206.5 24 m 1,10,-1
 206.5 152 l 1,11,-1
 335.5 152 l 1,12,-1
 335.5 24 l 1,13,-1
 206.5 24 l 1,10,-1
976.5 152 m 1,14,-1
 976.5 1688 l 1,15,-1
 1103.5 1688 l 1,16,-1
 1103.5 152 l 1,17,-1
 976.5 152 l 1,14,-1
79.5 152 m 1,18,-1
 79.5 1688 l 1,19,-1
 206.5 1688 l 1,20,-1
 206.5 152 l 1,21,-1
 79.5 152 l 1,18,-1
847.5 1688 m 1,22,-1
 847.5 1819 l 1,23,24
 848.5 1819 848.5 1819 976.5 1819 c 1,25,26
 976.5 1816 976.5 1816 976.5 1688 c 1,27,-1
 847.5 1688 l 1,22,-1
206.5 1688 m 1,28,-1
 206.5 1819 l 1,29,-1
 335.5 1819 l 1,30,31
 335.5 1816 335.5 1816 335.5 1688 c 1,32,-1
 206.5 1688 l 1,28,-1
335.5 1819 m 1,33,-1
 335.5 1944 l 1,34,35
 335.5 1944 335.5 1944 847.5 1944 c 1,36,-1
 847.5 1819 l 1,37,-1
 335.5 1819 l 1,33,-1
EndSplineSet
Validated: 5
EndChar

StartChar: P
Encoding: 80 80 47
Width: 1183
VWidth: 3072
GlyphClass: 1
Flags: W
LayerCount: 2
Fore
SplineSet
206.5 920 m 1,0,-1
 206.5 1051 l 1,1,-1
 847.5 1051 l 1,2,3
 847.5 1048 847.5 1048 847.5 920 c 1,4,-1
 206.5 920 l 1,0,-1
847.5 1051 m 1,5,-1
 847.5 1176 l 1,6,7
 848.5 1176 848.5 1176 976.5 1176 c 1,8,-1
 976.5 1051 l 1,9,-1
 847.5 1051 l 1,5,-1
976.5 1176 m 1,10,-1
 976.5 1688 l 1,11,-1
 1103.5 1688 l 1,12,-1
 1103.5 1176 l 1,13,-1
 976.5 1176 l 1,10,-1
847.5 1688 m 1,14,-1
 847.5 1819 l 1,15,16
 848.5 1819 848.5 1819 976.5 1819 c 1,17,18
 976.5 1816 976.5 1816 976.5 1688 c 1,19,-1
 847.5 1688 l 1,14,-1
79.5 -101 m 1,20,-1
 79.5 1819 l 1,21,-1
 206.5 1819 l 1,22,-1
 206.5 -101 l 1,23,-1
 79.5 -101 l 1,20,-1
79.5 1819 m 1,24,-1
 79.5 1944 l 1,25,-1
 847.5 1944 l 1,26,-1
 847.5 1819 l 1,27,-1
 79.5 1819 l 1,24,-1
EndSplineSet
Validated: 5
EndChar

StartChar: Q
Encoding: 81 81 48
Width: 1183
VWidth: 3072
GlyphClass: 1
Flags: W
LayerCount: 2
Fore
SplineSet
718.5 -360 m 1,0,-1
 718.5 -232 l 1,1,-1
 1103.5 -232 l 1,2,-1
 1103.5 -360 l 1,3,-1
 718.5 -360 l 1,0,-1
591.5 -232 m 1,4,-1
 591.5 -101 l 1,5,-1
 718.5 -101 l 1,6,7
 718.5 -104 718.5 -104 718.5 -232 c 1,8,-1
 591.5 -232 l 1,4,-1
591.5 -101 m 1,9,-1
 591.5 24 l 1,10,-1
 847.5 24 l 1,11,-1
 847.5 -101 l 1,12,-1
 591.5 -101 l 1,9,-1
335.5 -101 m 1,13,-1
 335.5 24 l 1,14,15
 336.5 24 336.5 24 464.5 24 c 1,16,-1
 464.5 -101 l 1,17,-1
 335.5 -101 l 1,13,-1
847.5 24 m 1,18,-1
 847.5 152 l 1,19,20
 848.5 152 848.5 152 976.5 152 c 1,21,-1
 976.5 24 l 1,22,-1
 847.5 24 l 1,18,-1
464.5 -101 m 1,23,24
 464.5 -104 464.5 -104 464.5 152 c 1,25,-1
 591.5 152 l 1,26,-1
 591.5 -101 l 1,27,-1
 464.5 -101 l 1,23,24
206.5 24 m 1,28,-1
 206.5 152 l 1,29,-1
 335.5 152 l 1,30,-1
 335.5 24 l 1,31,-1
 206.5 24 l 1,28,-1
976.5 152 m 1,32,-1
 976.5 1688 l 1,33,-1
 1103.5 1688 l 1,34,-1
 1103.5 152 l 1,35,-1
 976.5 152 l 1,32,-1
79.5 152 m 1,36,-1
 79.5 1688 l 1,37,-1
 206.5 1688 l 1,38,-1
 206.5 152 l 1,39,-1
 79.5 152 l 1,36,-1
847.5 1688 m 1,40,-1
 847.5 1819 l 1,41,42
 848.5 1819 848.5 1819 976.5 1819 c 1,43,44
 976.5 1816 976.5 1816 976.5 1688 c 1,45,-1
 847.5 1688 l 1,40,-1
206.5 1688 m 1,46,-1
 206.5 1819 l 1,47,-1
 335.5 1819 l 1,48,49
 335.5 1816 335.5 1816 335.5 1688 c 1,50,-1
 206.5 1688 l 1,46,-1
335.5 1819 m 1,51,-1
 335.5 1944 l 1,52,53
 335.5 1944 335.5 1944 847.5 1944 c 1,54,-1
 847.5 1819 l 1,55,-1
 335.5 1819 l 1,51,-1
EndSplineSet
Validated: 37
EndChar

StartChar: R
Encoding: 82 82 49
Width: 1183
VWidth: 3072
GlyphClass: 1
Flags: W
LayerCount: 2
Fore
SplineSet
976.5 -101 m 1,0,-1
 976.5 24 l 1,1,-1
 1103.5 24 l 1,2,-1
 1103.5 -101 l 1,3,-1
 976.5 -101 l 1,0,-1
847.5 24 m 1,4,-1
 847.5 152 l 1,5,6
 848.5 152 848.5 152 976.5 152 c 1,7,-1
 976.5 24 l 1,8,-1
 847.5 24 l 1,4,-1
718.5 152 m 1,9,-1
 718.5 283 l 1,10,11
 718.5 283 718.5 283 847.5 283 c 1,12,13
 847.5 280 847.5 280 847.5 152 c 1,14,-1
 718.5 152 l 1,9,-1
591.5 283 m 1,15,-1
 591.5 408 l 1,16,-1
 718.5 408 l 1,17,-1
 718.5 283 l 1,18,-1
 591.5 283 l 1,15,-1
464.5 408 m 1,19,-1
 464.5 536 l 1,20,-1
 591.5 536 l 1,21,-1
 591.5 408 l 1,22,-1
 464.5 408 l 1,19,-1
335.5 536 m 1,23,-1
 335.5 664 l 1,24,25
 336.5 664 336.5 664 464.5 664 c 1,26,-1
 464.5 536 l 1,27,-1
 335.5 536 l 1,23,-1
206.5 664 m 1,28,-1
 206.5 792 l 1,29,-1
 335.5 792 l 1,30,-1
 335.5 664 l 1,31,-1
 206.5 664 l 1,28,-1
206.5 792 m 1,32,-1
 206.5 920 l 1,33,-1
 847.5 920 l 1,34,-1
 847.5 792 l 1,35,-1
 206.5 792 l 1,32,-1
847.5 920 m 1,36,-1
 847.5 1051 l 1,37,38
 848.5 1051 848.5 1051 976.5 1051 c 1,39,40
 976.5 1048 976.5 1048 976.5 920 c 1,41,-1
 847.5 920 l 1,36,-1
976.5 1051 m 1,42,43
 976.5 1048 976.5 1048 976.5 1688 c 1,44,-1
 1103.5 1688 l 1,45,-1
 1103.5 1051 l 1,46,-1
 976.5 1051 l 1,42,43
847.5 1688 m 1,47,-1
 847.5 1819 l 1,48,49
 848.5 1819 848.5 1819 976.5 1819 c 1,50,51
 976.5 1816 976.5 1816 976.5 1688 c 1,52,-1
 847.5 1688 l 1,47,-1
79.5 -101 m 1,53,-1
 79.5 1819 l 1,54,-1
 206.5 1819 l 1,55,-1
 206.5 -101 l 1,56,-1
 79.5 -101 l 1,53,-1
79.5 1819 m 1,57,-1
 79.5 1944 l 1,58,-1
 847.5 1944 l 1,59,-1
 847.5 1819 l 1,60,-1
 79.5 1819 l 1,57,-1
EndSplineSet
Validated: 37
EndChar

StartChar: S
Encoding: 83 83 50
Width: 1183
VWidth: 3072
GlyphClass: 1
Flags: W
LayerCount: 2
Fore
SplineSet
335.5 -101 m 1,0,-1
 335.5 24 l 1,1,2
 335.5 24 335.5 24 847.5 24 c 1,3,-1
 847.5 -101 l 1,4,-1
 335.5 -101 l 1,0,-1
847.5 24 m 1,5,-1
 847.5 152 l 1,6,7
 848.5 152 848.5 152 976.5 152 c 1,8,-1
 976.5 24 l 1,9,-1
 847.5 24 l 1,5,-1
206.5 24 m 1,10,-1
 206.5 152 l 1,11,-1
 335.5 152 l 1,12,-1
 335.5 24 l 1,13,-1
 206.5 24 l 1,10,-1
79.5 152 m 1,14,-1
 79.5 283 l 1,15,-1
 206.5 283 l 1,16,17
 206.5 280 206.5 280 206.5 152 c 1,18,-1
 79.5 152 l 1,14,-1
976.5 152 m 1,19,-1
 976.5 664 l 1,20,-1
 1103.5 664 l 1,21,-1
 1103.5 152 l 1,22,-1
 976.5 152 l 1,19,-1
847.5 664 m 1,23,-1
 847.5 792 l 1,24,25
 848.5 792 848.5 792 976.5 792 c 1,26,-1
 976.5 664 l 1,27,-1
 847.5 664 l 1,23,-1
591.5 792 m 1,28,-1
 591.5 920 l 1,29,-1
 847.5 920 l 1,30,-1
 847.5 792 l 1,31,-1
 591.5 792 l 1,28,-1
335.5 920 m 1,32,-1
 335.5 1051 l 1,33,-1
 591.5 1051 l 1,34,35
 591.5 1048 591.5 1048 591.5 920 c 1,36,-1
 335.5 920 l 1,32,-1
206.5 1051 m 1,37,-1
 206.5 1176 l 1,38,-1
 335.5 1176 l 1,39,-1
 335.5 1051 l 1,40,-1
 206.5 1051 l 1,37,-1
976.5 1435 m 1,41,42
 976.5 1432 976.5 1432 976.5 1688 c 1,43,-1
 1103.5 1688 l 1,44,-1
 1103.5 1435 l 1,45,-1
 976.5 1435 l 1,41,42
79.5 1176 m 1,46,-1
 79.5 1688 l 1,47,-1
 206.5 1688 l 1,48,-1
 206.5 1176 l 1,49,-1
 79.5 1176 l 1,46,-1
847.5 1688 m 1,50,-1
 847.5 1819 l 1,51,52
 848.5 1819 848.5 1819 976.5 1819 c 1,53,54
 976.5 1816 976.5 1816 976.5 1688 c 1,55,-1
 847.5 1688 l 1,50,-1
206.5 1688 m 1,56,-1
 206.5 1819 l 1,57,-1
 335.5 1819 l 1,58,59
 335.5 1816 335.5 1816 335.5 1688 c 1,60,-1
 206.5 1688 l 1,56,-1
335.5 1819 m 1,61,-1
 335.5 1944 l 1,62,63
 335.5 1944 335.5 1944 847.5 1944 c 1,64,-1
 847.5 1819 l 1,65,-1
 335.5 1819 l 1,61,-1
EndSplineSet
Validated: 37
EndChar

StartChar: T
Encoding: 84 84 51
Width: 1183
VWidth: 3072
GlyphClass: 1
Flags: W
LayerCount: 2
Fore
SplineSet
523.5 -101 m 1,0,1
 523.5 -98 523.5 -98 523.5 1816 c 1,2,3
 524.5 1816 524.5 1816 658.5 1816 c 1,4,-1
 658.5 -101 l 1,5,-1
 523.5 -101 l 1,0,1
79.5 1816 m 1,6,-1
 79.5 1944 l 1,7,-1
 1103.5 1944 l 1,8,-1
 1103.5 1816 l 1,9,-1
 79.5 1816 l 1,6,-1
EndSplineSet
Validated: 5
EndChar

StartChar: U
Encoding: 85 85 52
Width: 1183
VWidth: 3072
GlyphClass: 1
Flags: W
LayerCount: 2
Fore
SplineSet
335.5 -101 m 1,0,-1
 335.5 24 l 1,1,2
 335.5 24 335.5 24 847.5 24 c 1,3,-1
 847.5 -101 l 1,4,-1
 335.5 -101 l 1,0,-1
847.5 24 m 1,5,-1
 847.5 152 l 1,6,7
 848.5 152 848.5 152 976.5 152 c 1,8,-1
 976.5 24 l 1,9,-1
 847.5 24 l 1,5,-1
206.5 24 m 1,10,-1
 206.5 152 l 1,11,-1
 335.5 152 l 1,12,-1
 335.5 24 l 1,13,-1
 206.5 24 l 1,10,-1
976.5 152 m 1,14,-1
 976.5 1944 l 1,15,-1
 1103.5 1944 l 1,16,-1
 1103.5 152 l 1,17,-1
 976.5 152 l 1,14,-1
79.5 152 m 1,18,-1
 79.5 1944 l 1,19,-1
 206.5 1944 l 1,20,-1
 206.5 152 l 1,21,-1
 79.5 152 l 1,18,-1
EndSplineSet
Validated: 5
EndChar

StartChar: V
Encoding: 86 86 53
Width: 1183
VWidth: 3072
GlyphClass: 1
Flags: W
LayerCount: 2
Fore
SplineSet
464.5 -101 m 1,0,1
 464.5 -104 464.5 -104 464.5 152 c 1,2,-1
 718.5 152 l 1,3,-1
 718.5 -101 l 1,4,-1
 464.5 -101 l 1,0,1
718.5 152 m 1,5,-1
 718.5 408 l 1,6,7
 718.5 408 718.5 408 847.5 408 c 1,8,-1
 847.5 152 l 1,9,-1
 718.5 152 l 1,5,-1
335.5 152 m 1,10,-1
 335.5 408 l 1,11,12
 336.5 408 336.5 408 464.5 408 c 1,13,-1
 464.5 152 l 1,14,-1
 335.5 152 l 1,10,-1
847.5 408 m 1,15,-1
 847.5 664 l 1,16,17
 848.5 664 848.5 664 976.5 664 c 1,18,-1
 976.5 408 l 1,19,-1
 847.5 408 l 1,15,-1
206.5 408 m 1,20,-1
 206.5 664 l 1,21,-1
 335.5 664 l 1,22,-1
 335.5 408 l 1,23,-1
 206.5 408 l 1,20,-1
976.5 664 m 1,24,-1
 976.5 1944 l 1,25,-1
 1103.5 1944 l 1,26,-1
 1103.5 664 l 1,27,-1
 976.5 664 l 1,24,-1
79.5 664 m 1,28,-1
 79.5 1944 l 1,29,-1
 206.5 1944 l 1,30,-1
 206.5 664 l 1,31,-1
 79.5 664 l 1,28,-1
EndSplineSet
Validated: 37
EndChar

StartChar: W
Encoding: 87 87 54
Width: 1183
VWidth: 3072
GlyphClass: 1
Flags: W
LayerCount: 2
Fore
SplineSet
847.5 152 m 1,0,-1
 847.5 408 l 1,1,2
 848.5 408 848.5 408 976.5 408 c 1,3,-1
 976.5 152 l 1,4,-1
 847.5 152 l 1,0,-1
206.5 152 m 1,5,-1
 206.5 408 l 1,6,-1
 335.5 408 l 1,7,-1
 335.5 152 l 1,8,-1
 206.5 152 l 1,5,-1
718.5 408 m 1,9,-1
 718.5 664 l 1,10,11
 718.5 664 718.5 664 847.5 664 c 1,12,-1
 847.5 408 l 1,13,-1
 718.5 408 l 1,9,-1
335.5 408 m 1,14,-1
 335.5 664 l 1,15,16
 336.5 664 336.5 664 464.5 664 c 1,17,-1
 464.5 408 l 1,18,-1
 335.5 408 l 1,14,-1
464.5 664 m 1,19,-1
 464.5 920 l 1,20,-1
 718.5 920 l 1,21,-1
 718.5 664 l 1,22,-1
 464.5 664 l 1,19,-1
976.5 -101 m 1,23,-1
 976.5 1944 l 1,24,-1
 1103.5 1944 l 1,25,-1
 1103.5 -101 l 1,26,-1
 976.5 -101 l 1,23,-1
79.5 -101 m 1,27,-1
 79.5 1944 l 1,28,-1
 206.5 1944 l 1,29,-1
 206.5 -101 l 1,30,-1
 79.5 -101 l 1,27,-1
EndSplineSet
Validated: 5
EndChar

StartChar: X
Encoding: 88 88 55
Width: 1183
VWidth: 3072
GlyphClass: 1
Flags: W
LayerCount: 2
Fore
SplineSet
976.5 -101 m 1,0,1
 976.5 -104 976.5 -104 976.5 152 c 1,2,-1
 1103.5 152 l 1,3,-1
 1103.5 -101 l 1,4,-1
 976.5 -101 l 1,0,1
79.5 -101 m 1,5,6
 79.5 -104 79.5 -104 79.5 152 c 1,7,-1
 206.5 152 l 1,8,-1
 206.5 -101 l 1,9,-1
 79.5 -101 l 1,5,6
847.5 152 m 1,10,-1
 847.5 408 l 1,11,12
 848.5 408 848.5 408 976.5 408 c 1,13,-1
 976.5 152 l 1,14,-1
 847.5 152 l 1,10,-1
206.5 152 m 1,15,-1
 206.5 408 l 1,16,-1
 335.5 408 l 1,17,-1
 335.5 152 l 1,18,-1
 206.5 152 l 1,15,-1
718.5 408 m 1,19,-1
 718.5 664 l 1,20,21
 718.5 664 718.5 664 847.5 664 c 1,22,-1
 847.5 408 l 1,23,-1
 718.5 408 l 1,19,-1
335.5 408 m 1,24,-1
 335.5 664 l 1,25,26
 336.5 664 336.5 664 464.5 664 c 1,27,-1
 464.5 408 l 1,28,-1
 335.5 408 l 1,24,-1
464.5 664 m 1,29,-1
 464.5 1176 l 1,30,-1
 718.5 1176 l 1,31,-1
 718.5 664 l 1,32,-1
 464.5 664 l 1,29,-1
718.5 1176 m 1,33,-1
 718.5 1435 l 1,34,35
 718.5 1435 718.5 1435 847.5 1435 c 1,36,-1
 847.5 1176 l 1,37,-1
 718.5 1176 l 1,33,-1
335.5 1176 m 1,38,-1
 335.5 1435 l 1,39,40
 336.5 1435 336.5 1435 464.5 1435 c 1,41,-1
 464.5 1176 l 1,42,-1
 335.5 1176 l 1,38,-1
847.5 1435 m 1,43,44
 847.5 1432 847.5 1432 847.5 1688 c 1,45,46
 848.5 1688 848.5 1688 976.5 1688 c 1,47,-1
 976.5 1435 l 1,48,-1
 847.5 1435 l 1,43,44
206.5 1435 m 1,49,50
 206.5 1432 206.5 1432 206.5 1688 c 1,51,-1
 335.5 1688 l 1,52,-1
 335.5 1435 l 1,53,-1
 206.5 1435 l 1,49,50
976.5 1688 m 1,54,-1
 976.5 1944 l 1,55,-1
 1103.5 1944 l 1,56,-1
 1103.5 1688 l 1,57,-1
 976.5 1688 l 1,54,-1
79.5 1688 m 1,58,-1
 79.5 1944 l 1,59,-1
 206.5 1944 l 1,60,-1
 206.5 1688 l 1,61,-1
 79.5 1688 l 1,58,-1
EndSplineSet
Validated: 37
EndChar

StartChar: Y
Encoding: 89 89 56
Width: 1059
VWidth: 3072
GlyphClass: 1
Flags: W
LayerCount: 2
Fore
SplineSet
464.5 -101 m 1,0,-1
 464.5 1176 l 1,1,-1
 594.5 1176 l 1,2,-1
 594.5 -101 l 1,3,-1
 464.5 -101 l 1,0,-1
594.5 1176 m 1,4,-1
 594.5 1435 l 1,5,-1
 723.5 1435 l 1,6,-1
 723.5 1176 l 1,7,-1
 594.5 1176 l 1,4,-1
335.5 1176 m 1,8,-1
 335.5 1435 l 1,9,10
 336.5 1435 336.5 1435 464.5 1435 c 1,11,-1
 464.5 1176 l 1,12,-1
 335.5 1176 l 1,8,-1
723.5 1435 m 1,13,14
 723.5 1432 723.5 1432 723.5 1688 c 1,15,-1
 854.5 1688 l 1,16,-1
 854.5 1435 l 1,17,-1
 723.5 1435 l 1,13,14
206.5 1435 m 1,18,19
 206.5 1432 206.5 1432 206.5 1688 c 1,20,-1
 335.5 1688 l 1,21,-1
 335.5 1435 l 1,22,-1
 206.5 1435 l 1,18,19
854.5 1688 m 1,23,-1
 854.5 1944 l 1,24,-1
 979.5 1944 l 1,25,-1
 979.5 1688 l 1,26,-1
 854.5 1688 l 1,23,-1
79.5 1688 m 1,27,-1
 79.5 1944 l 1,28,-1
 206.5 1944 l 1,29,-1
 206.5 1688 l 1,30,-1
 79.5 1688 l 1,27,-1
EndSplineSet
Validated: 37
EndChar

StartChar: Z
Encoding: 90 90 57
Width: 1183
VWidth: 3072
GlyphClass: 1
Flags: W
LayerCount: 2
Fore
SplineSet
206.5 -101 m 1,0,-1
 206.5 24 l 1,1,-1
 1103.5 24 l 1,2,-1
 1103.5 -101 l 1,3,-1
 206.5 -101 l 1,0,-1
79.5 -101 m 1,4,5
 79.5 -104 79.5 -104 79.5 152 c 1,6,-1
 206.5 152 l 1,7,-1
 206.5 -101 l 1,8,-1
 79.5 -101 l 1,4,5
206.5 152 m 1,9,-1
 206.5 408 l 1,10,-1
 335.5 408 l 1,11,-1
 335.5 152 l 1,12,-1
 206.5 152 l 1,9,-1
335.5 408 m 1,13,-1
 335.5 664 l 1,14,15
 336.5 664 336.5 664 464.5 664 c 1,16,-1
 464.5 408 l 1,17,-1
 335.5 408 l 1,13,-1
464.5 664 m 1,18,-1
 464.5 920 l 1,19,-1
 591.5 920 l 1,20,-1
 591.5 664 l 1,21,-1
 464.5 664 l 1,18,-1
591.5 920 m 1,22,-1
 591.5 1176 l 1,23,-1
 718.5 1176 l 1,24,-1
 718.5 920 l 1,25,-1
 591.5 920 l 1,22,-1
718.5 1176 m 1,26,-1
 718.5 1435 l 1,27,28
 718.5 1435 718.5 1435 847.5 1435 c 1,29,-1
 847.5 1176 l 1,30,-1
 718.5 1176 l 1,26,-1
847.5 1435 m 1,31,32
 847.5 1432 847.5 1432 847.5 1688 c 1,33,34
 848.5 1688 848.5 1688 976.5 1688 c 1,35,-1
 976.5 1435 l 1,36,-1
 847.5 1435 l 1,31,32
976.5 1688 m 1,37,-1
 976.5 1819 l 1,38,-1
 1103.5 1819 l 1,39,40
 1103.5 1816 1103.5 1816 1103.5 1688 c 1,41,-1
 976.5 1688 l 1,37,-1
79.5 1819 m 1,42,-1
 79.5 1944 l 1,43,-1
 1103.5 1944 l 1,44,-1
 1103.5 1819 l 1,45,-1
 79.5 1819 l 1,42,-1
EndSplineSet
Validated: 37
EndChar

StartChar: bracketleft
Encoding: 91 91 58
Width: 1183
VWidth: 3072
GlyphClass: 1
Flags: W
LayerCount: 2
Fore
SplineSet
206.5 -101 m 1,0,-1
 206.5 24 l 1,1,-1
 1103.5 24 l 1,2,-1
 1103.5 -101 l 1,3,-1
 206.5 -101 l 1,0,-1
79.5 -101 m 1,4,-1
 79.5 1819 l 1,5,-1
 206.5 1819 l 1,6,-1
 206.5 -101 l 1,7,-1
 79.5 -101 l 1,4,-1
79.5 1819 m 1,8,-1
 79.5 1944 l 1,9,-1
 1103.5 1944 l 1,10,-1
 1103.5 1819 l 1,11,-1
 79.5 1819 l 1,8,-1
EndSplineSet
Validated: 5
EndChar

StartChar: backslash
Encoding: 92 92 59
Width: 1183
VWidth: 3072
GlyphClass: 1
Flags: W
LayerCount: 2
Fore
SplineSet
976.5 -101 m 1,0,1
 976.5 -104 976.5 -104 976.5 152 c 1,2,-1
 1103.5 152 l 1,3,-1
 1103.5 -101 l 1,4,-1
 976.5 -101 l 1,0,1
847.5 152 m 1,5,-1
 847.5 408 l 1,6,7
 848.5 408 848.5 408 976.5 408 c 1,8,-1
 976.5 152 l 1,9,-1
 847.5 152 l 1,5,-1
718.5 408 m 1,10,-1
 718.5 664 l 1,11,12
 718.5 664 718.5 664 847.5 664 c 1,13,-1
 847.5 408 l 1,14,-1
 718.5 408 l 1,10,-1
591.5 664 m 1,15,-1
 591.5 920 l 1,16,-1
 718.5 920 l 1,17,-1
 718.5 664 l 1,18,-1
 591.5 664 l 1,15,-1
464.5 920 m 1,19,-1
 464.5 1176 l 1,20,-1
 591.5 1176 l 1,21,-1
 591.5 920 l 1,22,-1
 464.5 920 l 1,19,-1
335.5 1176 m 1,23,-1
 335.5 1435 l 1,24,25
 336.5 1435 336.5 1435 464.5 1435 c 1,26,-1
 464.5 1176 l 1,27,-1
 335.5 1176 l 1,23,-1
206.5 1435 m 1,28,29
 206.5 1432 206.5 1432 206.5 1688 c 1,30,-1
 335.5 1688 l 1,31,-1
 335.5 1435 l 1,32,-1
 206.5 1435 l 1,28,29
79.5 1688 m 1,33,-1
 79.5 1944 l 1,34,-1
 206.5 1944 l 1,35,-1
 206.5 1688 l 1,36,-1
 79.5 1688 l 1,33,-1
EndSplineSet
Validated: 37
EndChar

StartChar: bracketright
Encoding: 93 93 60
Width: 1183
VWidth: 3072
GlyphClass: 1
Flags: W
LayerCount: 2
Fore
SplineSet
79.5 -101 m 1,0,-1
 79.5 24 l 1,1,-1
 976.5 24 l 1,2,-1
 976.5 -101 l 1,3,-1
 79.5 -101 l 1,0,-1
976.5 -101 m 1,4,-1
 976.5 1819 l 1,5,-1
 1103.5 1819 l 1,6,-1
 1103.5 -101 l 1,7,-1
 976.5 -101 l 1,4,-1
79.5 1819 m 1,8,-1
 79.5 1944 l 1,9,-1
 1103.5 1944 l 1,10,-1
 1103.5 1819 l 1,11,-1
 79.5 1819 l 1,8,-1
EndSplineSet
Validated: 5
EndChar

StartChar: asciicircum
Encoding: 94 94 61
Width: 927
VWidth: 3072
GlyphClass: 1
Flags: W
LayerCount: 2
Fore
SplineSet
718.5 1176 m 1,0,-1
 718.5 1435 l 1,1,2
 718.5 1435 718.5 1435 847.5 1435 c 1,3,-1
 847.5 1176 l 1,4,-1
 718.5 1176 l 1,0,-1
79.5 1176 m 1,5,-1
 79.5 1435 l 1,6,-1
 204.5 1435 l 1,7,-1
 204.5 1176 l 1,8,-1
 79.5 1176 l 1,5,-1
588.5 1435 m 1,9,10
 588.5 1432 588.5 1432 588.5 1688 c 1,11,12
 591.5 1688 591.5 1688 718.5 1688 c 1,13,-1
 718.5 1435 l 1,14,-1
 588.5 1435 l 1,9,10
204.5 1435 m 1,15,16
 204.5 1432 204.5 1432 204.5 1688 c 1,17,18
 207.5 1688 207.5 1688 335.5 1688 c 1,19,-1
 335.5 1435 l 1,20,-1
 204.5 1435 l 1,15,16
335.5 1688 m 1,21,-1
 335.5 1944 l 1,22,-1
 588.5 1944 l 1,23,-1
 588.5 1688 l 1,24,-1
 335.5 1688 l 1,21,-1
EndSplineSet
Validated: 37
EndChar

StartChar: underscore
Encoding: 95 95 62
Width: 1183
VWidth: 3072
GlyphClass: 1
Flags: W
LayerCount: 2
Fore
SplineSet
79.5 -101 m 1,0,-1
 79.5 24 l 1,1,-1
 1103.5 24 l 1,2,-1
 1103.5 -101 l 1,3,-1
 79.5 -101 l 1,0,-1
EndSplineSet
Validated: 1
EndChar

StartChar: grave
Encoding: 96 96 63
Width: 544
VWidth: 3072
GlyphClass: 1
Flags: W
LayerCount: 2
Fore
SplineSet
338.5 1560 m 1,0,-1
 338.5 1688 l 1,1,2
 339.5 1688 339.5 1688 464.5 1688 c 1,3,-1
 464.5 1560 l 1,4,-1
 338.5 1560 l 1,0,-1
206.5 1560 m 1,5,-1
 206.5 1819 l 1,6,7
 207.5 1819 207.5 1819 338.5 1819 c 1,8,-1
 338.5 1560 l 1,9,-1
 206.5 1560 l 1,5,-1
79.5 1688 m 1,10,-1
 79.5 1944 l 1,11,-1
 206.5 1944 l 1,12,-1
 206.5 1688 l 1,13,-1
 79.5 1688 l 1,10,-1
EndSplineSet
Validated: 5
EndChar

StartChar: a
Encoding: 97 97 64
Width: 1183
VWidth: 3072
GlyphClass: 1
Flags: W
LayerCount: 2
Fore
SplineSet
206.5 -101 m 1,0,-1
 206.5 24 l 1,1,-1
 847.5 24 l 1,2,-1
 847.5 -101 l 5,3,-1
 206.5 -101 l 1,0,-1
847.5 24 m 1,4,-1
 847.5 152 l 1,5,6
 848.5 152 848.5 152 976.5 152 c 1,7,-1
 976.5 24 l 1,8,-1
 847.5 24 l 1,4,-1
79.5 24 m 1,9,-1
 79.5 283 l 1,10,-1
 206.5 283 l 1,11,-1
 206.5 24 l 1,12,-1
 79.5 24 l 1,9,-1
847.5 283 m 1,13,-1
 847.5 408 l 1,14,15
 848.5 408 848.5 408 976.5 408 c 1,16,-1
 976.5 283 l 1,17,-1
 847.5 283 l 1,13,-1
206.5 283 m 1,18,-1
 206.5 408 l 1,19,-1
 335.5 408 l 1,20,-1
 335.5 283 l 1,21,-1
 206.5 283 l 1,18,-1
335.5 408 m 1,22,-1
 335.5 536 l 1,23,24
 335.5 536 335.5 536 847.5 536 c 1,25,-1
 847.5 408 l 1,26,-1
 335.5 408 l 1,22,-1
976.5 -101 m 1,27,28
 976.5 -104 976.5 -104 976.5 664 c 1,29,-1
 1103.5 664 l 1,30,-1
 1103.5 -101 l 1,31,-1
 976.5 -101 l 1,27,28
79.5 536 m 1,32,-1
 79.5 664 l 1,33,-1
 206.5 664 l 1,34,-1
 206.5 536 l 1,35,-1
 79.5 536 l 1,32,-1
847.5 664 m 1,36,-1
 847.5 792 l 1,37,38
 848.5 792 848.5 792 976.5 792 c 1,39,-1
 976.5 664 l 1,40,-1
 847.5 664 l 1,36,-1
206.5 664 m 1,41,-1
 206.5 792 l 1,42,-1
 335.5 792 l 1,43,-1
 335.5 664 l 1,44,-1
 206.5 664 l 1,41,-1
335.5 792 m 1,45,-1
 335.5 920 l 1,46,47
 335.5 920 335.5 920 847.5 920 c 1,48,-1
 847.5 792 l 1,49,-1
 335.5 792 l 1,45,-1
EndSplineSet
Validated: 37
EndChar

StartChar: b
Encoding: 98 98 65
Width: 1183
VWidth: 3072
GlyphClass: 1
Flags: W
LayerCount: 2
Fore
SplineSet
335.5 -101 m 1,0,-1
 335.5 24 l 1,1,2
 335.5 24 335.5 24 847.5 24 c 1,3,-1
 847.5 -101 l 1,4,-1
 335.5 -101 l 1,0,-1
847.5 24 m 1,5,-1
 847.5 152 l 1,6,7
 848.5 152 848.5 152 976.5 152 c 1,8,-1
 976.5 24 l 1,9,-1
 847.5 24 l 1,5,-1
206.5 24 m 1,10,-1
 206.5 152 l 1,11,-1
 335.5 152 l 1,12,-1
 335.5 24 l 1,13,-1
 206.5 24 l 1,10,-1
976.5 152 m 1,14,-1
 976.5 664 l 1,15,-1
 1103.5 664 l 1,16,-1
 1103.5 152 l 1,17,-1
 976.5 152 l 1,14,-1
847.5 664 m 1,18,-1
 847.5 792 l 1,19,20
 848.5 792 848.5 792 976.5 792 c 1,21,-1
 976.5 664 l 1,22,-1
 847.5 664 l 1,18,-1
206.5 664 m 1,23,-1
 206.5 792 l 1,24,-1
 335.5 792 l 1,25,-1
 335.5 664 l 1,26,-1
 206.5 664 l 1,23,-1
335.5 792 m 1,27,-1
 335.5 920 l 1,28,29
 335.5 920 335.5 920 847.5 920 c 1,30,-1
 847.5 792 l 1,31,-1
 335.5 792 l 1,27,-1
79.5 -101 m 1,32,-1
 79.5 1435 l 1,33,-1
 206.5 1435 l 1,34,-1
 206.5 -101 l 1,35,-1
 79.5 -101 l 1,32,-1
EndSplineSet
Validated: 5
EndChar

StartChar: c
Encoding: 99 99 66
Width: 1056
VWidth: 3072
GlyphClass: 1
Flags: W
LayerCount: 2
Fore
SplineSet
335.5 -101 m 5,0,-1
 335.5 24 l 1,1,2
 335.5 24 335.5 24 847.5 24 c 1,3,-1
 847.5 -101 l 5,4,-1
 335.5 -101 l 5,0,-1
847.5 24 m 1,5,-1
 847.5 152 l 1,6,7
 848.5 152 848.5 152 976.5 152 c 1,8,-1
 976.5 24 l 1,9,-1
 847.5 24 l 1,5,-1
206.5 24 m 1,10,-1
 206.5 152 l 1,11,-1
 335.5 152 l 1,12,-1
 335.5 24 l 1,13,-1
 206.5 24 l 1,10,-1
79.5 152 m 1,14,-1
 79.5 664 l 1,15,-1
 206.5 664 l 1,16,-1
 206.5 152 l 1,17,-1
 79.5 152 l 1,14,-1
847.5 664 m 1,18,-1
 847.5 792 l 1,19,20
 848.5 792 848.5 792 976.5 792 c 1,21,-1
 976.5 664 l 1,22,-1
 847.5 664 l 1,18,-1
206.5 664 m 1,23,-1
 206.5 792 l 1,24,-1
 335.5 792 l 1,25,-1
 335.5 664 l 1,26,-1
 206.5 664 l 1,23,-1
335.5 792 m 1,27,-1
 335.5 920 l 1,28,29
 335.5 920 335.5 920 847.5 920 c 1,30,-1
 847.5 792 l 1,31,-1
 335.5 792 l 1,27,-1
EndSplineSet
Validated: 5
EndChar

StartChar: d
Encoding: 100 100 67
Width: 1183
VWidth: 3072
GlyphClass: 1
Flags: W
LayerCount: 2
Fore
SplineSet
335.5 -101 m 1,0,-1
 335.5 24 l 1,1,2
 335.5 24 335.5 24 847.5 24 c 1,3,-1
 847.5 -101 l 1,4,-1
 335.5 -101 l 1,0,-1
847.5 24 m 1,5,-1
 847.5 152 l 1,6,7
 848.5 152 848.5 152 976.5 152 c 1,8,-1
 976.5 24 l 1,9,-1
 847.5 24 l 1,5,-1
206.5 24 m 1,10,-1
 206.5 152 l 1,11,-1
 335.5 152 l 1,12,-1
 335.5 24 l 1,13,-1
 206.5 24 l 1,10,-1
79.5 152 m 1,14,-1
 79.5 664 l 1,15,-1
 206.5 664 l 1,16,-1
 206.5 152 l 1,17,-1
 79.5 152 l 1,14,-1
847.5 664 m 1,18,-1
 847.5 792 l 1,19,20
 848.5 792 848.5 792 976.5 792 c 1,21,-1
 976.5 664 l 1,22,-1
 847.5 664 l 1,18,-1
206.5 664 m 1,23,-1
 206.5 792 l 1,24,-1
 335.5 792 l 1,25,-1
 335.5 664 l 1,26,-1
 206.5 664 l 1,23,-1
335.5 792 m 1,27,-1
 335.5 920 l 1,28,29
 335.5 920 335.5 920 847.5 920 c 1,30,-1
 847.5 792 l 1,31,-1
 335.5 792 l 1,27,-1
976.5 -101 m 1,32,-1
 976.5 1435 l 1,33,-1
 1103.5 1435 l 1,34,-1
 1103.5 -101 l 1,35,-1
 976.5 -101 l 1,32,-1
EndSplineSet
Validated: 5
EndChar

StartChar: e
Encoding: 101 101 68
Width: 1183
VWidth: 3072
GlyphClass: 1
Flags: W
LayerCount: 2
Fore
SplineSet
335.5 -101 m 1,0,-1
 335.5 24 l 1,1,2
 336.5 24 336.5 24 976.5 24 c 1,3,-1
 976.5 -101 l 1,4,-1
 335.5 -101 l 1,0,-1
976.5 24 m 1,5,-1
 976.5 152 l 1,6,-1
 1103.5 152 l 1,7,-1
 1103.5 24 l 1,8,-1
 976.5 24 l 1,5,-1
206.5 24 m 1,9,-1
 206.5 152 l 1,10,-1
 335.5 152 l 1,11,-1
 335.5 24 l 1,12,-1
 206.5 24 l 1,9,-1
206.5 283 m 1,13,-1
 206.5 408 l 1,14,-1
 976.5 408 l 1,15,-1
 976.5 283 l 1,16,-1
 206.5 283 l 1,13,-1
976.5 408 m 1,17,-1
 976.5 664 l 1,18,-1
 1103.5 664 l 1,19,-1
 1103.5 408 l 1,20,-1
 976.5 408 l 1,17,-1
79.5 152 m 1,21,-1
 79.5 664 l 1,22,-1
 206.5 664 l 1,23,-1
 206.5 152 l 1,24,-1
 79.5 152 l 1,21,-1
847.5 664 m 1,25,-1
 847.5 792 l 1,26,27
 848.5 792 848.5 792 976.5 792 c 1,28,-1
 976.5 664 l 1,29,-1
 847.5 664 l 1,25,-1
206.5 664 m 1,30,-1
 206.5 792 l 1,31,-1
 335.5 792 l 1,32,-1
 335.5 664 l 1,33,-1
 206.5 664 l 1,30,-1
335.5 792 m 1,34,-1
 335.5 920 l 1,35,36
 335.5 920 335.5 920 847.5 920 c 1,37,-1
 847.5 792 l 1,38,-1
 335.5 792 l 1,34,-1
EndSplineSet
Validated: 5
EndChar

StartChar: f
Encoding: 102 102 69
Width: 927
VWidth: 3072
GlyphClass: 1
Flags: W
LayerCount: 2
Fore
SplineSet
464.5 796 m 1,0,-1
 464.5 920 l 1,1,-1
 847.5 920 l 1,2,-1
 847.5 796 l 1,3,-1
 464.5 796 l 1,0,-1
79.5 796 m 1,4,-1
 79.5 920 l 1,5,-1
 335.5 920 l 1,6,-1
 335.5 796 l 1,7,-1
 79.5 796 l 1,4,-1
335.5 -616 m 1,8,-1
 335.5 1304 l 1,9,10
 336.5 1304 336.5 1304 464.5 1304 c 1,11,-1
 464.5 -616 l 1,12,-1
 335.5 -616 l 1,8,-1
464.5 1304 m 1,13,-1
 464.5 1435 l 1,14,-1
 847.5 1435 l 1,15,16
 847.5 1432 847.5 1432 847.5 1304 c 1,17,-1
 464.5 1304 l 1,13,-1
EndSplineSet
Validated: 5
EndChar

StartChar: g
Encoding: 103 103 70
Width: 1183
VWidth: 3072
GlyphClass: 1
Flags: W
LayerCount: 2
Fore
SplineSet
335.5 -616 m 5,0,-1
 335.5 -485 l 5,1,2
 335.5 -485 335.5 -485 847.5 -485 c 5,3,4
 847.5 -488 847.5 -488 847.5 -616 c 5,5,-1
 335.5 -616 l 5,0,-1
847.5 -485 m 5,6,-1
 847.5 -360 l 5,7,8
 848.5 -360 848.5 -360 976.5 -360 c 5,9,-1
 976.5 -485 l 5,10,-1
 847.5 -485 l 5,6,-1
206.5 -485 m 5,11,-1
 206.5 -360 l 5,12,-1
 335.5 -360 l 5,13,-1
 335.5 -485 l 5,14,-1
 206.5 -485 l 5,11,-1
79.5 -360 m 5,15,-1
 79.5 -232 l 5,16,-1
 206.5 -232 l 5,17,-1
 206.5 -360 l 5,18,-1
 79.5 -360 l 5,15,-1
335.5 -101 m 5,19,-1
 335.5 24 l 5,20,21
 335.5 24 335.5 24 847.5 24 c 5,22,-1
 847.5 -101 l 5,23,-1
 335.5 -101 l 5,19,-1
847.5 24 m 5,24,-1
 847.5 152 l 5,25,26
 848.5 152 848.5 152 976.5 152 c 5,27,-1
 976.5 24 l 5,28,-1
 847.5 24 l 5,24,-1
206.5 24 m 5,29,-1
 206.5 152 l 5,30,-1
 335.5 152 l 5,31,-1
 335.5 24 l 5,32,-1
 206.5 24 l 5,29,-1
79.5 152 m 5,33,-1
 79.5 664 l 5,34,-1
 206.5 664 l 5,35,-1
 206.5 152 l 5,36,-1
 79.5 152 l 5,33,-1
847.5 664 m 5,37,-1
 847.5 792 l 5,38,39
 848.5 792 848.5 792 976.5 792 c 5,40,-1
 976.5 664 l 5,41,-1
 847.5 664 l 5,37,-1
206.5 664 m 5,42,-1
 206.5 792 l 5,43,-1
 335.5 792 l 5,44,-1
 335.5 664 l 5,45,-1
 206.5 664 l 5,42,-1
976.5 -360 m 5,46,-1
 976.5 920 l 5,47,-1
 1103.5 920 l 5,48,-1
 1103.5 -360 l 5,49,-1
 976.5 -360 l 5,46,-1
335.5 792 m 5,50,-1
 335.5 920 l 5,51,52
 335.5 920 335.5 920 847.5 920 c 5,53,-1
 847.5 792 l 5,54,-1
 335.5 792 l 5,50,-1
EndSplineSet
Validated: 5
EndChar

StartChar: h
Encoding: 104 104 71
Width: 1183
VWidth: 3072
GlyphClass: 1
Flags: W
LayerCount: 2
Fore
SplineSet
976.5 -101 m 1,0,1
 976.5 -104 976.5 -104 976.5 664 c 1,2,-1
 1103.5 664 l 1,3,-1
 1103.5 -101 l 1,4,-1
 976.5 -101 l 1,0,1
847.5 664 m 1,5,-1
 847.5 792 l 1,6,7
 848.5 792 848.5 792 976.5 792 c 1,8,-1
 976.5 664 l 1,9,-1
 847.5 664 l 1,5,-1
206.5 664 m 1,10,-1
 206.5 792 l 1,11,-1
 335.5 792 l 1,12,-1
 335.5 664 l 1,13,-1
 206.5 664 l 1,10,-1
335.5 792 m 1,14,-1
 335.5 920 l 1,15,16
 335.5 920 335.5 920 847.5 920 c 1,17,-1
 847.5 792 l 1,18,-1
 335.5 792 l 1,14,-1
79.5 -101 m 1,19,-1
 79.5 1435 l 1,20,-1
 206.5 1435 l 1,21,-1
 206.5 -101 l 1,22,-1
 79.5 -101 l 1,19,-1
EndSplineSet
Validated: 37
EndChar

StartChar: i
Encoding: 105 105 72
Width: 435
VWidth: 3072
GlyphClass: 1
Flags: W
LayerCount: 2
Fore
SplineSet
140.5 -101 m 1,0,-1
 140.5 792 l 1,1,-1
 274.5 792 l 1,2,-1
 274.5 -101 l 1,3,-1
 140.5 -101 l 1,0,-1
79.5 920 m 1,4,-1
 79.5 1176 l 1,5,-1
 335.5 1176 l 1,6,-1
 335.5 920 l 1,7,-1
 79.5 920 l 1,4,-1
EndSplineSet
Validated: 1
EndChar

StartChar: j
Encoding: 106 106 73
Width: 947
VWidth: 3072
GlyphClass: 1
Flags: W
LayerCount: 2
Fore
SplineSet
335.5 -616 m 1,0,-1
 335.5 -485 l 1,1,2
 334.5 -485 334.5 -485 718.5 -485 c 1,3,4
 718.5 -488 718.5 -488 718.5 -616 c 1,5,-1
 335.5 -616 l 1,0,-1
206.5 -485 m 1,6,-1
 206.5 -360 l 1,7,-1
 335.5 -360 l 1,8,-1
 335.5 -485 l 1,9,-1
 206.5 -485 l 1,6,-1
79.5 -360 m 1,10,-1
 79.5 -232 l 1,11,-1
 206.5 -232 l 1,12,-1
 206.5 -360 l 1,13,-1
 79.5 -360 l 1,10,-1
718.5 -485 m 1,14,15
 718.5 -488 718.5 -488 718.5 664 c 1,16,17
 718.5 664 718.5 664 847.5 664 c 1,18,-1
 847.5 -485 l 1,19,-1
 718.5 -485 l 1,14,15
591.5 664 m 1,20,-1
 591.5 792 l 1,21,-1
 847.5 792 l 1,22,-1
 847.5 664 l 1,23,-1
 591.5 664 l 1,20,-1
591.5 920 m 1,24,-1
 591.5 1176 l 1,25,-1
 847.5 1176 l 1,26,-1
 847.5 920 l 1,27,-1
 591.5 920 l 1,24,-1
EndSplineSet
Validated: 37
EndChar

StartChar: k
Encoding: 107 107 74
Width: 802
VWidth: 3072
GlyphClass: 1
Flags: W
LayerCount: 2
Fore
SplineSet
591.5 -101 m 1,0,-1
 591.5 24 l 1,1,-1
 722.5 24 l 1,2,-1
 722.5 -101 l 1,3,-1
 591.5 -101 l 1,0,-1
464.5 24 m 1,4,-1
 464.5 152 l 1,5,-1
 591.5 152 l 1,6,-1
 591.5 24 l 1,7,-1
 464.5 24 l 1,4,-1
338.5 152 m 1,8,-1
 338.5 283 l 1,9,10
 339.5 283 339.5 283 464.5 283 c 1,11,12
 464.5 280 464.5 280 464.5 152 c 1,13,-1
 338.5 152 l 1,8,-1
206.5 283 m 1,14,15
 206.5 280 206.5 280 206.5 536 c 1,16,17
 207.5 536 207.5 536 338.5 536 c 1,18,-1
 338.5 283 l 1,19,-1
 206.5 283 l 1,14,15
338.5 536 m 1,20,-1
 338.5 664 l 1,21,22
 339.5 664 339.5 664 464.5 664 c 1,23,-1
 464.5 536 l 1,24,-1
 338.5 536 l 1,20,-1
464.5 664 m 1,25,-1
 464.5 792 l 1,26,-1
 591.5 792 l 1,27,-1
 591.5 664 l 1,28,-1
 464.5 664 l 1,25,-1
591.5 792 m 1,29,-1
 591.5 920 l 1,30,-1
 722.5 920 l 1,31,-1
 722.5 792 l 1,32,-1
 591.5 792 l 1,29,-1
79.5 -101 m 1,33,-1
 79.5 1435 l 1,34,-1
 206.5 1435 l 1,35,-1
 206.5 -101 l 1,36,-1
 79.5 -101 l 1,33,-1
EndSplineSet
Validated: 37
EndChar

StartChar: l
Encoding: 108 108 75
Width: 544
VWidth: 3072
GlyphClass: 1
Flags: W
LayerCount: 2
Fore
SplineSet
206.5 -101 m 1,0,-1
 206.5 24 l 1,1,-1
 464.5 24 l 1,2,-1
 464.5 -101 l 1,3,-1
 206.5 -101 l 1,0,-1
79.5 24 m 1,4,-1
 79.5 1435 l 1,5,-1
 206.5 1435 l 1,6,-1
 206.5 24 l 1,7,-1
 79.5 24 l 1,4,-1
EndSplineSet
Validated: 5
EndChar

StartChar: m
Encoding: 109 109 76
Width: 1183
VWidth: 3072
GlyphClass: 1
Flags: W
LayerCount: 2
Fore
SplineSet
976.5 -101 m 1,0,-1
 976.5 792 l 1,1,-1
 1103.5 792 l 1,2,-1
 1103.5 -101 l 1,3,-1
 976.5 -101 l 1,0,-1
591.5 -101 m 1,4,-1
 591.5 792 l 1,5,-1
 718.5 792 l 1,6,-1
 718.5 -101 l 1,7,-1
 591.5 -101 l 1,4,-1
206.5 664 m 1,8,-1
 206.5 792 l 1,9,-1
 335.5 792 l 1,10,-1
 335.5 664 l 1,11,-1
 206.5 664 l 1,8,-1
718.5 792 m 1,12,-1
 718.5 920 l 1,13,-1
 976.5 920 l 1,14,-1
 976.5 792 l 1,15,-1
 718.5 792 l 1,12,-1
335.5 792 m 1,16,-1
 335.5 920 l 1,17,-1
 591.5 920 l 1,18,-1
 591.5 792 l 1,19,-1
 335.5 792 l 1,16,-1
79.5 -101 m 1,20,21
 79.5 -104 79.5 -104 79.5 920 c 1,22,-1
 206.5 920 l 1,23,-1
 206.5 -101 l 1,24,-1
 79.5 -101 l 1,20,21
EndSplineSet
Validated: 37
EndChar

StartChar: n
Encoding: 110 110 77
Width: 927
VWidth: 3072
GlyphClass: 1
Flags: W
LayerCount: 2
Fore
SplineSet
718.5 -101 m 1,0,-1
 718.5 792 l 1,1,2
 718.5 792 718.5 792 847.5 792 c 1,3,-1
 847.5 -101 l 1,4,-1
 718.5 -101 l 1,0,-1
204.5 664 m 1,5,-1
 204.5 792 l 1,6,7
 207.5 792 207.5 792 335.5 792 c 1,8,-1
 335.5 664 l 1,9,-1
 204.5 664 l 1,5,-1
335.5 792 m 1,10,-1
 335.5 920 l 1,11,12
 334.5 920 334.5 920 718.5 920 c 1,13,-1
 718.5 792 l 1,14,-1
 335.5 792 l 1,10,-1
79.5 -101 m 1,15,16
 79.5 -104 79.5 -104 79.5 920 c 1,17,-1
 204.5 920 l 1,18,-1
 204.5 -101 l 1,19,-1
 79.5 -101 l 1,15,16
EndSplineSet
Validated: 37
EndChar

StartChar: o
Encoding: 111 111 78
Width: 1183
VWidth: 3072
GlyphClass: 1
Flags: W
LayerCount: 2
Fore
SplineSet
335.5 -101 m 1,0,-1
 335.5 24 l 1,1,2
 335.5 24 335.5 24 847.5 24 c 1,3,-1
 847.5 -101 l 1,4,-1
 335.5 -101 l 1,0,-1
847.5 24 m 1,5,-1
 847.5 152 l 1,6,7
 848.5 152 848.5 152 976.5 152 c 1,8,-1
 976.5 24 l 1,9,-1
 847.5 24 l 1,5,-1
206.5 24 m 1,10,-1
 206.5 152 l 1,11,-1
 335.5 152 l 1,12,-1
 335.5 24 l 1,13,-1
 206.5 24 l 1,10,-1
976.5 152 m 1,14,-1
 976.5 664 l 1,15,-1
 1103.5 664 l 1,16,-1
 1103.5 152 l 1,17,-1
 976.5 152 l 1,14,-1
79.5 152 m 1,18,-1
 79.5 664 l 1,19,-1
 206.5 664 l 1,20,-1
 206.5 152 l 1,21,-1
 79.5 152 l 1,18,-1
847.5 664 m 5,22,-1
 847.5 792 l 1,23,24
 848.5 792 848.5 792 976.5 792 c 1,25,-1
 976.5 664 l 1,26,-1
 847.5 664 l 5,22,-1
206.5 664 m 1,27,-1
 206.5 792 l 1,28,-1
 335.5 792 l 1,29,-1
 335.5 664 l 1,30,-1
 206.5 664 l 1,27,-1
335.5 792 m 1,31,-1
 335.5 920 l 1,32,33
 335.5 920 335.5 920 847.5 920 c 1,34,-1
 847.5 792 l 1,35,-1
 335.5 792 l 1,31,-1
EndSplineSet
Validated: 5
EndChar

StartChar: p
Encoding: 112 112 79
Width: 1183
VWidth: 3072
GlyphClass: 1
Flags: W
LayerCount: 2
Fore
SplineSet
335.5 -101 m 1,0,-1
 335.5 24 l 1,1,2
 335.5 24 335.5 24 847.5 24 c 1,3,-1
 847.5 -101 l 1,4,-1
 335.5 -101 l 1,0,-1
847.5 24 m 1,5,-1
 847.5 152 l 1,6,7
 848.5 152 848.5 152 976.5 152 c 1,8,-1
 976.5 24 l 1,9,-1
 847.5 24 l 1,5,-1
206.5 24 m 1,10,-1
 206.5 152 l 1,11,-1
 335.5 152 l 1,12,-1
 335.5 24 l 1,13,-1
 206.5 24 l 1,10,-1
976.5 152 m 1,14,-1
 976.5 664 l 1,15,-1
 1103.5 664 l 1,16,-1
 1103.5 152 l 1,17,-1
 976.5 152 l 1,14,-1
847.5 664 m 1,18,-1
 847.5 792 l 1,19,20
 848.5 792 848.5 792 976.5 792 c 1,21,-1
 976.5 664 l 1,22,-1
 847.5 664 l 1,18,-1
206.5 664 m 1,23,-1
 206.5 792 l 1,24,-1
 335.5 792 l 1,25,-1
 335.5 664 l 1,26,-1
 206.5 664 l 1,23,-1
335.5 792 m 1,27,-1
 335.5 920 l 1,28,29
 335.5 920 335.5 920 847.5 920 c 1,30,-1
 847.5 792 l 1,31,-1
 335.5 792 l 1,27,-1
79.5 -616 m 1,32,-1
 79.5 920 l 1,33,-1
 206.5 920 l 1,34,-1
 206.5 -616 l 1,35,-1
 79.5 -616 l 1,32,-1
EndSplineSet
Validated: 5
EndChar

StartChar: q
Encoding: 113 113 80
Width: 1183
VWidth: 3072
GlyphClass: 1
Flags: W
LayerCount: 2
Fore
SplineSet
335.5 -101 m 1,0,-1
 335.5 24 l 1,1,2
 335.5 24 335.5 24 847.5 24 c 1,3,-1
 847.5 -101 l 1,4,-1
 335.5 -101 l 1,0,-1
847.5 24 m 1,5,-1
 847.5 152 l 1,6,7
 848.5 152 848.5 152 976.5 152 c 1,8,-1
 976.5 24 l 1,9,-1
 847.5 24 l 1,5,-1
206.5 24 m 1,10,-1
 206.5 152 l 1,11,-1
 335.5 152 l 1,12,-1
 335.5 24 l 1,13,-1
 206.5 24 l 1,10,-1
79.5 152 m 1,14,-1
 79.5 664 l 1,15,-1
 206.5 664 l 1,16,-1
 206.5 152 l 1,17,-1
 79.5 152 l 1,14,-1
847.5 664 m 1,18,-1
 847.5 792 l 1,19,20
 848.5 792 848.5 792 976.5 792 c 1,21,-1
 976.5 664 l 1,22,-1
 847.5 664 l 1,18,-1
206.5 664 m 1,23,-1
 206.5 792 l 1,24,-1
 335.5 792 l 1,25,-1
 335.5 664 l 1,26,-1
 206.5 664 l 1,23,-1
976.5 -616 m 1,27,-1
 976.5 920 l 1,28,-1
 1103.5 920 l 1,29,-1
 1103.5 -616 l 1,30,-1
 976.5 -616 l 1,27,-1
335.5 792 m 1,31,-1
 335.5 920 l 1,32,33
 335.5 920 335.5 920 847.5 920 c 1,34,-1
 847.5 792 l 1,35,-1
 335.5 792 l 1,31,-1
EndSplineSet
Validated: 5
EndChar

StartChar: r
Encoding: 114 114 81
Width: 1183
VWidth: 3072
GlyphClass: 1
Flags: W
LayerCount: 2
Fore
SplineSet
976.5 408 m 1,0,-1
 976.5 664 l 1,1,-1
 1103.5 664 l 1,2,-1
 1103.5 408 l 1,3,-1
 976.5 408 l 1,0,-1
847.5 664 m 1,4,-1
 847.5 792 l 1,5,6
 848.5 792 848.5 792 976.5 792 c 1,7,-1
 976.5 664 l 1,8,-1
 847.5 664 l 1,4,-1
206.5 664 m 1,9,-1
 206.5 792 l 1,10,-1
 335.5 792 l 1,11,-1
 335.5 664 l 1,12,-1
 206.5 664 l 1,9,-1
335.5 792 m 1,13,-1
 335.5 920 l 1,14,15
 335.5 920 335.5 920 847.5 920 c 1,16,-1
 847.5 792 l 1,17,-1
 335.5 792 l 1,13,-1
79.5 -101 m 1,18,19
 79.5 -104 79.5 -104 79.5 920 c 1,20,-1
 206.5 920 l 1,21,-1
 206.5 -101 l 1,22,-1
 79.5 -101 l 1,18,19
EndSplineSet
Validated: 37
EndChar

StartChar: s
Encoding: 115 115 82
Width: 1183
VWidth: 3072
GlyphClass: 1
Flags: W
LayerCount: 2
Fore
SplineSet
206.5 -101 m 1,0,-1
 206.5 24 l 1,1,-1
 976.5 24 l 1,2,-1
 976.5 -101 l 1,3,-1
 206.5 -101 l 1,0,-1
976.5 24 m 1,4,-1
 976.5 283 l 1,5,-1
 1103.5 283 l 1,6,-1
 1103.5 24 l 1,7,-1
 976.5 24 l 1,4,-1
79.5 24 m 1,8,-1
 79.5 283 l 1,9,-1
 206.5 283 l 1,10,-1
 206.5 24 l 1,11,-1
 79.5 24 l 1,8,-1
591.5 283 m 1,12,-1
 591.5 408 l 1,13,-1
 976.5 408 l 1,14,-1
 976.5 283 l 1,15,-1
 591.5 283 l 1,12,-1
206.5 408 m 1,16,-1
 206.5 536 l 1,17,-1
 591.5 536 l 1,18,-1
 591.5 408 l 1,19,-1
 206.5 408 l 1,16,-1
976.5 536 m 1,20,-1
 976.5 792 l 1,21,-1
 1103.5 792 l 1,22,-1
 1103.5 536 l 1,23,-1
 976.5 536 l 1,20,-1
79.5 536 m 1,24,-1
 79.5 792 l 1,25,-1
 206.5 792 l 1,26,-1
 206.5 536 l 1,27,-1
 79.5 536 l 1,24,-1
206.5 792 m 1,28,-1
 206.5 920 l 1,29,-1
 976.5 920 l 1,30,-1
 976.5 792 l 1,31,-1
 206.5 792 l 1,28,-1
EndSplineSet
Validated: 5
EndChar

StartChar: t
Encoding: 116 116 83
Width: 798
VWidth: 3072
GlyphClass: 1
Flags: W
LayerCount: 2
Fore
SplineSet
464.5 -101 m 1,0,-1
 464.5 24 l 1,1,-1
 718.5 24 l 1,2,-1
 718.5 -101 l 1,3,-1
 464.5 -101 l 1,0,-1
464.5 792 m 1,4,-1
 464.5 920 l 1,5,-1
 718.5 920 l 1,6,-1
 718.5 792 l 1,7,-1
 464.5 792 l 1,4,-1
79.5 792 m 1,8,-1
 79.5 920 l 1,9,-1
 335.5 920 l 1,10,-1
 335.5 792 l 1,11,-1
 79.5 792 l 1,8,-1
335.5 24 m 1,12,-1
 335.5 1435 l 1,13,14
 336.5 1435 336.5 1435 464.5 1435 c 1,15,-1
 464.5 24 l 1,16,-1
 335.5 24 l 1,12,-1
EndSplineSet
Validated: 5
EndChar

StartChar: u
Encoding: 117 117 84
Width: 927
VWidth: 3072
GlyphClass: 1
Flags: W
LayerCount: 2
Fore
SplineSet
204.5 -101 m 1,0,-1
 204.5 24 l 1,1,-1
 588.5 24 l 1,2,-1
 588.5 -101 l 1,3,-1
 204.5 -101 l 1,0,-1
588.5 24 m 1,4,-1
 588.5 152 l 1,5,6
 591.5 152 591.5 152 718.5 152 c 1,7,-1
 718.5 24 l 1,8,-1
 588.5 24 l 1,4,-1
718.5 -101 m 1,9,10
 718.5 -104 718.5 -104 718.5 920 c 1,11,12
 718.5 920 718.5 920 847.5 920 c 1,13,-1
 847.5 -101 l 1,14,-1
 718.5 -101 l 1,9,10
79.5 24 m 1,15,-1
 79.5 920 l 1,16,-1
 204.5 920 l 1,17,-1
 204.5 24 l 1,18,-1
 79.5 24 l 1,15,-1
EndSplineSet
Validated: 37
EndChar

StartChar: v
Encoding: 118 118 85
Width: 1183
VWidth: 3072
GlyphClass: 1
Flags: W
LayerCount: 2
Fore
SplineSet
464.5 -101 m 1,0,1
 464.5 -104 464.5 -104 464.5 152 c 1,2,-1
 718.5 152 l 1,3,-1
 718.5 -101 l 1,4,-1
 464.5 -101 l 1,0,1
718.5 152 m 1,5,-1
 718.5 408 l 1,6,7
 718.5 408 718.5 408 847.5 408 c 1,8,-1
 847.5 152 l 1,9,-1
 718.5 152 l 1,5,-1
335.5 152 m 1,10,-1
 335.5 408 l 1,11,12
 336.5 408 336.5 408 464.5 408 c 1,13,-1
 464.5 152 l 1,14,-1
 335.5 152 l 1,10,-1
847.5 408 m 1,15,-1
 847.5 664 l 1,16,17
 848.5 664 848.5 664 976.5 664 c 1,18,-1
 976.5 408 l 1,19,-1
 847.5 408 l 1,15,-1
206.5 408 m 1,20,-1
 206.5 664 l 1,21,-1
 335.5 664 l 1,22,-1
 335.5 408 l 1,23,-1
 206.5 408 l 1,20,-1
976.5 664 m 1,24,-1
 976.5 920 l 1,25,-1
 1103.5 920 l 1,26,-1
 1103.5 664 l 1,27,-1
 976.5 664 l 1,24,-1
79.5 664 m 1,28,-1
 79.5 920 l 1,29,-1
 206.5 920 l 1,30,-1
 206.5 664 l 1,31,-1
 79.5 664 l 1,28,-1
EndSplineSet
Validated: 37
EndChar

StartChar: w
Encoding: 119 119 86
Width: 1183
VWidth: 3072
GlyphClass: 1
Flags: W
LayerCount: 2
Fore
SplineSet
847.5 -101 m 1,0,-1
 847.5 24 l 1,1,2
 848.5 24 848.5 24 976.5 24 c 1,3,-1
 976.5 -101 l 1,4,-1
 847.5 -101 l 1,0,-1
335.5 -101 m 1,5,-1
 335.5 24 l 1,6,7
 336.5 24 336.5 24 464.5 24 c 1,8,-1
 464.5 -101 l 1,9,-1
 335.5 -101 l 1,5,-1
718.5 24 m 1,10,-1
 718.5 283 l 1,11,12
 718.5 283 718.5 283 847.5 283 c 1,13,-1
 847.5 24 l 1,14,-1
 718.5 24 l 1,10,-1
464.5 24 m 1,15,-1
 464.5 283 l 1,16,-1
 591.5 283 l 1,17,-1
 591.5 24 l 1,18,-1
 464.5 24 l 1,15,-1
206.5 24 m 1,19,-1
 206.5 283 l 1,20,-1
 335.5 283 l 1,21,-1
 335.5 24 l 1,22,-1
 206.5 24 l 1,19,-1
976.5 24 m 1,23,-1
 976.5 920 l 1,24,-1
 1103.5 920 l 1,25,-1
 1103.5 24 l 1,26,-1
 976.5 24 l 1,23,-1
591.5 283 m 1,27,28
 591.5 280 591.5 280 591.5 920 c 1,29,-1
 718.5 920 l 1,30,-1
 718.5 283 l 1,31,-1
 591.5 283 l 1,27,28
79.5 283 m 1,32,33
 79.5 280 79.5 280 79.5 920 c 1,34,-1
 206.5 920 l 1,35,-1
 206.5 283 l 1,36,-1
 79.5 283 l 1,32,33
EndSplineSet
Validated: 37
EndChar

StartChar: x
Encoding: 120 120 87
Width: 1183
VWidth: 3072
GlyphClass: 1
Flags: W
LayerCount: 2
Fore
SplineSet
976.5 -101 m 1,0,-1
 976.5 24 l 1,1,-1
 1103.5 24 l 1,2,-1
 1103.5 -101 l 1,3,-1
 976.5 -101 l 1,0,-1
79.5 -101 m 1,4,-1
 79.5 24 l 1,5,-1
 206.5 24 l 1,6,-1
 206.5 -101 l 1,7,-1
 79.5 -101 l 1,4,-1
847.5 24 m 1,8,-1
 847.5 152 l 1,9,10
 848.5 152 848.5 152 976.5 152 c 1,11,-1
 976.5 24 l 1,12,-1
 847.5 24 l 1,8,-1
206.5 24 m 1,13,-1
 206.5 152 l 1,14,-1
 335.5 152 l 1,15,-1
 335.5 24 l 1,16,-1
 206.5 24 l 1,13,-1
718.5 152 m 1,17,-1
 718.5 283 l 1,18,19
 718.5 283 718.5 283 847.5 283 c 1,20,21
 847.5 280 847.5 280 847.5 152 c 1,22,-1
 718.5 152 l 1,17,-1
335.5 152 m 1,23,-1
 335.5 283 l 1,24,25
 336.5 283 336.5 283 464.5 283 c 1,26,27
 464.5 280 464.5 280 464.5 152 c 1,28,-1
 335.5 152 l 1,23,-1
464.5 283 m 1,29,30
 464.5 280 464.5 280 464.5 536 c 1,31,-1
 718.5 536 l 1,32,-1
 718.5 283 l 1,33,-1
 464.5 283 l 1,29,30
718.5 536 m 1,34,-1
 718.5 664 l 1,35,36
 718.5 664 718.5 664 847.5 664 c 1,37,-1
 847.5 536 l 1,38,-1
 718.5 536 l 1,34,-1
335.5 536 m 1,39,-1
 335.5 664 l 1,40,41
 336.5 664 336.5 664 464.5 664 c 1,42,-1
 464.5 536 l 1,43,-1
 335.5 536 l 1,39,-1
847.5 664 m 1,44,-1
 847.5 792 l 1,45,46
 848.5 792 848.5 792 976.5 792 c 1,47,-1
 976.5 664 l 1,48,-1
 847.5 664 l 1,44,-1
206.5 664 m 1,49,-1
 206.5 792 l 1,50,-1
 335.5 792 l 1,51,-1
 335.5 664 l 1,52,-1
 206.5 664 l 1,49,-1
976.5 792 m 1,53,-1
 976.5 920 l 1,54,-1
 1103.5 920 l 1,55,-1
 1103.5 792 l 1,56,-1
 976.5 792 l 1,53,-1
79.5 792 m 1,57,-1
 79.5 920 l 1,58,-1
 206.5 920 l 1,59,-1
 206.5 792 l 1,60,-1
 79.5 792 l 1,57,-1
EndSplineSet
Validated: 37
EndChar

StartChar: y
Encoding: 121 121 88
Width: 1172
VWidth: 3040
GlyphClass: 1
Flags: W
LayerCount: 2
Fore
SplineSet
332.5 -608 m 1,0,-1
 332.5 -480 l 1,1,2
 332.5 -480 332.5 -480 839.5 -480 c 1,3,-1
 839.5 -608 l 1,4,-1
 332.5 -608 l 1,0,-1
839.5 -480 m 1,5,-1
 839.5 -356 l 1,6,-1
 968.5 -356 l 1,7,-1
 968.5 -480 l 1,8,-1
 839.5 -480 l 1,5,-1
206.5 -480 m 1,9,-1
 206.5 -356 l 1,10,-1
 332.5 -356 l 1,11,-1
 332.5 -480 l 1,12,-1
 206.5 -480 l 1,9,-1
332.5 -100 m 1,13,-1
 332.5 24 l 1,14,15
 332.5 24 332.5 24 839.5 24 c 1,16,-1
 839.5 -100 l 1,17,-1
 332.5 -100 l 1,13,-1
839.5 24 m 1,18,-1
 839.5 152 l 1,19,-1
 968.5 152 l 1,20,-1
 968.5 24 l 1,21,-1
 839.5 24 l 1,18,-1
206.5 24 m 1,22,-1
 206.5 152 l 1,23,-1
 332.5 152 l 1,24,-1
 332.5 24 l 1,25,-1
 206.5 24 l 1,22,-1
968.5 -356 m 1,26,-1
 968.5 912 l 1,27,-1
 1092.5 912 l 1,28,-1
 1092.5 -356 l 1,29,-1
 968.5 -356 l 1,26,-1
79.5 152 m 1,30,-1
 79.5 912 l 1,31,-1
 206.5 912 l 1,32,-1
 206.5 152 l 1,33,-1
 79.5 152 l 1,30,-1
EndSplineSet
Validated: 5
EndChar

StartChar: z
Encoding: 122 122 89
Width: 1183
VWidth: 3072
GlyphClass: 1
Flags: W
LayerCount: 2
Fore
SplineSet
206.5 -101 m 1,0,-1
 206.5 24 l 1,1,-1
 1103.5 24 l 1,2,-1
 1103.5 -101 l 1,3,-1
 206.5 -101 l 1,0,-1
79.5 -101 m 1,4,5
 79.5 -104 79.5 -104 79.5 152 c 1,6,-1
 206.5 152 l 1,7,-1
 206.5 -101 l 1,8,-1
 79.5 -101 l 1,4,5
206.5 152 m 1,9,-1
 206.5 283 l 1,10,-1
 335.5 283 l 1,11,12
 335.5 280 335.5 280 335.5 152 c 1,13,-1
 206.5 152 l 1,9,-1
335.5 283 m 1,14,-1
 335.5 408 l 1,15,-1
 591.5 408 l 1,16,-1
 591.5 283 l 1,17,-1
 335.5 283 l 1,14,-1
591.5 408 m 1,18,-1
 591.5 536 l 1,19,-1
 847.5 536 l 1,20,-1
 847.5 408 l 1,21,-1
 591.5 408 l 1,18,-1
847.5 536 m 1,22,-1
 847.5 664 l 1,23,24
 848.5 664 848.5 664 976.5 664 c 1,25,-1
 976.5 536 l 1,26,-1
 847.5 536 l 1,22,-1
976.5 664 m 1,27,-1
 976.5 792 l 1,28,-1
 1103.5 792 l 1,29,-1
 1103.5 664 l 1,30,-1
 976.5 664 l 1,27,-1
79.5 792 m 1,31,-1
 79.5 920 l 1,32,-1
 1103.5 920 l 1,33,-1
 1103.5 792 l 1,34,-1
 79.5 792 l 1,31,-1
EndSplineSet
Validated: 37
EndChar

StartChar: braceleft
Encoding: 123 123 90
Width: 798
VWidth: 3072
GlyphClass: 1
Flags: W
LayerCount: 2
Fore
SplineSet
335.5 -101 m 1,0,-1
 335.5 24 l 1,1,2
 334.5 24 334.5 24 718.5 24 c 1,3,-1
 718.5 -101 l 1,4,-1
 335.5 -101 l 1,0,-1
204.5 24 m 1,5,-1
 204.5 283 l 1,6,7
 207.5 283 207.5 283 335.5 283 c 1,8,-1
 335.5 24 l 1,9,-1
 204.5 24 l 1,5,-1
335.5 283 m 1,10,-1
 335.5 792 l 1,11,12
 336.5 792 336.5 792 464.5 792 c 1,13,-1
 464.5 283 l 1,14,-1
 335.5 283 l 1,10,-1
79.5 792 m 1,15,-1
 79.5 1051 l 1,16,-1
 335.5 1051 l 1,17,-1
 335.5 792 l 1,18,-1
 79.5 792 l 1,15,-1
335.5 1051 m 1,19,-1
 335.5 1560 l 1,20,21
 336.5 1560 336.5 1560 464.5 1560 c 1,22,-1
 464.5 1051 l 1,23,-1
 335.5 1051 l 1,19,-1
204.5 1560 m 1,24,-1
 204.5 1819 l 1,25,26
 207.5 1819 207.5 1819 335.5 1819 c 1,27,-1
 335.5 1560 l 1,28,-1
 204.5 1560 l 1,24,-1
335.5 1819 m 1,29,-1
 335.5 1944 l 1,30,31
 334.5 1944 334.5 1944 718.5 1944 c 1,32,-1
 718.5 1819 l 1,33,-1
 335.5 1819 l 1,29,-1
EndSplineSet
Validated: 37
EndChar

StartChar: bar
Encoding: 124 124 91
Width: 455
VWidth: 3072
GlyphClass: 1
Flags: W
LayerCount: 2
Fore
SplineSet
100 -101 m 1,0,-1
 100 1944 l 1,1,-1
 356 1944 l 1,2,-1
 356 -101 l 1,3,-1
 100 -101 l 1,0,-1
EndSplineSet
Validated: 1
EndChar

StartChar: braceright
Encoding: 125 125 92
Width: 802
VWidth: 3072
GlyphClass: 1
Flags: W
LayerCount: 2
Fore
SplineSet
79.5 -101 m 1,0,-1
 79.5 24 l 1,1,-1
 464.5 24 l 1,2,-1
 464.5 -101 l 1,3,-1
 79.5 -101 l 1,0,-1
464.5 24 m 1,4,-1
 464.5 283 l 1,5,-1
 591.5 283 l 1,6,-1
 591.5 24 l 1,7,-1
 464.5 24 l 1,4,-1
338.5 283 m 1,8,-1
 338.5 792 l 1,9,10
 339.5 792 339.5 792 464.5 792 c 1,11,-1
 464.5 283 l 1,12,-1
 338.5 283 l 1,8,-1
464.5 792 m 1,13,-1
 464.5 1051 l 1,14,-1
 722.5 1051 l 1,15,-1
 722.5 792 l 1,16,-1
 464.5 792 l 1,13,-1
338.5 1051 m 1,17,-1
 338.5 1560 l 1,18,19
 339.5 1560 339.5 1560 464.5 1560 c 1,20,-1
 464.5 1051 l 1,21,-1
 338.5 1051 l 1,17,-1
464.5 1560 m 1,22,-1
 464.5 1819 l 1,23,-1
 591.5 1819 l 1,24,-1
 591.5 1560 l 1,25,-1
 464.5 1560 l 1,22,-1
79.5 1819 m 1,26,-1
 79.5 1944 l 1,27,-1
 464.5 1944 l 1,28,-1
 464.5 1819 l 1,29,-1
 79.5 1819 l 1,26,-1
EndSplineSet
Validated: 5
EndChar

StartChar: asciitilde
Encoding: 126 126 93
Width: 1183
VWidth: 3072
GlyphClass: 1
Flags: W
LayerCount: 2
Fore
SplineSet
718.5 664 m 1,0,-1
 718.5 792 l 1,1,-1
 976.5 792 l 1,2,-1
 976.5 664 l 1,3,-1
 718.5 664 l 1,0,-1
591.5 792 m 1,4,-1
 591.5 920 l 1,5,-1
 718.5 920 l 1,6,-1
 718.5 792 l 1,7,-1
 591.5 792 l 1,4,-1
976.5 792 m 1,8,-1
 976.5 1051 l 1,9,-1
 1103.5 1051 l 1,10,-1
 1103.5 792 l 1,11,-1
 976.5 792 l 1,8,-1
464.5 920 m 1,12,-1
 464.5 1051 l 1,13,-1
 591.5 1051 l 1,14,15
 591.5 1048 591.5 1048 591.5 920 c 1,16,-1
 464.5 920 l 1,12,-1
79.5 792 m 1,17,-1
 79.5 1051 l 1,18,-1
 206.5 1051 l 1,19,-1
 206.5 792 l 1,20,-1
 79.5 792 l 1,17,-1
206.5 1051 m 1,21,-1
 206.5 1176 l 1,22,-1
 464.5 1176 l 1,23,-1
 464.5 1051 l 1,24,-1
 206.5 1051 l 1,21,-1
EndSplineSet
Validated: 5
EndChar

StartChar: exclamdown
Encoding: 161 161 94
Width: 415
VWidth: 3072
GlyphClass: 1
Flags: W
LayerCount: 2
Fore
SplineSet
79.5 -101 m 5,0,-1
 79.5 1435 l 1,1,-1
 335.5 1435 l 1,2,-1
 335.5 -101 l 5,3,-1
 79.5 -101 l 5,0,-1
79.5 1688 m 1,4,-1
 79.5 1944 l 1,5,-1
 335.5 1944 l 1,6,-1
 335.5 1688 l 1,7,-1
 79.5 1688 l 1,4,-1
EndSplineSet
Validated: 1
EndChar

StartChar: cent
Encoding: 162 162 95
Width: 1056
VWidth: 3072
GlyphClass: 1
Flags: W
LayerCount: 2
Fore
SplineSet
591.5 24 m 1,0,-1
 591.5 152 l 1,1,-1
 847.5 152 l 1,2,-1
 847.5 24 l 1,3,-1
 591.5 24 l 1,0,-1
335.5 24 m 1,4,-1
 335.5 152 l 1,5,6
 336.5 152 336.5 152 464.5 152 c 1,7,-1
 464.5 24 l 1,8,-1
 335.5 24 l 1,4,-1
847.5 152 m 1,9,-1
 847.5 283 l 1,10,11
 848.5 283 848.5 283 976.5 283 c 1,12,13
 976.5 280 976.5 280 976.5 152 c 1,14,-1
 847.5 152 l 1,9,-1
206.5 152 m 1,15,-1
 206.5 283 l 1,16,-1
 335.5 283 l 1,17,18
 335.5 280 335.5 280 335.5 152 c 1,19,-1
 206.5 152 l 1,15,-1
464.5 -101 m 1,20,21
 464.5 -104 464.5 -104 464.5 536 c 1,22,-1
 591.5 536 l 1,23,-1
 591.5 -101 l 1,24,-1
 464.5 -101 l 1,20,21
79.5 283 m 1,25,-1
 79.5 792 l 1,26,-1
 206.5 792 l 1,27,-1
 206.5 283 l 1,28,-1
 79.5 283 l 1,25,-1
847.5 792 m 1,29,-1
 847.5 920 l 1,30,31
 848.5 920 848.5 920 976.5 920 c 1,32,-1
 976.5 792 l 1,33,-1
 847.5 792 l 1,29,-1
206.5 792 m 1,34,-1
 206.5 920 l 1,35,-1
 335.5 920 l 1,36,-1
 335.5 792 l 1,37,-1
 206.5 792 l 1,34,-1
718.5 920 m 1,38,-1
 718.5 1051 l 1,39,40
 718.5 1051 718.5 1051 847.5 1051 c 1,41,42
 847.5 1048 847.5 1048 847.5 920 c 1,43,-1
 718.5 920 l 1,38,-1
335.5 920 m 1,44,-1
 335.5 1051 l 1,45,-1
 591.5 1051 l 1,46,47
 591.5 1048 591.5 1048 591.5 920 c 1,48,-1
 335.5 920 l 1,44,-1
591.5 536 m 1,49,-1
 591.5 1176 l 1,50,-1
 718.5 1176 l 1,51,-1
 718.5 536 l 1,52,-1
 591.5 536 l 1,49,-1
EndSplineSet
Validated: 37
EndChar

StartChar: sterling
Encoding: 163 163 96
Width: 1183
VWidth: 3072
GlyphClass: 1
Flags: W
LayerCount: 2
Fore
SplineSet
591.5 -101 m 1,0,-1
 591.5 24 l 1,1,-1
 976.5 24 l 1,2,-1
 976.5 -101 l 1,3,-1
 591.5 -101 l 1,0,-1
79.5 -101 m 1,4,-1
 79.5 24 l 1,5,-1
 206.5 24 l 1,6,-1
 206.5 -101 l 1,7,-1
 79.5 -101 l 1,4,-1
976.5 24 m 1,8,-1
 976.5 152 l 1,9,-1
 1103.5 152 l 1,10,-1
 1103.5 24 l 1,11,-1
 976.5 24 l 1,8,-1
335.5 24 m 1,12,-1
 335.5 152 l 1,13,-1
 591.5 152 l 1,14,-1
 591.5 24 l 1,15,-1
 335.5 24 l 1,12,-1
206.5 24 m 1,16,-1
 206.5 283 l 1,17,-1
 335.5 283 l 1,18,-1
 335.5 24 l 1,19,-1
 206.5 24 l 1,16,-1
464.5 664 m 1,20,-1
 464.5 792 l 1,21,-1
 976.5 792 l 1,22,-1
 976.5 664 l 1,23,-1
 464.5 664 l 1,20,-1
79.5 664 m 1,24,-1
 79.5 792 l 1,25,-1
 335.5 792 l 1,26,-1
 335.5 664 l 1,27,-1
 79.5 664 l 1,24,-1
335.5 283 m 1,28,-1
 335.5 1051 l 1,29,30
 336.5 1051 336.5 1051 464.5 1051 c 1,31,-1
 464.5 283 l 1,32,-1
 335.5 283 l 1,28,-1
206.5 1051 m 1,33,-1
 206.5 1176 l 1,34,-1
 335.5 1176 l 1,35,-1
 335.5 1051 l 1,36,-1
 206.5 1051 l 1,33,-1
976.5 1560 m 1,37,-1
 976.5 1688 l 1,38,-1
 1103.5 1688 l 1,39,-1
 1103.5 1560 l 1,40,-1
 976.5 1560 l 1,37,-1
79.5 1176 m 1,41,-1
 79.5 1688 l 1,42,-1
 206.5 1688 l 1,43,-1
 206.5 1176 l 1,44,-1
 79.5 1176 l 1,41,-1
847.5 1688 m 1,45,-1
 847.5 1819 l 1,46,47
 848.5 1819 848.5 1819 976.5 1819 c 1,48,49
 976.5 1816 976.5 1816 976.5 1688 c 1,50,-1
 847.5 1688 l 1,45,-1
206.5 1688 m 1,51,-1
 206.5 1819 l 1,52,-1
 335.5 1819 l 1,53,54
 335.5 1816 335.5 1816 335.5 1688 c 1,55,-1
 206.5 1688 l 1,51,-1
335.5 1819 m 1,56,-1
 335.5 1944 l 1,57,58
 335.5 1944 335.5 1944 847.5 1944 c 1,59,-1
 847.5 1819 l 1,60,-1
 335.5 1819 l 1,56,-1
EndSplineSet
Validated: 5
EndChar

StartChar: currency
Encoding: 164 164 97
Width: 1183
VWidth: 3072
GlyphClass: 1
Flags: W
LayerCount: 2
Fore
SplineSet
976.5 408 m 1,0,-1
 976.5 536 l 1,1,-1
 1103.5 536 l 1,2,-1
 1103.5 408 l 1,3,-1
 976.5 408 l 1,0,-1
79.5 408 m 1,4,-1
 79.5 536 l 1,5,-1
 206.5 536 l 1,6,-1
 206.5 408 l 1,7,-1
 79.5 408 l 1,4,-1
847.5 536 m 1,8,-1
 847.5 664 l 1,9,10
 848.5 664 848.5 664 976.5 664 c 1,11,-1
 976.5 536 l 1,12,-1
 847.5 536 l 1,8,-1
464.5 536 m 1,13,-1
 464.5 664 l 1,14,-1
 718.5 664 l 1,15,-1
 718.5 536 l 1,16,-1
 464.5 536 l 1,13,-1
206.5 536 m 1,17,-1
 206.5 664 l 1,18,-1
 335.5 664 l 1,19,-1
 335.5 536 l 1,20,-1
 206.5 536 l 1,17,-1
718.5 664 m 1,21,-1
 718.5 792 l 1,22,23
 718.5 792 718.5 792 847.5 792 c 1,24,-1
 847.5 664 l 1,25,-1
 718.5 664 l 1,21,-1
335.5 664 m 1,26,-1
 335.5 792 l 1,27,28
 336.5 792 336.5 792 464.5 792 c 1,29,-1
 464.5 664 l 1,30,-1
 335.5 664 l 1,26,-1
847.5 792 m 1,31,-1
 847.5 1051 l 1,32,33
 848.5 1051 848.5 1051 976.5 1051 c 1,34,-1
 976.5 792 l 1,35,-1
 847.5 792 l 1,31,-1
206.5 792 m 1,36,-1
 206.5 1051 l 1,37,-1
 335.5 1051 l 1,38,-1
 335.5 792 l 1,39,-1
 206.5 792 l 1,36,-1
718.5 1051 m 1,40,-1
 718.5 1176 l 1,41,42
 718.5 1176 718.5 1176 847.5 1176 c 1,43,-1
 847.5 1051 l 1,44,-1
 718.5 1051 l 1,40,-1
335.5 1051 m 1,45,-1
 335.5 1176 l 1,46,47
 336.5 1176 336.5 1176 464.5 1176 c 1,48,-1
 464.5 1051 l 1,49,-1
 335.5 1051 l 1,45,-1
847.5 1176 m 1,50,-1
 847.5 1304 l 1,51,52
 848.5 1304 848.5 1304 976.5 1304 c 1,53,-1
 976.5 1176 l 1,54,-1
 847.5 1176 l 1,50,-1
464.5 1176 m 1,55,-1
 464.5 1304 l 1,56,-1
 718.5 1304 l 1,57,-1
 718.5 1176 l 1,58,-1
 464.5 1176 l 1,55,-1
206.5 1176 m 1,59,-1
 206.5 1304 l 1,60,-1
 335.5 1304 l 1,61,-1
 335.5 1176 l 1,62,-1
 206.5 1176 l 1,59,-1
976.5 1304 m 1,63,-1
 976.5 1435 l 1,64,-1
 1103.5 1435 l 1,65,66
 1103.5 1432 1103.5 1432 1103.5 1304 c 1,67,-1
 976.5 1304 l 1,63,-1
79.5 1304 m 1,68,-1
 79.5 1435 l 1,69,-1
 206.5 1435 l 1,70,71
 206.5 1432 206.5 1432 206.5 1304 c 1,72,-1
 79.5 1304 l 1,68,-1
EndSplineSet
Validated: 5
EndChar

StartChar: yen
Encoding: 165 165 98
Width: 1059
VWidth: 3072
GlyphClass: 1
Flags: W
LayerCount: 2
Fore
SplineSet
594.5 408 m 1,0,-1
 594.5 536 l 1,1,-1
 979.5 536 l 1,2,-1
 979.5 408 l 1,3,-1
 594.5 408 l 1,0,-1
79.5 408 m 1,4,-1
 79.5 536 l 1,5,-1
 464.5 536 l 1,6,-1
 464.5 408 l 1,7,-1
 79.5 408 l 1,4,-1
594.5 792 m 1,8,-1
 594.5 920 l 1,9,-1
 979.5 920 l 1,10,-1
 979.5 792 l 1,11,-1
 594.5 792 l 1,8,-1
79.5 792 m 1,12,-1
 79.5 920 l 1,13,-1
 464.5 920 l 1,14,-1
 464.5 792 l 1,15,-1
 79.5 792 l 1,12,-1
464.5 -101 m 1,16,-1
 464.5 1176 l 1,17,-1
 594.5 1176 l 1,18,-1
 594.5 -101 l 1,19,-1
 464.5 -101 l 1,16,-1
594.5 1176 m 1,20,-1
 594.5 1435 l 1,21,-1
 723.5 1435 l 1,22,-1
 723.5 1176 l 1,23,-1
 594.5 1176 l 1,20,-1
335.5 1176 m 1,24,-1
 335.5 1435 l 1,25,26
 336.5 1435 336.5 1435 464.5 1435 c 1,27,-1
 464.5 1176 l 1,28,-1
 335.5 1176 l 1,24,-1
723.5 1435 m 1,29,30
 723.5 1432 723.5 1432 723.5 1688 c 1,31,-1
 854.5 1688 l 1,32,-1
 854.5 1435 l 1,33,-1
 723.5 1435 l 1,29,30
206.5 1435 m 1,34,35
 206.5 1432 206.5 1432 206.5 1688 c 1,36,-1
 335.5 1688 l 1,37,-1
 335.5 1435 l 1,38,-1
 206.5 1435 l 1,34,35
854.5 1688 m 1,39,-1
 854.5 1944 l 1,40,-1
 979.5 1944 l 1,41,-1
 979.5 1688 l 1,42,-1
 854.5 1688 l 1,39,-1
79.5 1688 m 1,43,-1
 79.5 1944 l 1,44,-1
 206.5 1944 l 1,45,-1
 206.5 1688 l 1,46,-1
 79.5 1688 l 1,43,-1
EndSplineSet
Validated: 37
EndChar

StartChar: brokenbar
Encoding: 166 166 99
Width: 415
VWidth: 3072
GlyphClass: 1
Flags: W
LayerCount: 2
Fore
SplineSet
79.5 -101 m 1,0,-1
 79.5 792 l 1,1,-1
 335.5 792 l 1,2,-1
 335.5 -101 l 1,3,-1
 79.5 -101 l 1,0,-1
79.5 1051 m 1,4,-1
 79.5 1944 l 1,5,-1
 335.5 1944 l 1,6,-1
 335.5 1051 l 1,7,-1
 79.5 1051 l 1,4,-1
EndSplineSet
Validated: 1
EndChar

StartChar: section
Encoding: 167 167 100
Width: 1183
VWidth: 3072
GlyphClass: 1
Flags: W
LayerCount: 2
Fore
SplineSet
335.5 -101 m 1,0,-1
 335.5 24 l 1,1,2
 335.5 24 335.5 24 847.5 24 c 1,3,-1
 847.5 -101 l 1,4,-1
 335.5 -101 l 1,0,-1
847.5 24 m 1,5,-1
 847.5 152 l 1,6,7
 848.5 152 848.5 152 976.5 152 c 1,8,-1
 976.5 24 l 1,9,-1
 847.5 24 l 1,5,-1
206.5 24 m 1,10,-1
 206.5 152 l 1,11,-1
 335.5 152 l 1,12,-1
 335.5 24 l 1,13,-1
 206.5 24 l 1,10,-1
79.5 152 m 1,14,-1
 79.5 283 l 1,15,-1
 206.5 283 l 1,16,17
 206.5 280 206.5 280 206.5 152 c 1,18,-1
 79.5 152 l 1,14,-1
976.5 152 m 1,19,-1
 976.5 408 l 1,20,-1
 1103.5 408 l 1,21,-1
 1103.5 152 l 1,22,-1
 976.5 152 l 1,19,-1
847.5 408 m 1,23,-1
 847.5 536 l 1,24,25
 848.5 536 848.5 536 976.5 536 c 1,26,-1
 976.5 408 l 1,27,-1
 847.5 408 l 1,23,-1
335.5 536 m 1,28,-1
 335.5 664 l 1,29,30
 335.5 664 335.5 664 847.5 664 c 1,31,-1
 847.5 536 l 1,32,-1
 335.5 536 l 1,28,-1
847.5 664 m 1,33,-1
 847.5 792 l 1,34,35
 848.5 792 848.5 792 976.5 792 c 1,36,-1
 976.5 664 l 1,37,-1
 847.5 664 l 1,33,-1
206.5 664 m 1,38,-1
 206.5 792 l 1,39,-1
 335.5 792 l 1,40,-1
 335.5 664 l 1,41,-1
 206.5 664 l 1,38,-1
976.5 792 m 1,42,-1
 976.5 1051 l 1,43,-1
 1103.5 1051 l 1,44,-1
 1103.5 792 l 1,45,-1
 976.5 792 l 1,42,-1
79.5 792 m 1,46,-1
 79.5 1051 l 1,47,-1
 206.5 1051 l 1,48,-1
 206.5 792 l 1,49,-1
 79.5 792 l 1,46,-1
847.5 1051 m 1,50,-1
 847.5 1176 l 1,51,52
 848.5 1176 848.5 1176 976.5 1176 c 1,53,-1
 976.5 1051 l 1,54,-1
 847.5 1051 l 1,50,-1
206.5 1051 m 1,55,-1
 206.5 1176 l 1,56,-1
 335.5 1176 l 1,57,-1
 335.5 1051 l 1,58,-1
 206.5 1051 l 1,55,-1
335.5 1176 m 1,59,-1
 335.5 1304 l 1,60,61
 335.5 1304 335.5 1304 847.5 1304 c 1,62,-1
 847.5 1176 l 1,63,-1
 335.5 1176 l 1,59,-1
206.5 1304 m 1,64,-1
 206.5 1435 l 1,65,-1
 335.5 1435 l 1,66,67
 335.5 1432 335.5 1432 335.5 1304 c 1,68,-1
 206.5 1304 l 1,64,-1
976.5 1560 m 1,69,-1
 976.5 1688 l 1,70,-1
 1103.5 1688 l 1,71,-1
 1103.5 1560 l 1,72,-1
 976.5 1560 l 1,69,-1
79.5 1435 m 1,73,74
 79.5 1432 79.5 1432 79.5 1688 c 1,75,-1
 206.5 1688 l 1,76,-1
 206.5 1435 l 1,77,-1
 79.5 1435 l 1,73,74
847.5 1688 m 1,78,-1
 847.5 1819 l 1,79,80
 848.5 1819 848.5 1819 976.5 1819 c 1,81,82
 976.5 1816 976.5 1816 976.5 1688 c 1,83,-1
 847.5 1688 l 1,78,-1
206.5 1688 m 1,84,-1
 206.5 1819 l 1,85,-1
 335.5 1819 l 1,86,87
 335.5 1816 335.5 1816 335.5 1688 c 1,88,-1
 206.5 1688 l 1,84,-1
335.5 1819 m 1,89,-1
 335.5 1944 l 1,90,91
 335.5 1944 335.5 1944 847.5 1944 c 1,92,-1
 847.5 1819 l 1,93,-1
 335.5 1819 l 1,89,-1
EndSplineSet
Validated: 37
EndChar

StartChar: dieresis
Encoding: 168 168 101
Width: 927
VWidth: 3072
GlyphClass: 1
Flags: W
LayerCount: 2
Fore
SplineSet
588.5 1560 m 1,0,-1
 588.5 1819 l 1,1,2
 591.5 1819 591.5 1819 847.5 1819 c 1,3,-1
 847.5 1560 l 1,4,-1
 588.5 1560 l 1,0,-1
79.5 1560 m 1,5,-1
 79.5 1819 l 1,6,-1
 335.5 1819 l 1,7,-1
 335.5 1560 l 1,8,-1
 79.5 1560 l 1,5,-1
EndSplineSet
Validated: 1
EndChar

StartChar: copyright
Encoding: 169 169 102
Width: 1183
VWidth: 3072
GlyphClass: 1
Flags: W
LayerCount: 2
Fore
SplineSet
335.5 408 m 1,0,-1
 335.5 536 l 1,1,2
 335.5 536 335.5 536 847.5 536 c 1,3,-1
 847.5 408 l 1,4,-1
 335.5 408 l 1,0,-1
847.5 536 m 1,5,-1
 847.5 664 l 1,6,7
 848.5 664 848.5 664 976.5 664 c 1,8,-1
 976.5 536 l 1,9,-1
 847.5 536 l 1,5,-1
206.5 536 m 1,10,-1
 206.5 664 l 1,11,-1
 335.5 664 l 1,12,-1
 335.5 536 l 1,13,-1
 206.5 536 l 1,10,-1
464.5 664 m 1,14,-1
 464.5 792 l 1,15,-1
 718.5 792 l 1,16,-1
 718.5 664 l 1,17,-1
 464.5 664 l 1,14,-1
335.5 792 m 1,18,-1
 335.5 1051 l 1,19,20
 336.5 1051 336.5 1051 464.5 1051 c 1,21,-1
 464.5 792 l 1,22,-1
 335.5 792 l 1,18,-1
976.5 664 m 1,23,-1
 976.5 1176 l 1,24,-1
 1103.5 1176 l 1,25,-1
 1103.5 664 l 1,26,-1
 976.5 664 l 1,23,-1
464.5 1051 m 1,27,-1
 464.5 1176 l 1,28,-1
 718.5 1176 l 1,29,-1
 718.5 1051 l 1,30,-1
 464.5 1051 l 1,27,-1
79.5 664 m 1,31,-1
 79.5 1176 l 1,32,-1
 206.5 1176 l 1,33,-1
 206.5 664 l 1,34,-1
 79.5 664 l 1,31,-1
847.5 1176 m 1,35,-1
 847.5 1304 l 1,36,37
 848.5 1304 848.5 1304 976.5 1304 c 1,38,-1
 976.5 1176 l 1,39,-1
 847.5 1176 l 1,35,-1
206.5 1176 m 1,40,-1
 206.5 1304 l 1,41,-1
 335.5 1304 l 1,42,-1
 335.5 1176 l 1,43,-1
 206.5 1176 l 1,40,-1
335.5 1304 m 1,44,-1
 335.5 1435 l 1,45,46
 335.5 1435 335.5 1435 847.5 1435 c 1,47,48
 847.5 1432 847.5 1432 847.5 1304 c 1,49,-1
 335.5 1304 l 1,44,-1
EndSplineSet
Validated: 5
EndChar

StartChar: ordfeminine
Encoding: 170 170 103
Width: 671
VWidth: 3072
GlyphClass: 1
Flags: W
LayerCount: 2
Fore
SplineSet
206.5 1304 m 1,0,-1
 206.5 1435 l 1,1,-1
 464.5 1435 l 1,2,3
 464.5 1432 464.5 1432 464.5 1304 c 1,4,-1
 206.5 1304 l 1,0,-1
79.5 1435 m 1,5,-1
 79.5 1560 l 1,6,-1
 206.5 1560 l 1,7,-1
 206.5 1435 l 1,8,-1
 79.5 1435 l 1,5,-1
79.5 1560 m 1,9,-1
 79.5 1688 l 1,10,-1
 464.5 1688 l 1,11,-1
 464.5 1560 l 1,12,-1
 79.5 1560 l 1,9,-1
464.5 1435 m 1,13,-1
 464.5 1819 l 1,14,-1
 591.5 1819 l 1,15,-1
 591.5 1435 l 1,16,-1
 464.5 1435 l 1,13,-1
79.5 1819 m 1,17,-1
 79.5 1944 l 1,18,-1
 464.5 1944 l 1,19,-1
 464.5 1819 l 1,20,-1
 79.5 1819 l 1,17,-1
EndSplineSet
Validated: 5
EndChar

StartChar: guillemotleft
Encoding: 171 171 104
Width: 1183
VWidth: 3072
GlyphClass: 1
Flags: W
LayerCount: 2
Fore
SplineSet
976.5 283 m 1,0,-1
 976.5 408 l 1,1,-1
 1103.5 408 l 1,2,-1
 1103.5 283 l 1,3,-1
 976.5 283 l 1,0,-1
464.5 283 m 1,4,-1
 464.5 408 l 1,5,-1
 591.5 408 l 1,6,-1
 591.5 283 l 1,7,-1
 464.5 283 l 1,4,-1
847.5 408 m 1,8,-1
 847.5 536 l 1,9,10
 848.5 536 848.5 536 976.5 536 c 1,11,-1
 976.5 408 l 1,12,-1
 847.5 408 l 1,8,-1
335.5 408 m 1,13,-1
 335.5 536 l 1,14,15
 336.5 536 336.5 536 464.5 536 c 1,16,-1
 464.5 408 l 1,17,-1
 335.5 408 l 1,13,-1
718.5 536 m 1,18,-1
 718.5 792 l 1,19,20
 718.5 792 718.5 792 847.5 792 c 1,21,-1
 847.5 536 l 1,22,-1
 718.5 536 l 1,18,-1
206.5 536 m 1,23,-1
 206.5 792 l 1,24,-1
 335.5 792 l 1,25,-1
 335.5 536 l 1,26,-1
 206.5 536 l 1,23,-1
591.5 792 m 1,27,-1
 591.5 1051 l 1,28,-1
 718.5 1051 l 1,29,-1
 718.5 792 l 1,30,-1
 591.5 792 l 1,27,-1
79.5 792 m 1,31,-1
 79.5 1051 l 1,32,-1
 206.5 1051 l 1,33,-1
 206.5 792 l 1,34,-1
 79.5 792 l 1,31,-1
718.5 1051 m 1,35,36
 718.5 1048 718.5 1048 718.5 1304 c 1,37,38
 718.5 1304 718.5 1304 847.5 1304 c 1,39,-1
 847.5 1051 l 1,40,-1
 718.5 1051 l 1,35,36
206.5 1051 m 1,41,42
 206.5 1048 206.5 1048 206.5 1304 c 1,43,-1
 335.5 1304 l 1,44,-1
 335.5 1051 l 1,45,-1
 206.5 1051 l 1,41,42
847.5 1304 m 1,46,-1
 847.5 1435 l 1,47,48
 848.5 1435 848.5 1435 976.5 1435 c 1,49,50
 976.5 1432 976.5 1432 976.5 1304 c 1,51,-1
 847.5 1304 l 1,46,-1
335.5 1304 m 1,52,-1
 335.5 1435 l 1,53,54
 336.5 1435 336.5 1435 464.5 1435 c 1,55,56
 464.5 1432 464.5 1432 464.5 1304 c 1,57,-1
 335.5 1304 l 1,52,-1
976.5 1435 m 1,58,-1
 976.5 1560 l 1,59,-1
 1103.5 1560 l 1,60,-1
 1103.5 1435 l 1,61,-1
 976.5 1435 l 1,58,-1
464.5 1435 m 1,62,-1
 464.5 1560 l 1,63,-1
 591.5 1560 l 1,64,-1
 591.5 1435 l 1,65,-1
 464.5 1435 l 1,62,-1
EndSplineSet
Validated: 37
EndChar

StartChar: logicalnot
Encoding: 172 172 105
Width: 1183
VWidth: 3072
GlyphClass: 1
Flags: W
LayerCount: 2
Fore
SplineSet
976.5 536 m 1,0,-1
 976.5 920 l 1,1,-1
 1103.5 920 l 1,2,-1
 1103.5 536 l 1,3,-1
 976.5 536 l 1,0,-1
79.5 920 m 1,4,-1
 79.5 1051 l 1,5,-1
 1103.5 1051 l 1,6,7
 1103.5 1048 1103.5 1048 1103.5 920 c 1,8,-1
 79.5 920 l 1,4,-1
EndSplineSet
Validated: 5
EndChar

StartChar: registered
Encoding: 174 174 106
Width: 1183
VWidth: 3072
GlyphClass: 1
Flags: W
LayerCount: 2
Fore
SplineSet
335.5 408 m 1,0,-1
 335.5 536 l 1,1,2
 335.5 536 335.5 536 847.5 536 c 1,3,-1
 847.5 408 l 1,4,-1
 335.5 408 l 1,0,-1
847.5 536 m 1,5,-1
 847.5 664 l 1,6,7
 848.5 664 848.5 664 976.5 664 c 1,8,-1
 976.5 536 l 1,9,-1
 847.5 536 l 1,5,-1
206.5 536 m 1,10,-1
 206.5 664 l 1,11,-1
 335.5 664 l 1,12,-1
 335.5 536 l 1,13,-1
 206.5 536 l 1,10,-1
718.5 664 m 1,14,-1
 718.5 792 l 1,15,16
 718.5 792 718.5 792 847.5 792 c 1,17,-1
 847.5 664 l 1,18,-1
 718.5 664 l 1,14,-1
464.5 792 m 1,19,-1
 464.5 920 l 1,20,-1
 718.5 920 l 1,21,-1
 718.5 792 l 1,22,-1
 464.5 792 l 1,19,-1
718.5 920 m 1,23,-1
 718.5 1051 l 1,24,25
 718.5 1051 718.5 1051 847.5 1051 c 1,26,27
 847.5 1048 847.5 1048 847.5 920 c 1,28,-1
 718.5 920 l 1,23,-1
335.5 664 m 1,29,-1
 335.5 1051 l 1,30,31
 336.5 1051 336.5 1051 464.5 1051 c 1,32,33
 464.5 1048 464.5 1048 464.5 664 c 1,34,-1
 335.5 664 l 1,29,-1
976.5 664 m 1,35,-1
 976.5 1176 l 1,36,-1
 1103.5 1176 l 1,37,-1
 1103.5 664 l 1,38,-1
 976.5 664 l 1,35,-1
335.5 1051 m 1,39,-1
 335.5 1176 l 1,40,41
 335.5 1176 335.5 1176 847.5 1176 c 1,42,-1
 847.5 1051 l 1,43,-1
 335.5 1051 l 1,39,-1
79.5 664 m 1,44,-1
 79.5 1176 l 1,45,-1
 206.5 1176 l 1,46,-1
 206.5 664 l 1,47,-1
 79.5 664 l 1,44,-1
847.5 1176 m 1,48,-1
 847.5 1304 l 1,49,50
 848.5 1304 848.5 1304 976.5 1304 c 1,51,-1
 976.5 1176 l 1,52,-1
 847.5 1176 l 1,48,-1
206.5 1176 m 1,53,-1
 206.5 1304 l 1,54,-1
 335.5 1304 l 1,55,-1
 335.5 1176 l 1,56,-1
 206.5 1176 l 1,53,-1
335.5 1304 m 1,57,-1
 335.5 1435 l 1,58,59
 335.5 1435 335.5 1435 847.5 1435 c 1,60,61
 847.5 1432 847.5 1432 847.5 1304 c 1,62,-1
 335.5 1304 l 1,57,-1
EndSplineSet
Validated: 5
EndChar

StartChar: macron
Encoding: 175 175 107
Width: 1183
VWidth: 3072
GlyphClass: 1
Flags: W
LayerCount: 2
Fore
SplineSet
79.5 1819 m 1,0,-1
 79.5 1944 l 1,1,-1
 1103.5 1944 l 1,2,-1
 1103.5 1819 l 1,3,-1
 79.5 1819 l 1,0,-1
EndSplineSet
Validated: 1
EndChar

StartChar: degree
Encoding: 176 176 108
Width: 671
VWidth: 3072
GlyphClass: 1
Flags: W
LayerCount: 2
Fore
SplineSet
206.5 1435 m 1,0,-1
 206.5 1560 l 1,1,-1
 464.5 1560 l 1,2,-1
 464.5 1435 l 1,3,-1
 206.5 1435 l 1,0,-1
464.5 1560 m 1,4,-1
 464.5 1819 l 1,5,-1
 591.5 1819 l 1,6,-1
 591.5 1560 l 1,7,-1
 464.5 1560 l 1,4,-1
79.5 1560 m 1,8,-1
 79.5 1819 l 1,9,-1
 206.5 1819 l 1,10,-1
 206.5 1560 l 1,11,-1
 79.5 1560 l 1,8,-1
206.5 1819 m 1,12,-1
 206.5 1944 l 1,13,-1
 464.5 1944 l 1,14,-1
 464.5 1819 l 1,15,-1
 206.5 1819 l 1,12,-1
EndSplineSet
Validated: 5
EndChar

StartChar: plusminus
Encoding: 177 177 109
Width: 1183
VWidth: 3072
GlyphClass: 1
Flags: W
LayerCount: 2
Fore
SplineSet
79.5 283 m 1,0,1
 79.5 280 79.5 280 79.5 536 c 1,2,-1
 1103.5 536 l 1,3,-1
 1103.5 283 l 1,4,-1
 79.5 283 l 1,0,1
718.5 1304 m 1,5,-1
 718.5 1560 l 1,6,-1
 1103.5 1560 l 1,7,-1
 1103.5 1304 l 1,8,-1
 718.5 1304 l 1,5,-1
79.5 1304 m 1,9,-1
 79.5 1560 l 1,10,-1
 464.5 1560 l 1,11,-1
 464.5 1304 l 1,12,-1
 79.5 1304 l 1,9,-1
464.5 920 m 1,13,-1
 464.5 1944 l 1,14,-1
 718.5 1944 l 1,15,-1
 718.5 920 l 1,16,-1
 464.5 920 l 1,13,-1
EndSplineSet
Validated: 37
EndChar

StartChar: uni00B2
Encoding: 178 178 110
Width: 671
VWidth: 3072
GlyphClass: 1
Flags: W
LayerCount: 2
Fore
SplineSet
338.5 1304 m 1,0,-1
 338.5 1435 l 1,1,2
 335.5 1435 335.5 1435 591.5 1435 c 1,3,4
 591.5 1432 591.5 1432 591.5 1304 c 1,5,-1
 338.5 1304 l 1,0,-1
79.5 1304 m 1,6,-1
 79.5 1435 l 1,7,-1
 206.5 1435 l 1,8,9
 206.5 1432 206.5 1432 206.5 1304 c 1,10,-1
 79.5 1304 l 1,6,-1
206.5 1304 m 1,11,-1
 206.5 1560 l 1,12,13
 207.5 1560 207.5 1560 338.5 1560 c 1,14,-1
 338.5 1304 l 1,15,-1
 206.5 1304 l 1,11,-1
338.5 1560 m 1,16,-1
 338.5 1688 l 1,17,18
 339.5 1688 339.5 1688 464.5 1688 c 1,19,-1
 464.5 1560 l 1,20,-1
 338.5 1560 l 1,16,-1
464.5 1688 m 1,21,-1
 464.5 1819 l 1,22,-1
 591.5 1819 l 1,23,24
 591.5 1816 591.5 1816 591.5 1688 c 1,25,-1
 464.5 1688 l 1,21,-1
79.5 1688 m 1,26,-1
 79.5 1819 l 1,27,-1
 206.5 1819 l 1,28,29
 206.5 1816 206.5 1816 206.5 1688 c 1,30,-1
 79.5 1688 l 1,26,-1
206.5 1819 m 1,31,-1
 206.5 1944 l 1,32,-1
 464.5 1944 l 1,33,-1
 464.5 1819 l 1,34,-1
 206.5 1819 l 1,31,-1
EndSplineSet
Validated: 37
EndChar

StartChar: uni00B3
Encoding: 179 179 111
Width: 671
VWidth: 3072
GlyphClass: 1
Flags: W
LayerCount: 2
Fore
SplineSet
206.5 1304 m 1,0,-1
 206.5 1435 l 1,1,-1
 464.5 1435 l 1,2,3
 464.5 1432 464.5 1432 464.5 1304 c 1,4,-1
 206.5 1304 l 1,0,-1
464.5 1435 m 1,5,-1
 464.5 1560 l 1,6,-1
 591.5 1560 l 1,7,-1
 591.5 1435 l 1,8,-1
 464.5 1435 l 1,5,-1
79.5 1435 m 1,9,-1
 79.5 1560 l 1,10,-1
 206.5 1560 l 1,11,-1
 206.5 1435 l 1,12,-1
 79.5 1435 l 1,9,-1
338.5 1560 m 1,13,-1
 338.5 1688 l 1,14,15
 339.5 1688 339.5 1688 464.5 1688 c 1,16,-1
 464.5 1560 l 1,17,-1
 338.5 1560 l 1,13,-1
464.5 1688 m 1,18,-1
 464.5 1819 l 1,19,-1
 591.5 1819 l 1,20,21
 591.5 1816 591.5 1816 591.5 1688 c 1,22,-1
 464.5 1688 l 1,18,-1
79.5 1688 m 1,23,-1
 79.5 1819 l 1,24,-1
 206.5 1819 l 1,25,26
 206.5 1816 206.5 1816 206.5 1688 c 1,27,-1
 79.5 1688 l 1,23,-1
206.5 1819 m 1,28,-1
 206.5 1944 l 1,29,-1
 464.5 1944 l 1,30,-1
 464.5 1819 l 1,31,-1
 206.5 1819 l 1,28,-1
EndSplineSet
Validated: 5
EndChar

StartChar: acute
Encoding: 180 180 112
Width: 544
VWidth: 3072
GlyphClass: 1
Flags: W
LayerCount: 2
Fore
SplineSet
79.5 1560 m 1,0,-1
 79.5 1688 l 1,1,-1
 204.5 1688 l 1,2,-1
 204.5 1560 l 1,3,-1
 79.5 1560 l 1,0,-1
204.5 1560 m 1,4,-1
 204.5 1819 l 1,5,6
 207.5 1819 207.5 1819 335.5 1819 c 1,7,-1
 335.5 1560 l 1,8,-1
 204.5 1560 l 1,4,-1
335.5 1688 m 1,9,-1
 335.5 1944 l 1,10,11
 336.5 1944 336.5 1944 464.5 1944 c 1,12,-1
 464.5 1688 l 1,13,-1
 335.5 1688 l 1,9,-1
EndSplineSet
Validated: 5
EndChar

StartChar: mu
Encoding: 181 181 113
Width: 927
VWidth: 3072
GlyphClass: 1
Flags: W
LayerCount: 2
Fore
SplineSet
204.5 -101 m 1,0,-1
 204.5 24 l 1,1,-1
 588.5 24 l 1,2,-1
 588.5 -101 l 1,3,-1
 204.5 -101 l 1,0,-1
588.5 24 m 1,4,-1
 588.5 152 l 1,5,6
 591.5 152 591.5 152 718.5 152 c 1,7,-1
 718.5 24 l 1,8,-1
 588.5 24 l 1,4,-1
718.5 -101 m 1,9,10
 718.5 -104 718.5 -104 718.5 920 c 1,11,12
 718.5 920 718.5 920 847.5 920 c 1,13,-1
 847.5 -101 l 1,14,-1
 718.5 -101 l 1,9,10
79.5 -616 m 1,15,-1
 79.5 920 l 1,16,-1
 204.5 920 l 1,17,-1
 204.5 -616 l 1,18,-1
 79.5 -616 l 1,15,-1
EndSplineSet
Validated: 37
EndChar

StartChar: paragraph
Encoding: 182 182 114
Width: 1183
VWidth: 3072
GlyphClass: 1
Flags: W
LayerCount: 2
Fore
SplineSet
464.5 -101 m 1,0,1
 464.5 -104 464.5 -104 464.5 920 c 1,2,-1
 591.5 920 l 1,3,-1
 591.5 -101 l 1,4,-1
 464.5 -101 l 1,0,1
335.5 920 m 1,5,-1
 335.5 1051 l 1,6,-1
 591.5 1051 l 1,7,8
 591.5 1048 591.5 1048 591.5 920 c 1,9,-1
 335.5 920 l 1,5,-1
79.5 1176 m 1,10,-1
 79.5 1688 l 1,11,-1
 206.5 1688 l 1,12,-1
 206.5 1176 l 1,13,-1
 79.5 1176 l 1,10,-1
847.5 -101 m 1,14,-1
 847.5 1819 l 1,15,16
 848.5 1819 848.5 1819 976.5 1819 c 1,17,-1
 976.5 -101 l 1,18,-1
 847.5 -101 l 1,14,-1
206.5 1051 m 1,19,-1
 206.5 1819 l 1,20,-1
 591.5 1819 l 1,21,-1
 591.5 1051 l 1,22,-1
 206.5 1051 l 1,19,-1
335.5 1819 m 1,23,-1
 335.5 1944 l 1,24,-1
 1103.5 1944 l 1,25,-1
 1103.5 1819 l 1,26,-1
 335.5 1819 l 1,23,-1
EndSplineSet
Validated: 37
EndChar

StartChar: periodcentered
Encoding: 183 183 115
Width: 415
VWidth: 3072
GlyphClass: 1
Flags: W
LayerCount: 2
Fore
SplineSet
79.5 792 m 1,0,-1
 79.5 1051 l 1,1,-1
 335.5 1051 l 1,2,-1
 335.5 792 l 1,3,-1
 79.5 792 l 1,0,-1
EndSplineSet
Validated: 1
EndChar

StartChar: cedilla
Encoding: 184 184 116
Width: 671
VWidth: 3072
GlyphClass: 1
Flags: W
LayerCount: 2
Fore
SplineSet
206.5 -616 m 1,0,-1
 206.5 -485 l 1,1,-1
 464.5 -485 l 1,2,3
 464.5 -488 464.5 -488 464.5 -616 c 1,4,-1
 206.5 -616 l 1,0,-1
79.5 -485 m 1,5,-1
 79.5 -360 l 1,6,-1
 206.5 -360 l 1,7,-1
 206.5 -485 l 1,8,-1
 79.5 -485 l 1,5,-1
464.5 -485 m 1,9,10
 464.5 -488 464.5 -488 464.5 -232 c 1,11,-1
 591.5 -232 l 1,12,-1
 591.5 -485 l 1,13,-1
 464.5 -485 l 1,9,10
206.5 -232 m 1,14,-1
 206.5 24 l 1,15,-1
 464.5 24 l 1,16,-1
 464.5 -232 l 1,17,-1
 206.5 -232 l 1,14,-1
EndSplineSet
Validated: 37
EndChar

StartChar: uni00B9
Encoding: 185 185 117
Width: 671
VWidth: 3072
GlyphClass: 1
Flags: W
LayerCount: 2
Fore
SplineSet
464.5 1304 m 1,0,-1
 464.5 1435 l 1,1,-1
 591.5 1435 l 1,2,3
 591.5 1432 591.5 1432 591.5 1304 c 1,4,-1
 464.5 1304 l 1,0,-1
79.5 1304 m 1,5,-1
 79.5 1435 l 1,6,-1
 338.5 1435 l 1,7,8
 338.5 1432 338.5 1432 338.5 1304 c 1,9,-1
 79.5 1304 l 1,5,-1
338.5 1304 m 1,10,-1
 338.5 1819 l 1,11,12
 339.5 1819 339.5 1819 464.5 1819 c 1,13,14
 464.5 1816 464.5 1816 464.5 1304 c 1,15,-1
 338.5 1304 l 1,10,-1
79.5 1688 m 1,16,-1
 79.5 1819 l 1,17,-1
 206.5 1819 l 1,18,19
 206.5 1816 206.5 1816 206.5 1688 c 1,20,-1
 79.5 1688 l 1,16,-1
206.5 1819 m 1,21,-1
 206.5 1944 l 1,22,-1
 464.5 1944 l 1,23,-1
 464.5 1819 l 1,24,-1
 206.5 1819 l 1,21,-1
EndSplineSet
Validated: 5
EndChar

StartChar: ordmasculine
Encoding: 186 186 118
Width: 671
VWidth: 3072
GlyphClass: 1
Flags: W
LayerCount: 2
Fore
SplineSet
206.5 1304 m 1,0,-1
 206.5 1435 l 1,1,-1
 464.5 1435 l 1,2,3
 464.5 1432 464.5 1432 464.5 1304 c 1,4,-1
 206.5 1304 l 1,0,-1
464.5 1435 m 1,5,-1
 464.5 1819 l 1,6,-1
 591.5 1819 l 1,7,-1
 591.5 1435 l 1,8,-1
 464.5 1435 l 1,5,-1
79.5 1435 m 1,9,-1
 79.5 1819 l 1,10,-1
 206.5 1819 l 1,11,-1
 206.5 1435 l 1,12,-1
 79.5 1435 l 1,9,-1
206.5 1819 m 1,13,-1
 206.5 1944 l 1,14,-1
 464.5 1944 l 1,15,-1
 464.5 1819 l 1,16,-1
 206.5 1819 l 1,13,-1
EndSplineSet
Validated: 5
EndChar

StartChar: guillemotright
Encoding: 187 187 119
Width: 1183
VWidth: 3072
GlyphClass: 1
Flags: W
LayerCount: 2
Fore
SplineSet
591.5 283 m 1,0,-1
 591.5 408 l 1,1,-1
 718.5 408 l 1,2,-1
 718.5 283 l 1,3,-1
 591.5 283 l 1,0,-1
79.5 283 m 1,4,-1
 79.5 408 l 1,5,-1
 206.5 408 l 1,6,-1
 206.5 283 l 1,7,-1
 79.5 283 l 1,4,-1
718.5 408 m 1,8,-1
 718.5 536 l 1,9,10
 718.5 536 718.5 536 847.5 536 c 1,11,-1
 847.5 408 l 1,12,-1
 718.5 408 l 1,8,-1
206.5 408 m 1,13,-1
 206.5 536 l 1,14,-1
 335.5 536 l 1,15,-1
 335.5 408 l 1,16,-1
 206.5 408 l 1,13,-1
847.5 536 m 1,17,-1
 847.5 792 l 1,18,19
 848.5 792 848.5 792 976.5 792 c 1,20,-1
 976.5 536 l 1,21,-1
 847.5 536 l 1,17,-1
335.5 536 m 1,22,-1
 335.5 792 l 1,23,24
 336.5 792 336.5 792 464.5 792 c 1,25,-1
 464.5 536 l 1,26,-1
 335.5 536 l 1,22,-1
976.5 792 m 1,27,-1
 976.5 1051 l 1,28,-1
 1103.5 1051 l 1,29,-1
 1103.5 792 l 1,30,-1
 976.5 792 l 1,27,-1
464.5 792 m 1,31,-1
 464.5 1051 l 1,32,-1
 591.5 1051 l 1,33,-1
 591.5 792 l 1,34,-1
 464.5 792 l 1,31,-1
847.5 1051 m 1,35,36
 847.5 1048 847.5 1048 847.5 1304 c 1,37,38
 848.5 1304 848.5 1304 976.5 1304 c 1,39,-1
 976.5 1051 l 1,40,-1
 847.5 1051 l 1,35,36
335.5 1051 m 1,41,42
 335.5 1048 335.5 1048 335.5 1304 c 1,43,44
 336.5 1304 336.5 1304 464.5 1304 c 1,45,-1
 464.5 1051 l 1,46,-1
 335.5 1051 l 1,41,42
718.5 1304 m 1,47,-1
 718.5 1435 l 1,48,49
 718.5 1435 718.5 1435 847.5 1435 c 1,50,51
 847.5 1432 847.5 1432 847.5 1304 c 1,52,-1
 718.5 1304 l 1,47,-1
206.5 1304 m 1,53,-1
 206.5 1435 l 1,54,-1
 335.5 1435 l 1,55,56
 335.5 1432 335.5 1432 335.5 1304 c 1,57,-1
 206.5 1304 l 1,53,-1
591.5 1435 m 1,58,-1
 591.5 1560 l 1,59,-1
 718.5 1560 l 1,60,-1
 718.5 1435 l 1,61,-1
 591.5 1435 l 1,58,-1
79.5 1435 m 1,62,-1
 79.5 1560 l 1,63,-1
 206.5 1560 l 1,64,-1
 206.5 1435 l 1,65,-1
 79.5 1435 l 1,62,-1
EndSplineSet
Validated: 37
EndChar

StartChar: onequarter
Encoding: 188 188 120
Width: 1183
VWidth: 3072
GlyphClass: 1
Flags: W
LayerCount: 2
Fore
SplineSet
79.5 -101 m 1,0,1
 79.5 -104 79.5 -104 79.5 152 c 1,2,-1
 206.5 152 l 1,3,-1
 206.5 -101 l 1,4,-1
 79.5 -101 l 1,0,1
847.5 152 m 1,5,-1
 847.5 283 l 1,6,7
 848.5 283 848.5 283 976.5 283 c 1,8,9
 976.5 280 976.5 280 976.5 152 c 1,10,-1
 847.5 152 l 1,5,-1
206.5 152 m 1,11,-1
 206.5 408 l 1,12,-1
 335.5 408 l 1,13,-1
 335.5 152 l 1,14,-1
 206.5 152 l 1,11,-1
976.5 -101 m 1,15,16
 976.5 -104 976.5 -104 976.5 536 c 1,17,-1
 1103.5 536 l 1,18,-1
 1103.5 -101 l 1,19,-1
 976.5 -101 l 1,15,16
718.5 152 m 1,20,-1
 718.5 536 l 1,21,22
 718.5 536 718.5 536 847.5 536 c 1,23,-1
 847.5 152 l 1,24,-1
 718.5 152 l 1,20,-1
335.5 408 m 1,25,-1
 335.5 664 l 1,26,27
 336.5 664 336.5 664 464.5 664 c 1,28,-1
 464.5 408 l 1,29,-1
 335.5 408 l 1,25,-1
464.5 664 m 1,30,-1
 464.5 920 l 1,31,-1
 591.5 920 l 1,32,-1
 591.5 664 l 1,33,-1
 464.5 664 l 1,30,-1
591.5 920 m 1,34,-1
 591.5 1176 l 1,35,-1
 718.5 1176 l 1,36,-1
 718.5 920 l 1,37,-1
 591.5 920 l 1,34,-1
718.5 1176 m 1,38,-1
 718.5 1435 l 1,39,40
 718.5 1435 718.5 1435 847.5 1435 c 1,41,-1
 847.5 1176 l 1,42,-1
 718.5 1176 l 1,38,-1
335.5 1304 m 1,43,-1
 335.5 1435 l 1,44,45
 336.5 1435 336.5 1435 464.5 1435 c 1,46,47
 464.5 1432 464.5 1432 464.5 1304 c 1,48,-1
 335.5 1304 l 1,43,-1
79.5 1304 m 1,49,-1
 79.5 1435 l 1,50,-1
 206.5 1435 l 1,51,52
 206.5 1432 206.5 1432 206.5 1304 c 1,53,-1
 79.5 1304 l 1,49,-1
847.5 1435 m 1,54,55
 847.5 1432 847.5 1432 847.5 1688 c 1,56,57
 848.5 1688 848.5 1688 976.5 1688 c 1,58,-1
 976.5 1435 l 1,59,-1
 847.5 1435 l 1,54,55
79.5 1688 m 1,60,-1
 79.5 1819 l 1,61,-1
 206.5 1819 l 1,62,63
 206.5 1816 206.5 1816 206.5 1688 c 1,64,-1
 79.5 1688 l 1,60,-1
976.5 1688 m 1,65,-1
 976.5 1944 l 1,66,-1
 1103.5 1944 l 1,67,-1
 1103.5 1688 l 1,68,-1
 976.5 1688 l 1,65,-1
206.5 1304 m 1,69,-1
 206.5 1944 l 1,70,-1
 335.5 1944 l 1,71,-1
 335.5 1304 l 1,72,-1
 206.5 1304 l 1,69,-1
EndSplineSet
Validated: 37
EndChar

StartChar: onehalf
Encoding: 189 189 121
Width: 1183
VWidth: 3072
GlyphClass: 1
Flags: W
LayerCount: 2
Fore
SplineSet
847.5 -101 m 1,0,-1
 847.5 24 l 1,1,-1
 1103.5 24 l 1,2,-1
 1103.5 -101 l 1,3,-1
 847.5 -101 l 1,0,-1
718.5 -101 m 1,4,5
 718.5 -104 718.5 -104 718.5 152 c 1,6,7
 718.5 152 718.5 152 847.5 152 c 1,8,-1
 847.5 -101 l 1,9,-1
 718.5 -101 l 1,4,5
79.5 -101 m 1,10,11
 79.5 -104 79.5 -104 79.5 152 c 1,12,-1
 206.5 152 l 1,13,-1
 206.5 -101 l 1,14,-1
 79.5 -101 l 1,10,11
718.5 152 m 1,15,-1
 718.5 283 l 1,16,-1
 976.5 283 l 1,17,18
 976.5 280 976.5 280 976.5 152 c 1,19,-1
 718.5 152 l 1,15,-1
976.5 152 m 1,20,-1
 976.5 408 l 1,21,-1
 1103.5 408 l 1,22,-1
 1103.5 152 l 1,23,-1
 976.5 152 l 1,20,-1
206.5 152 m 1,24,-1
 206.5 408 l 1,25,-1
 335.5 408 l 1,26,-1
 335.5 152 l 1,27,-1
 206.5 152 l 1,24,-1
718.5 408 m 1,28,-1
 718.5 536 l 1,29,-1
 1103.5 536 l 1,30,-1
 1103.5 408 l 1,31,-1
 718.5 408 l 1,28,-1
335.5 408 m 1,32,-1
 335.5 664 l 1,33,34
 336.5 664 336.5 664 464.5 664 c 1,35,-1
 464.5 408 l 1,36,-1
 335.5 408 l 1,32,-1
464.5 664 m 1,37,-1
 464.5 920 l 1,38,-1
 591.5 920 l 1,39,-1
 591.5 664 l 1,40,-1
 464.5 664 l 1,37,-1
591.5 920 m 1,41,-1
 591.5 1176 l 1,42,-1
 718.5 1176 l 1,43,-1
 718.5 920 l 1,44,-1
 591.5 920 l 1,41,-1
718.5 1176 m 1,45,-1
 718.5 1435 l 1,46,47
 718.5 1435 718.5 1435 847.5 1435 c 1,48,-1
 847.5 1176 l 1,49,-1
 718.5 1176 l 1,45,-1
335.5 1304 m 1,50,-1
 335.5 1435 l 1,51,52
 336.5 1435 336.5 1435 464.5 1435 c 1,53,54
 464.5 1432 464.5 1432 464.5 1304 c 1,55,-1
 335.5 1304 l 1,50,-1
79.5 1304 m 1,56,-1
 79.5 1435 l 1,57,-1
 206.5 1435 l 1,58,59
 206.5 1432 206.5 1432 206.5 1304 c 1,60,-1
 79.5 1304 l 1,56,-1
847.5 1435 m 1,61,62
 847.5 1432 847.5 1432 847.5 1688 c 1,63,64
 848.5 1688 848.5 1688 976.5 1688 c 1,65,-1
 976.5 1435 l 1,66,-1
 847.5 1435 l 1,61,62
79.5 1688 m 1,67,-1
 79.5 1819 l 1,68,-1
 206.5 1819 l 1,69,70
 206.5 1816 206.5 1816 206.5 1688 c 1,71,-1
 79.5 1688 l 1,67,-1
976.5 1688 m 1,72,-1
 976.5 1944 l 1,73,-1
 1103.5 1944 l 1,74,-1
 1103.5 1688 l 1,75,-1
 976.5 1688 l 1,72,-1
206.5 1304 m 1,76,-1
 206.5 1944 l 1,77,-1
 335.5 1944 l 1,78,-1
 335.5 1304 l 1,79,-1
 206.5 1304 l 1,76,-1
EndSplineSet
Validated: 37
EndChar

StartChar: threequarters
Encoding: 190 190 122
Width: 1183
VWidth: 3072
GlyphClass: 1
Flags: W
LayerCount: 2
Fore
SplineSet
79.5 -101 m 1,0,1
 79.5 -104 79.5 -104 79.5 152 c 1,2,-1
 206.5 152 l 1,3,-1
 206.5 -101 l 1,4,-1
 79.5 -101 l 1,0,1
847.5 152 m 1,5,-1
 847.5 283 l 1,6,7
 848.5 283 848.5 283 976.5 283 c 1,8,9
 976.5 280 976.5 280 976.5 152 c 1,10,-1
 847.5 152 l 1,5,-1
206.5 152 m 1,11,-1
 206.5 408 l 1,12,-1
 335.5 408 l 1,13,-1
 335.5 152 l 1,14,-1
 206.5 152 l 1,11,-1
976.5 -101 m 1,15,16
 976.5 -104 976.5 -104 976.5 536 c 1,17,-1
 1103.5 536 l 1,18,-1
 1103.5 -101 l 1,19,-1
 976.5 -101 l 1,15,16
718.5 152 m 1,20,-1
 718.5 536 l 1,21,22
 718.5 536 718.5 536 847.5 536 c 1,23,-1
 847.5 152 l 1,24,-1
 718.5 152 l 1,20,-1
335.5 408 m 1,25,-1
 335.5 664 l 1,26,27
 336.5 664 336.5 664 464.5 664 c 1,28,-1
 464.5 408 l 1,29,-1
 335.5 408 l 1,25,-1
464.5 664 m 1,30,-1
 464.5 920 l 1,31,-1
 591.5 920 l 1,32,-1
 591.5 664 l 1,33,-1
 464.5 664 l 1,30,-1
591.5 920 m 1,34,-1
 591.5 1176 l 1,35,-1
 718.5 1176 l 1,36,-1
 718.5 920 l 1,37,-1
 591.5 920 l 1,34,-1
718.5 1176 m 1,38,-1
 718.5 1435 l 1,39,40
 718.5 1435 718.5 1435 847.5 1435 c 1,41,-1
 847.5 1176 l 1,42,-1
 718.5 1176 l 1,38,-1
79.5 1304 m 1,43,-1
 79.5 1435 l 1,44,-1
 335.5 1435 l 1,45,46
 335.5 1432 335.5 1432 335.5 1304 c 1,47,-1
 79.5 1304 l 1,43,-1
847.5 1435 m 1,48,49
 847.5 1432 847.5 1432 847.5 1688 c 1,50,51
 848.5 1688 848.5 1688 976.5 1688 c 1,52,-1
 976.5 1435 l 1,53,-1
 847.5 1435 l 1,48,49
79.5 1560 m 1,54,-1
 79.5 1688 l 1,55,-1
 335.5 1688 l 1,56,-1
 335.5 1560 l 1,57,-1
 79.5 1560 l 1,54,-1
335.5 1304 m 1,58,-1
 335.5 1819 l 1,59,60
 336.5 1819 336.5 1819 464.5 1819 c 1,61,62
 464.5 1816 464.5 1816 464.5 1304 c 1,63,-1
 335.5 1304 l 1,58,-1
976.5 1688 m 1,64,-1
 976.5 1944 l 1,65,-1
 1103.5 1944 l 1,66,-1
 1103.5 1688 l 1,67,-1
 976.5 1688 l 1,64,-1
79.5 1819 m 1,68,-1
 79.5 1944 l 1,69,-1
 464.5 1944 l 1,70,-1
 464.5 1819 l 1,71,-1
 79.5 1819 l 1,68,-1
EndSplineSet
Validated: 37
EndChar

StartChar: questiondown
Encoding: 191 191 123
Width: 1183
VWidth: 3072
GlyphClass: 1
Flags: W
LayerCount: 2
Fore
SplineSet
335.5 -101 m 1,0,-1
 335.5 24 l 1,1,2
 335.5 24 335.5 24 847.5 24 c 1,3,-1
 847.5 -101 l 1,4,-1
 335.5 -101 l 1,0,-1
847.5 24 m 1,5,-1
 847.5 152 l 1,6,7
 848.5 152 848.5 152 976.5 152 c 1,8,-1
 976.5 24 l 1,9,-1
 847.5 24 l 1,5,-1
206.5 24 m 1,10,-1
 206.5 152 l 1,11,-1
 335.5 152 l 1,12,-1
 335.5 24 l 1,13,-1
 206.5 24 l 1,10,-1
976.5 152 m 1,14,-1
 976.5 408 l 1,15,-1
 1103.5 408 l 1,16,-1
 1103.5 152 l 1,17,-1
 976.5 152 l 1,14,-1
79.5 152 m 1,18,-1
 79.5 664 l 1,19,-1
 206.5 664 l 1,20,-1
 206.5 152 l 1,21,-1
 79.5 152 l 1,18,-1
206.5 664 m 1,22,-1
 206.5 792 l 1,23,-1
 335.5 792 l 1,24,-1
 335.5 664 l 1,25,-1
 206.5 664 l 1,22,-1
335.5 792 m 1,26,-1
 335.5 920 l 1,27,-1
 591.5 920 l 1,28,-1
 591.5 792 l 1,29,-1
 335.5 792 l 1,26,-1
464.5 920 m 1,30,-1
 464.5 1560 l 1,31,-1
 718.5 1560 l 1,32,-1
 718.5 920 l 1,33,-1
 464.5 920 l 1,30,-1
464.5 1688 m 1,34,-1
 464.5 1944 l 1,35,-1
 718.5 1944 l 1,36,-1
 718.5 1688 l 1,37,-1
 464.5 1688 l 1,34,-1
EndSplineSet
Validated: 5
EndChar

StartChar: Agrave
Encoding: 192 192 124
Width: 1183
VWidth: 3072
GlyphClass: 1
Flags: W
LayerCount: 2
Fore
SplineSet
206.5 664 m 1,0,-1
 206.5 792 l 1,1,-1
 976.5 792 l 1,2,-1
 976.5 664 l 1,3,-1
 206.5 664 l 1,0,-1
976.5 -101 m 1,4,-1
 976.5 1176 l 1,5,-1
 1103.5 1176 l 1,6,-1
 1103.5 -101 l 1,7,-1
 976.5 -101 l 1,4,-1
79.5 -101 m 1,8,-1
 79.5 1176 l 1,9,-1
 206.5 1176 l 1,10,-1
 206.5 -101 l 1,11,-1
 79.5 -101 l 1,8,-1
847.5 1176 m 1,12,-1
 847.5 1435 l 1,13,14
 848.5 1435 848.5 1435 976.5 1435 c 1,15,-1
 976.5 1176 l 1,16,-1
 847.5 1176 l 1,12,-1
206.5 1176 m 1,17,-1
 206.5 1435 l 1,18,-1
 335.5 1435 l 1,19,-1
 335.5 1176 l 1,20,-1
 206.5 1176 l 1,17,-1
718.5 1435 m 1,21,22
 718.5 1432 718.5 1432 718.5 1688 c 1,23,24
 718.5 1688 718.5 1688 847.5 1688 c 1,25,-1
 847.5 1435 l 1,26,-1
 718.5 1435 l 1,21,22
335.5 1435 m 1,27,28
 335.5 1432 335.5 1432 335.5 1688 c 1,29,30
 336.5 1688 336.5 1688 464.5 1688 c 1,31,-1
 464.5 1435 l 1,32,-1
 335.5 1435 l 1,27,28
464.5 1688 m 1,33,-1
 464.5 1944 l 1,34,-1
 718.5 1944 l 1,35,-1
 718.5 1688 l 1,36,-1
 464.5 1688 l 1,33,-1
591.5 2072 m 1,37,-1
 591.5 2200 l 1,38,-1
 718.5 2200 l 1,39,-1
 718.5 2072 l 1,40,-1
 591.5 2072 l 1,37,-1
464.5 2072 m 1,41,-1
 464.5 2328 l 1,42,-1
 591.5 2328 l 1,43,-1
 591.5 2072 l 1,44,-1
 464.5 2072 l 1,41,-1
335.5 2200 m 1,45,-1
 335.5 2456 l 1,46,47
 336.5 2456 336.5 2456 464.5 2456 c 1,48,-1
 464.5 2200 l 1,49,-1
 335.5 2200 l 1,45,-1
EndSplineSet
Validated: 37
EndChar

StartChar: Aacute
Encoding: 193 193 125
Width: 1183
VWidth: 3072
GlyphClass: 1
Flags: W
LayerCount: 2
Fore
SplineSet
206.5 664 m 1,0,-1
 206.5 792 l 1,1,-1
 976.5 792 l 1,2,-1
 976.5 664 l 1,3,-1
 206.5 664 l 1,0,-1
976.5 -101 m 1,4,-1
 976.5 1176 l 1,5,-1
 1103.5 1176 l 1,6,-1
 1103.5 -101 l 1,7,-1
 976.5 -101 l 1,4,-1
79.5 -101 m 1,8,-1
 79.5 1176 l 1,9,-1
 206.5 1176 l 1,10,-1
 206.5 -101 l 1,11,-1
 79.5 -101 l 1,8,-1
847.5 1176 m 1,12,-1
 847.5 1435 l 1,13,14
 848.5 1435 848.5 1435 976.5 1435 c 1,15,-1
 976.5 1176 l 1,16,-1
 847.5 1176 l 1,12,-1
206.5 1176 m 1,17,-1
 206.5 1435 l 1,18,-1
 335.5 1435 l 1,19,-1
 335.5 1176 l 1,20,-1
 206.5 1176 l 1,17,-1
718.5 1435 m 1,21,22
 718.5 1432 718.5 1432 718.5 1688 c 1,23,24
 718.5 1688 718.5 1688 847.5 1688 c 1,25,-1
 847.5 1435 l 1,26,-1
 718.5 1435 l 1,21,22
335.5 1435 m 1,27,28
 335.5 1432 335.5 1432 335.5 1688 c 1,29,30
 336.5 1688 336.5 1688 464.5 1688 c 1,31,-1
 464.5 1435 l 1,32,-1
 335.5 1435 l 1,27,28
464.5 1688 m 1,33,-1
 464.5 1944 l 1,34,-1
 718.5 1944 l 1,35,-1
 718.5 1688 l 1,36,-1
 464.5 1688 l 1,33,-1
464.5 2072 m 1,37,-1
 464.5 2200 l 1,38,-1
 591.5 2200 l 1,39,-1
 591.5 2072 l 1,40,-1
 464.5 2072 l 1,37,-1
591.5 2072 m 1,41,-1
 591.5 2328 l 1,42,-1
 718.5 2328 l 1,43,-1
 718.5 2072 l 1,44,-1
 591.5 2072 l 1,41,-1
718.5 2200 m 1,45,-1
 718.5 2456 l 1,46,47
 718.5 2456 718.5 2456 847.5 2456 c 1,48,-1
 847.5 2200 l 1,49,-1
 718.5 2200 l 1,45,-1
EndSplineSet
Validated: 37
EndChar

StartChar: Acircumflex
Encoding: 194 194 126
Width: 1183
VWidth: 3072
GlyphClass: 1
Flags: W
LayerCount: 2
Fore
SplineSet
206.5 664 m 1,0,-1
 206.5 792 l 1,1,-1
 976.5 792 l 1,2,-1
 976.5 664 l 1,3,-1
 206.5 664 l 1,0,-1
976.5 -101 m 1,4,-1
 976.5 1176 l 1,5,-1
 1103.5 1176 l 1,6,-1
 1103.5 -101 l 1,7,-1
 976.5 -101 l 1,4,-1
79.5 -101 m 1,8,-1
 79.5 1176 l 1,9,-1
 206.5 1176 l 1,10,-1
 206.5 -101 l 1,11,-1
 79.5 -101 l 1,8,-1
847.5 1176 m 1,12,-1
 847.5 1435 l 1,13,14
 848.5 1435 848.5 1435 976.5 1435 c 1,15,-1
 976.5 1176 l 1,16,-1
 847.5 1176 l 1,12,-1
206.5 1176 m 1,17,-1
 206.5 1435 l 1,18,-1
 335.5 1435 l 1,19,-1
 335.5 1176 l 1,20,-1
 206.5 1176 l 1,17,-1
718.5 1435 m 1,21,22
 718.5 1432 718.5 1432 718.5 1688 c 1,23,24
 718.5 1688 718.5 1688 847.5 1688 c 1,25,-1
 847.5 1435 l 1,26,-1
 718.5 1435 l 1,21,22
335.5 1435 m 1,27,28
 335.5 1432 335.5 1432 335.5 1688 c 1,29,30
 336.5 1688 336.5 1688 464.5 1688 c 1,31,-1
 464.5 1435 l 1,32,-1
 335.5 1435 l 1,27,28
464.5 1688 m 1,33,-1
 464.5 1944 l 1,34,-1
 718.5 1944 l 1,35,-1
 718.5 1688 l 1,36,-1
 464.5 1688 l 1,33,-1
847.5 2072 m 1,37,-1
 847.5 2200 l 1,38,39
 848.5 2200 848.5 2200 976.5 2200 c 1,40,-1
 976.5 2072 l 1,41,-1
 847.5 2072 l 1,37,-1
206.5 2072 m 1,42,-1
 206.5 2200 l 1,43,-1
 335.5 2200 l 1,44,-1
 335.5 2072 l 1,45,-1
 206.5 2072 l 1,42,-1
718.5 2200 m 1,46,-1
 718.5 2328 l 1,47,48
 718.5 2328 718.5 2328 847.5 2328 c 1,49,-1
 847.5 2200 l 1,50,-1
 718.5 2200 l 1,46,-1
335.5 2200 m 1,51,-1
 335.5 2328 l 1,52,53
 336.5 2328 336.5 2328 464.5 2328 c 1,54,-1
 464.5 2200 l 1,55,-1
 335.5 2200 l 1,51,-1
464.5 2328 m 1,56,-1
 464.5 2456 l 1,57,-1
 718.5 2456 l 1,58,-1
 718.5 2328 l 1,59,-1
 464.5 2328 l 1,56,-1
EndSplineSet
Validated: 37
EndChar

StartChar: Atilde
Encoding: 195 195 127
Width: 1183
VWidth: 3072
GlyphClass: 1
Flags: W
LayerCount: 2
Fore
SplineSet
206.5 664 m 1,0,-1
 206.5 792 l 1,1,-1
 976.5 792 l 1,2,-1
 976.5 664 l 1,3,-1
 206.5 664 l 1,0,-1
976.5 -101 m 1,4,-1
 976.5 1176 l 1,5,-1
 1103.5 1176 l 1,6,-1
 1103.5 -101 l 1,7,-1
 976.5 -101 l 1,4,-1
79.5 -101 m 1,8,-1
 79.5 1176 l 1,9,-1
 206.5 1176 l 1,10,-1
 206.5 -101 l 1,11,-1
 79.5 -101 l 1,8,-1
847.5 1176 m 1,12,-1
 847.5 1435 l 1,13,14
 848.5 1435 848.5 1435 976.5 1435 c 1,15,-1
 976.5 1176 l 1,16,-1
 847.5 1176 l 1,12,-1
206.5 1176 m 1,17,-1
 206.5 1435 l 1,18,-1
 335.5 1435 l 1,19,-1
 335.5 1176 l 1,20,-1
 206.5 1176 l 1,17,-1
718.5 1435 m 1,21,22
 718.5 1432 718.5 1432 718.5 1688 c 1,23,24
 718.5 1688 718.5 1688 847.5 1688 c 1,25,-1
 847.5 1435 l 1,26,-1
 718.5 1435 l 1,21,22
335.5 1435 m 1,27,28
 335.5 1432 335.5 1432 335.5 1688 c 1,29,30
 336.5 1688 336.5 1688 464.5 1688 c 1,31,-1
 464.5 1435 l 1,32,-1
 335.5 1435 l 1,27,28
464.5 1688 m 1,33,-1
 464.5 1944 l 1,34,-1
 718.5 1944 l 1,35,-1
 718.5 1688 l 1,36,-1
 464.5 1688 l 1,33,-1
718.5 2072 m 1,37,-1
 718.5 2200 l 1,38,-1
 976.5 2200 l 1,39,-1
 976.5 2072 l 1,40,-1
 718.5 2072 l 1,37,-1
464.5 2200 m 1,41,-1
 464.5 2328 l 1,42,-1
 718.5 2328 l 1,43,-1
 718.5 2200 l 1,44,-1
 464.5 2200 l 1,41,-1
79.5 2072 m 1,45,-1
 79.5 2328 l 1,46,-1
 206.5 2328 l 1,47,-1
 206.5 2072 l 1,48,-1
 79.5 2072 l 1,45,-1
976.5 2200 m 1,49,-1
 976.5 2456 l 1,50,-1
 1103.5 2456 l 1,51,-1
 1103.5 2200 l 1,52,-1
 976.5 2200 l 1,49,-1
206.5 2328 m 1,53,-1
 206.5 2456 l 1,54,-1
 464.5 2456 l 1,55,-1
 464.5 2328 l 1,56,-1
 206.5 2328 l 1,53,-1
EndSplineSet
Validated: 37
EndChar

StartChar: Adieresis
Encoding: 196 196 128
Width: 1183
VWidth: 3072
GlyphClass: 1
Flags: W
LayerCount: 2
Fore
SplineSet
206.5 664 m 1,0,-1
 206.5 792 l 1,1,-1
 976.5 792 l 1,2,-1
 976.5 664 l 1,3,-1
 206.5 664 l 1,0,-1
976.5 -101 m 1,4,-1
 976.5 1176 l 1,5,-1
 1103.5 1176 l 1,6,-1
 1103.5 -101 l 1,7,-1
 976.5 -101 l 1,4,-1
79.5 -101 m 1,8,-1
 79.5 1176 l 1,9,-1
 206.5 1176 l 1,10,-1
 206.5 -101 l 1,11,-1
 79.5 -101 l 1,8,-1
847.5 1176 m 1,12,-1
 847.5 1435 l 1,13,14
 848.5 1435 848.5 1435 976.5 1435 c 1,15,-1
 976.5 1176 l 1,16,-1
 847.5 1176 l 1,12,-1
206.5 1176 m 1,17,-1
 206.5 1435 l 1,18,-1
 335.5 1435 l 1,19,-1
 335.5 1176 l 1,20,-1
 206.5 1176 l 1,17,-1
718.5 1435 m 1,21,22
 718.5 1432 718.5 1432 718.5 1688 c 1,23,24
 718.5 1688 718.5 1688 847.5 1688 c 1,25,-1
 847.5 1435 l 1,26,-1
 718.5 1435 l 1,21,22
335.5 1435 m 1,27,28
 335.5 1432 335.5 1432 335.5 1688 c 1,29,30
 336.5 1688 336.5 1688 464.5 1688 c 1,31,-1
 464.5 1435 l 1,32,-1
 335.5 1435 l 1,27,28
464.5 1688 m 1,33,-1
 464.5 1944 l 1,34,-1
 718.5 1944 l 1,35,-1
 718.5 1688 l 1,36,-1
 464.5 1688 l 1,33,-1
718.5 2072 m 1,37,-1
 718.5 2328 l 1,38,-1
 976.5 2328 l 1,39,-1
 976.5 2072 l 1,40,-1
 718.5 2072 l 1,37,-1
206.5 2072 m 1,41,-1
 206.5 2328 l 1,42,-1
 464.5 2328 l 1,43,-1
 464.5 2072 l 1,44,-1
 206.5 2072 l 1,41,-1
EndSplineSet
Validated: 37
EndChar

StartChar: Aring
Encoding: 197 197 129
Width: 1183
VWidth: 3072
GlyphClass: 1
Flags: W
LayerCount: 2
Fore
SplineSet
206.5 664 m 1,0,-1
 206.5 792 l 1,1,-1
 976.5 792 l 1,2,-1
 976.5 664 l 1,3,-1
 206.5 664 l 1,0,-1
976.5 -101 m 1,4,-1
 976.5 1176 l 1,5,-1
 1103.5 1176 l 1,6,-1
 1103.5 -101 l 1,7,-1
 976.5 -101 l 1,4,-1
79.5 -101 m 1,8,-1
 79.5 1176 l 1,9,-1
 206.5 1176 l 1,10,-1
 206.5 -101 l 1,11,-1
 79.5 -101 l 1,8,-1
847.5 1176 m 1,12,-1
 847.5 1435 l 1,13,14
 848.5 1435 848.5 1435 976.5 1435 c 1,15,-1
 976.5 1176 l 1,16,-1
 847.5 1176 l 1,12,-1
206.5 1176 m 1,17,-1
 206.5 1435 l 1,18,-1
 335.5 1435 l 1,19,-1
 335.5 1176 l 1,20,-1
 206.5 1176 l 1,17,-1
718.5 1435 m 1,21,22
 718.5 1432 718.5 1432 718.5 1688 c 1,23,24
 718.5 1688 718.5 1688 847.5 1688 c 1,25,-1
 847.5 1435 l 1,26,-1
 718.5 1435 l 1,21,22
335.5 1435 m 1,27,28
 335.5 1432 335.5 1432 335.5 1688 c 1,29,30
 336.5 1688 336.5 1688 464.5 1688 c 1,31,-1
 464.5 1435 l 1,32,-1
 335.5 1435 l 1,27,28
464.5 1688 m 1,33,-1
 464.5 2072 l 1,34,-1
 718.5 2072 l 1,35,-1
 718.5 1688 l 1,36,-1
 464.5 1688 l 1,33,-1
718.5 2072 m 1,37,-1
 718.5 2328 l 1,38,39
 718.5 2328 718.5 2328 847.5 2328 c 1,40,-1
 847.5 2072 l 1,41,-1
 718.5 2072 l 1,37,-1
335.5 2072 m 1,42,-1
 335.5 2328 l 1,43,44
 336.5 2328 336.5 2328 464.5 2328 c 1,45,-1
 464.5 2072 l 1,46,-1
 335.5 2072 l 1,42,-1
464.5 2328 m 1,47,-1
 464.5 2456 l 1,48,-1
 718.5 2456 l 1,49,-1
 718.5 2328 l 1,50,-1
 464.5 2328 l 1,47,-1
EndSplineSet
Validated: 37
EndChar

StartChar: AE
Encoding: 198 198 130
Width: 1183
VWidth: 3072
GlyphClass: 1
Flags: W
LayerCount: 2
Fore
SplineSet
718.5 -101 m 1,0,-1
 718.5 24 l 1,1,-1
 1103.5 24 l 1,2,-1
 1103.5 -101 l 1,3,-1
 718.5 -101 l 1,0,-1
206.5 664 m 1,4,-1
 206.5 792 l 1,5,-1
 591.5 792 l 1,6,-1
 591.5 664 l 1,7,-1
 206.5 664 l 1,4,-1
718.5 792 m 1,8,-1
 718.5 1051 l 1,9,-1
 1103.5 1051 l 1,10,-1
 1103.5 792 l 1,11,-1
 718.5 792 l 1,8,-1
79.5 -101 m 1,12,-1
 79.5 1176 l 1,13,-1
 206.5 1176 l 1,14,-1
 206.5 -101 l 1,15,-1
 79.5 -101 l 1,12,-1
206.5 1176 m 1,16,-1
 206.5 1435 l 1,17,-1
 335.5 1435 l 1,18,-1
 335.5 1176 l 1,19,-1
 206.5 1176 l 1,16,-1
591.5 -101 m 1,20,21
 591.5 -104 591.5 -104 591.5 1688 c 1,22,-1
 718.5 1688 l 1,23,-1
 718.5 -101 l 1,24,-1
 591.5 -101 l 1,20,21
335.5 1435 m 1,25,26
 335.5 1432 335.5 1432 335.5 1688 c 1,27,28
 336.5 1688 336.5 1688 464.5 1688 c 1,29,-1
 464.5 1435 l 1,30,-1
 335.5 1435 l 1,25,26
464.5 1688 m 1,31,-1
 464.5 1819 l 1,32,-1
 718.5 1819 l 1,33,34
 718.5 1816 718.5 1816 718.5 1688 c 1,35,-1
 464.5 1688 l 1,31,-1
464.5 1819 m 1,36,-1
 464.5 1944 l 1,37,-1
 1103.5 1944 l 1,38,-1
 1103.5 1819 l 1,39,-1
 464.5 1819 l 1,36,-1
EndSplineSet
Validated: 37
EndChar

StartChar: Ccedilla
Encoding: 199 199 131
Width: 1183
VWidth: 3072
GlyphClass: 1
Flags: W
LayerCount: 2
Fore
SplineSet
464.5 -616 m 1,0,-1
 464.5 -485 l 1,1,-1
 718.5 -485 l 1,2,3
 718.5 -488 718.5 -488 718.5 -616 c 1,4,-1
 464.5 -616 l 1,0,-1
335.5 -485 m 1,5,-1
 335.5 -360 l 1,6,7
 336.5 -360 336.5 -360 464.5 -360 c 1,8,-1
 464.5 -485 l 1,9,-1
 335.5 -485 l 1,5,-1
718.5 -485 m 1,10,11
 718.5 -488 718.5 -488 718.5 -232 c 1,12,13
 718.5 -232 718.5 -232 847.5 -232 c 1,14,-1
 847.5 -485 l 1,15,-1
 718.5 -485 l 1,10,11
464.5 -232 m 1,16,-1
 464.5 -101 l 1,17,-1
 718.5 -101 l 1,18,19
 718.5 -104 718.5 -104 718.5 -232 c 1,20,-1
 464.5 -232 l 1,16,-1
335.5 -101 m 1,21,-1
 335.5 24 l 1,22,23
 335.5 24 335.5 24 847.5 24 c 1,24,-1
 847.5 -101 l 1,25,-1
 335.5 -101 l 1,21,-1
847.5 24 m 1,26,-1
 847.5 152 l 1,27,28
 848.5 152 848.5 152 976.5 152 c 1,29,-1
 976.5 24 l 1,30,-1
 847.5 24 l 1,26,-1
206.5 24 m 1,31,-1
 206.5 152 l 1,32,-1
 335.5 152 l 1,33,-1
 335.5 24 l 1,34,-1
 206.5 24 l 1,31,-1
976.5 152 m 1,35,-1
 976.5 408 l 1,36,-1
 1103.5 408 l 1,37,-1
 1103.5 152 l 1,38,-1
 976.5 152 l 1,35,-1
976.5 1435 m 1,39,40
 976.5 1432 976.5 1432 976.5 1688 c 1,41,-1
 1103.5 1688 l 1,42,-1
 1103.5 1435 l 1,43,-1
 976.5 1435 l 1,39,40
79.5 152 m 1,44,-1
 79.5 1688 l 1,45,-1
 206.5 1688 l 1,46,-1
 206.5 152 l 1,47,-1
 79.5 152 l 1,44,-1
847.5 1688 m 1,48,-1
 847.5 1819 l 1,49,50
 848.5 1819 848.5 1819 976.5 1819 c 1,51,52
 976.5 1816 976.5 1816 976.5 1688 c 1,53,-1
 847.5 1688 l 1,48,-1
206.5 1688 m 1,54,-1
 206.5 1819 l 1,55,-1
 335.5 1819 l 1,56,57
 335.5 1816 335.5 1816 335.5 1688 c 1,58,-1
 206.5 1688 l 1,54,-1
335.5 1819 m 1,59,-1
 335.5 1944 l 1,60,61
 335.5 1944 335.5 1944 847.5 1944 c 1,62,-1
 847.5 1819 l 1,63,-1
 335.5 1819 l 1,59,-1
EndSplineSet
Validated: 37
EndChar

StartChar: Egrave
Encoding: 200 200 132
Width: 1183
VWidth: 3072
GlyphClass: 1
Flags: W
LayerCount: 2
Fore
SplineSet
206.5 -101 m 1,0,-1
 206.5 24 l 1,1,-1
 1103.5 24 l 1,2,-1
 1103.5 -101 l 1,3,-1
 206.5 -101 l 1,0,-1
206.5 792 m 1,4,-1
 206.5 1051 l 1,5,-1
 847.5 1051 l 1,6,-1
 847.5 792 l 1,7,-1
 206.5 792 l 1,4,-1
79.5 -101 m 1,8,-1
 79.5 1819 l 1,9,-1
 206.5 1819 l 1,10,-1
 206.5 -101 l 1,11,-1
 79.5 -101 l 1,8,-1
79.5 1819 m 1,12,-1
 79.5 1944 l 1,13,-1
 1103.5 1944 l 1,14,-1
 1103.5 1819 l 1,15,-1
 79.5 1819 l 1,12,-1
591.5 2072 m 1,16,-1
 591.5 2200 l 1,17,-1
 718.5 2200 l 1,18,-1
 718.5 2072 l 1,19,-1
 591.5 2072 l 1,16,-1
464.5 2072 m 1,20,-1
 464.5 2328 l 1,21,-1
 591.5 2328 l 1,22,-1
 591.5 2072 l 1,23,-1
 464.5 2072 l 1,20,-1
335.5 2200 m 1,24,-1
 335.5 2456 l 1,25,26
 336.5 2456 336.5 2456 464.5 2456 c 1,27,-1
 464.5 2200 l 1,28,-1
 335.5 2200 l 1,24,-1
EndSplineSet
Validated: 5
EndChar

StartChar: Eacute
Encoding: 201 201 133
Width: 1183
VWidth: 3072
GlyphClass: 1
Flags: W
LayerCount: 2
Fore
SplineSet
206.5 -101 m 1,0,-1
 206.5 24 l 1,1,-1
 1103.5 24 l 1,2,-1
 1103.5 -101 l 1,3,-1
 206.5 -101 l 1,0,-1
206.5 792 m 1,4,-1
 206.5 1051 l 1,5,-1
 847.5 1051 l 1,6,-1
 847.5 792 l 1,7,-1
 206.5 792 l 1,4,-1
79.5 -101 m 1,8,-1
 79.5 1819 l 1,9,-1
 206.5 1819 l 1,10,-1
 206.5 -101 l 1,11,-1
 79.5 -101 l 1,8,-1
79.5 1819 m 1,12,-1
 79.5 1944 l 1,13,-1
 1103.5 1944 l 1,14,-1
 1103.5 1819 l 1,15,-1
 79.5 1819 l 1,12,-1
464.5 2072 m 1,16,-1
 464.5 2200 l 1,17,-1
 591.5 2200 l 1,18,-1
 591.5 2072 l 1,19,-1
 464.5 2072 l 1,16,-1
591.5 2072 m 1,20,-1
 591.5 2328 l 1,21,-1
 718.5 2328 l 1,22,-1
 718.5 2072 l 1,23,-1
 591.5 2072 l 1,20,-1
718.5 2200 m 1,24,-1
 718.5 2456 l 1,25,26
 718.5 2456 718.5 2456 847.5 2456 c 1,27,-1
 847.5 2200 l 1,28,-1
 718.5 2200 l 1,24,-1
EndSplineSet
Validated: 5
EndChar

StartChar: Ecircumflex
Encoding: 202 202 134
Width: 1183
VWidth: 3072
GlyphClass: 1
Flags: W
LayerCount: 2
Fore
SplineSet
206.5 -101 m 1,0,-1
 206.5 24 l 1,1,-1
 1103.5 24 l 1,2,-1
 1103.5 -101 l 1,3,-1
 206.5 -101 l 1,0,-1
206.5 792 m 1,4,-1
 206.5 1051 l 1,5,-1
 847.5 1051 l 1,6,-1
 847.5 792 l 1,7,-1
 206.5 792 l 1,4,-1
79.5 -101 m 1,8,-1
 79.5 1819 l 1,9,-1
 206.5 1819 l 1,10,-1
 206.5 -101 l 1,11,-1
 79.5 -101 l 1,8,-1
79.5 1819 m 1,12,-1
 79.5 1944 l 1,13,-1
 1103.5 1944 l 1,14,-1
 1103.5 1819 l 1,15,-1
 79.5 1819 l 1,12,-1
847.5 2072 m 1,16,-1
 847.5 2200 l 1,17,18
 848.5 2200 848.5 2200 976.5 2200 c 1,19,-1
 976.5 2072 l 1,20,-1
 847.5 2072 l 1,16,-1
206.5 2072 m 1,21,-1
 206.5 2200 l 1,22,-1
 335.5 2200 l 1,23,-1
 335.5 2072 l 1,24,-1
 206.5 2072 l 1,21,-1
718.5 2200 m 1,25,-1
 718.5 2328 l 1,26,27
 718.5 2328 718.5 2328 847.5 2328 c 1,28,-1
 847.5 2200 l 1,29,-1
 718.5 2200 l 1,25,-1
335.5 2200 m 1,30,-1
 335.5 2328 l 1,31,32
 336.5 2328 336.5 2328 464.5 2328 c 1,33,-1
 464.5 2200 l 1,34,-1
 335.5 2200 l 1,30,-1
464.5 2328 m 1,35,-1
 464.5 2456 l 1,36,-1
 718.5 2456 l 1,37,-1
 718.5 2328 l 1,38,-1
 464.5 2328 l 1,35,-1
EndSplineSet
Validated: 5
EndChar

StartChar: Edieresis
Encoding: 203 203 135
Width: 1183
VWidth: 3072
GlyphClass: 1
Flags: W
LayerCount: 2
Fore
SplineSet
206.5 -101 m 1,0,-1
 206.5 24 l 1,1,-1
 1103.5 24 l 1,2,-1
 1103.5 -101 l 1,3,-1
 206.5 -101 l 1,0,-1
206.5 792 m 1,4,-1
 206.5 1051 l 1,5,-1
 847.5 1051 l 1,6,-1
 847.5 792 l 1,7,-1
 206.5 792 l 1,4,-1
79.5 -101 m 1,8,-1
 79.5 1819 l 1,9,-1
 206.5 1819 l 1,10,-1
 206.5 -101 l 1,11,-1
 79.5 -101 l 1,8,-1
79.5 1819 m 1,12,-1
 79.5 1944 l 1,13,-1
 1103.5 1944 l 1,14,-1
 1103.5 1819 l 1,15,-1
 79.5 1819 l 1,12,-1
718.5 2072 m 1,16,-1
 718.5 2328 l 1,17,-1
 976.5 2328 l 1,18,-1
 976.5 2072 l 1,19,-1
 718.5 2072 l 1,16,-1
206.5 2072 m 1,20,-1
 206.5 2328 l 1,21,-1
 464.5 2328 l 1,22,-1
 464.5 2072 l 1,23,-1
 206.5 2072 l 1,20,-1
EndSplineSet
Validated: 5
EndChar

StartChar: Igrave
Encoding: 204 204 136
Width: 1183
VWidth: 3072
GlyphClass: 1
Flags: W
LayerCount: 2
Fore
SplineSet
647.5 -101 m 1,0,-1
 647.5 24 l 1,1,-1
 1103.5 24 l 1,2,-1
 1103.5 -101 l 1,3,-1
 647.5 -101 l 1,0,-1
79.5 -101 m 1,4,-1
 79.5 24 l 1,5,-1
 523.5 24 l 1,6,-1
 523.5 -101 l 1,7,-1
 79.5 -101 l 1,4,-1
523.5 -101 m 1,8,-1
 523.5 1819 l 1,9,-1
 647.5 1819 l 1,10,-1
 647.5 -101 l 1,11,-1
 523.5 -101 l 1,8,-1
79.5 1819 m 1,12,-1
 79.5 1944 l 1,13,-1
 1103.5 1944 l 1,14,-1
 1103.5 1819 l 1,15,-1
 79.5 1819 l 1,12,-1
591.5 2072 m 1,16,-1
 591.5 2200 l 1,17,-1
 718.5 2200 l 1,18,-1
 718.5 2072 l 1,19,-1
 591.5 2072 l 1,16,-1
464.5 2072 m 1,20,-1
 464.5 2328 l 1,21,-1
 591.5 2328 l 1,22,-1
 591.5 2072 l 1,23,-1
 464.5 2072 l 1,20,-1
335.5 2200 m 1,24,-1
 335.5 2456 l 1,25,26
 336.5 2456 336.5 2456 464.5 2456 c 1,27,-1
 464.5 2200 l 1,28,-1
 335.5 2200 l 1,24,-1
EndSplineSet
Validated: 5
EndChar

StartChar: Iacute
Encoding: 205 205 137
Width: 1183
VWidth: 3072
GlyphClass: 1
Flags: W
LayerCount: 2
Fore
SplineSet
658.5 -101 m 1,0,-1
 658.5 24 l 1,1,2
 661.5 24 661.5 24 1103.5 24 c 1,3,-1
 1103.5 -101 l 1,4,-1
 658.5 -101 l 1,0,-1
79.5 -101 m 1,5,-1
 79.5 24 l 1,6,-1
 523.5 24 l 1,7,-1
 523.5 -101 l 1,8,-1
 79.5 -101 l 1,5,-1
523.5 -101 m 1,9,-1
 523.5 1819 l 1,10,11
 524.5 1819 524.5 1819 658.5 1819 c 1,12,-1
 658.5 -101 l 1,13,-1
 523.5 -101 l 1,9,-1
79.5 1819 m 1,14,-1
 79.5 1944 l 1,15,-1
 1103.5 1944 l 1,16,-1
 1103.5 1819 l 1,17,-1
 79.5 1819 l 1,14,-1
464.5 2072 m 1,18,-1
 464.5 2200 l 1,19,-1
 591.5 2200 l 1,20,-1
 591.5 2072 l 1,21,-1
 464.5 2072 l 1,18,-1
591.5 2072 m 1,22,-1
 591.5 2328 l 1,23,-1
 718.5 2328 l 1,24,-1
 718.5 2072 l 1,25,-1
 591.5 2072 l 1,22,-1
718.5 2200 m 1,26,-1
 718.5 2456 l 1,27,28
 718.5 2456 718.5 2456 847.5 2456 c 1,29,-1
 847.5 2200 l 1,30,-1
 718.5 2200 l 1,26,-1
EndSplineSet
Validated: 5
EndChar

StartChar: Icircumflex
Encoding: 206 206 138
Width: 1183
VWidth: 3072
GlyphClass: 1
Flags: W
LayerCount: 2
Fore
SplineSet
658.5 -101 m 1,0,-1
 658.5 24 l 1,1,2
 661.5 24 661.5 24 1103.5 24 c 1,3,-1
 1103.5 -101 l 1,4,-1
 658.5 -101 l 1,0,-1
79.5 -101 m 1,5,-1
 79.5 24 l 1,6,-1
 523.5 24 l 1,7,-1
 523.5 -101 l 1,8,-1
 79.5 -101 l 1,5,-1
523.5 -101 m 1,9,-1
 523.5 1819 l 1,10,11
 524.5 1819 524.5 1819 658.5 1819 c 1,12,-1
 658.5 -101 l 1,13,-1
 523.5 -101 l 1,9,-1
79.5 1819 m 1,14,-1
 79.5 1944 l 1,15,-1
 1103.5 1944 l 1,16,-1
 1103.5 1819 l 1,17,-1
 79.5 1819 l 1,14,-1
847.5 2072 m 1,18,-1
 847.5 2200 l 1,19,20
 848.5 2200 848.5 2200 976.5 2200 c 1,21,-1
 976.5 2072 l 1,22,-1
 847.5 2072 l 1,18,-1
206.5 2072 m 1,23,-1
 206.5 2200 l 1,24,-1
 335.5 2200 l 1,25,-1
 335.5 2072 l 1,26,-1
 206.5 2072 l 1,23,-1
718.5 2200 m 1,27,-1
 718.5 2328 l 1,28,29
 718.5 2328 718.5 2328 847.5 2328 c 1,30,-1
 847.5 2200 l 1,31,-1
 718.5 2200 l 1,27,-1
335.5 2200 m 1,32,-1
 335.5 2328 l 1,33,34
 336.5 2328 336.5 2328 464.5 2328 c 1,35,-1
 464.5 2200 l 1,36,-1
 335.5 2200 l 1,32,-1
464.5 2328 m 1,37,-1
 464.5 2456 l 1,38,-1
 718.5 2456 l 1,39,-1
 718.5 2328 l 1,40,-1
 464.5 2328 l 1,37,-1
EndSplineSet
Validated: 5
EndChar

StartChar: Idieresis
Encoding: 207 207 139
Width: 1183
VWidth: 3072
GlyphClass: 1
Flags: W
LayerCount: 2
Fore
SplineSet
658.5 -101 m 1,0,-1
 658.5 24 l 1,1,2
 661.5 24 661.5 24 1103.5 24 c 1,3,-1
 1103.5 -101 l 1,4,-1
 658.5 -101 l 1,0,-1
79.5 -101 m 1,5,-1
 79.5 24 l 1,6,-1
 523.5 24 l 1,7,-1
 523.5 -101 l 1,8,-1
 79.5 -101 l 1,5,-1
523.5 -101 m 1,9,-1
 523.5 1819 l 1,10,11
 524.5 1819 524.5 1819 658.5 1819 c 1,12,-1
 658.5 -101 l 1,13,-1
 523.5 -101 l 1,9,-1
79.5 1819 m 1,14,-1
 79.5 1944 l 1,15,-1
 1103.5 1944 l 1,16,-1
 1103.5 1819 l 1,17,-1
 79.5 1819 l 1,14,-1
718.5 2072 m 1,18,-1
 718.5 2328 l 1,19,-1
 976.5 2328 l 1,20,-1
 976.5 2072 l 1,21,-1
 718.5 2072 l 1,18,-1
206.5 2072 m 1,22,-1
 206.5 2328 l 1,23,-1
 464.5 2328 l 1,24,-1
 464.5 2072 l 1,25,-1
 206.5 2072 l 1,22,-1
EndSplineSet
Validated: 5
EndChar

StartChar: Eth
Encoding: 208 208 140
Width: 1183
VWidth: 3072
GlyphClass: 1
Flags: W
LayerCount: 2
Fore
SplineSet
464.5 -101 m 1,0,-1
 464.5 24 l 1,1,-1
 718.5 24 l 1,2,-1
 718.5 -101 l 1,3,-1
 464.5 -101 l 1,0,-1
718.5 24 m 1,4,-1
 718.5 152 l 1,5,6
 718.5 152 718.5 152 847.5 152 c 1,7,-1
 847.5 24 l 1,8,-1
 718.5 24 l 1,4,-1
847.5 152 m 1,9,-1
 847.5 408 l 1,10,11
 848.5 408 848.5 408 976.5 408 c 1,12,-1
 976.5 152 l 1,13,-1
 847.5 152 l 1,9,-1
464.5 792 m 1,14,-1
 464.5 1051 l 1,15,-1
 718.5 1051 l 1,16,-1
 718.5 792 l 1,17,-1
 464.5 792 l 1,14,-1
79.5 792 m 1,18,-1
 79.5 1051 l 1,19,-1
 335.5 1051 l 1,20,-1
 335.5 792 l 1,21,-1
 79.5 792 l 1,18,-1
976.5 408 m 1,22,-1
 976.5 1435 l 1,23,-1
 1103.5 1435 l 1,24,-1
 1103.5 408 l 1,25,-1
 976.5 408 l 1,22,-1
847.5 1435 m 1,26,27
 847.5 1432 847.5 1432 847.5 1688 c 1,28,29
 848.5 1688 848.5 1688 976.5 1688 c 1,30,-1
 976.5 1435 l 1,31,-1
 847.5 1435 l 1,26,27
718.5 1688 m 1,32,-1
 718.5 1819 l 1,33,34
 718.5 1819 718.5 1819 847.5 1819 c 1,35,36
 847.5 1816 847.5 1816 847.5 1688 c 1,37,-1
 718.5 1688 l 1,32,-1
335.5 -101 m 1,38,-1
 335.5 1819 l 1,39,40
 336.5 1819 336.5 1819 464.5 1819 c 1,41,-1
 464.5 -101 l 1,42,-1
 335.5 -101 l 1,38,-1
335.5 1819 m 1,43,-1
 335.5 1944 l 1,44,45
 334.5 1944 334.5 1944 718.5 1944 c 1,46,-1
 718.5 1819 l 1,47,-1
 335.5 1819 l 1,43,-1
EndSplineSet
Validated: 37
EndChar

StartChar: Ntilde
Encoding: 209 209 141
Width: 1183
VWidth: 3072
GlyphClass: 1
Flags: W
LayerCount: 2
Fore
SplineSet
847.5 152 m 1,0,-1
 847.5 408 l 1,1,2
 848.5 408 848.5 408 976.5 408 c 1,3,-1
 976.5 152 l 1,4,-1
 847.5 152 l 1,0,-1
718.5 408 m 1,5,-1
 718.5 664 l 1,6,7
 718.5 664 718.5 664 847.5 664 c 1,8,-1
 847.5 408 l 1,9,-1
 718.5 408 l 1,5,-1
591.5 664 m 1,10,-1
 591.5 920 l 1,11,-1
 718.5 920 l 1,12,-1
 718.5 664 l 1,13,-1
 591.5 664 l 1,10,-1
464.5 920 m 1,14,-1
 464.5 1176 l 1,15,-1
 591.5 1176 l 1,16,-1
 591.5 920 l 1,17,-1
 464.5 920 l 1,14,-1
335.5 1176 m 1,18,-1
 335.5 1435 l 1,19,20
 336.5 1435 336.5 1435 464.5 1435 c 1,21,-1
 464.5 1176 l 1,22,-1
 335.5 1176 l 1,18,-1
206.5 1435 m 1,23,24
 206.5 1432 206.5 1432 206.5 1688 c 1,25,-1
 335.5 1688 l 1,26,-1
 335.5 1435 l 1,27,-1
 206.5 1435 l 1,23,24
976.5 -101 m 1,28,-1
 976.5 1944 l 1,29,-1
 1103.5 1944 l 1,30,-1
 1103.5 -101 l 1,31,-1
 976.5 -101 l 1,28,-1
79.5 -101 m 1,32,-1
 79.5 1944 l 1,33,-1
 206.5 1944 l 1,34,-1
 206.5 -101 l 1,35,-1
 79.5 -101 l 1,32,-1
718.5 2072 m 1,36,-1
 718.5 2200 l 1,37,-1
 976.5 2200 l 1,38,-1
 976.5 2072 l 1,39,-1
 718.5 2072 l 1,36,-1
464.5 2200 m 1,40,-1
 464.5 2328 l 1,41,-1
 718.5 2328 l 1,42,-1
 718.5 2200 l 1,43,-1
 464.5 2200 l 1,40,-1
79.5 2072 m 1,44,-1
 79.5 2328 l 1,45,-1
 206.5 2328 l 1,46,-1
 206.5 2072 l 1,47,-1
 79.5 2072 l 1,44,-1
976.5 2200 m 1,48,-1
 976.5 2456 l 1,49,-1
 1103.5 2456 l 1,50,-1
 1103.5 2200 l 1,51,-1
 976.5 2200 l 1,48,-1
206.5 2328 m 1,52,-1
 206.5 2456 l 1,53,-1
 464.5 2456 l 1,54,-1
 464.5 2328 l 1,55,-1
 206.5 2328 l 1,52,-1
EndSplineSet
Validated: 37
EndChar

StartChar: Ograve
Encoding: 210 210 142
Width: 1183
VWidth: 3072
GlyphClass: 1
Flags: W
LayerCount: 2
Fore
SplineSet
335.5 -101 m 1,0,-1
 335.5 24 l 1,1,2
 335.5 24 335.5 24 847.5 24 c 1,3,-1
 847.5 -101 l 1,4,-1
 335.5 -101 l 1,0,-1
847.5 24 m 1,5,-1
 847.5 152 l 1,6,7
 848.5 152 848.5 152 976.5 152 c 1,8,-1
 976.5 24 l 1,9,-1
 847.5 24 l 1,5,-1
206.5 24 m 1,10,-1
 206.5 152 l 1,11,-1
 335.5 152 l 1,12,-1
 335.5 24 l 1,13,-1
 206.5 24 l 1,10,-1
976.5 152 m 1,14,-1
 976.5 1688 l 1,15,-1
 1103.5 1688 l 1,16,-1
 1103.5 152 l 1,17,-1
 976.5 152 l 1,14,-1
79.5 152 m 1,18,-1
 79.5 1688 l 1,19,-1
 206.5 1688 l 1,20,-1
 206.5 152 l 1,21,-1
 79.5 152 l 1,18,-1
847.5 1688 m 1,22,-1
 847.5 1819 l 1,23,24
 848.5 1819 848.5 1819 976.5 1819 c 1,25,26
 976.5 1816 976.5 1816 976.5 1688 c 1,27,-1
 847.5 1688 l 1,22,-1
206.5 1688 m 1,28,-1
 206.5 1819 l 1,29,-1
 335.5 1819 l 1,30,31
 335.5 1816 335.5 1816 335.5 1688 c 1,32,-1
 206.5 1688 l 1,28,-1
335.5 1819 m 1,33,-1
 335.5 1944 l 1,34,35
 335.5 1944 335.5 1944 847.5 1944 c 1,36,-1
 847.5 1819 l 1,37,-1
 335.5 1819 l 1,33,-1
591.5 2072 m 1,38,-1
 591.5 2200 l 1,39,-1
 718.5 2200 l 1,40,-1
 718.5 2072 l 1,41,-1
 591.5 2072 l 1,38,-1
464.5 2072 m 1,42,-1
 464.5 2328 l 1,43,-1
 591.5 2328 l 1,44,-1
 591.5 2072 l 1,45,-1
 464.5 2072 l 1,42,-1
335.5 2200 m 1,46,-1
 335.5 2456 l 1,47,48
 336.5 2456 336.5 2456 464.5 2456 c 1,49,-1
 464.5 2200 l 1,50,-1
 335.5 2200 l 1,46,-1
EndSplineSet
Validated: 5
EndChar

StartChar: Oacute
Encoding: 211 211 143
Width: 1183
VWidth: 3072
GlyphClass: 1
Flags: W
LayerCount: 2
Fore
SplineSet
335.5 -101 m 1,0,-1
 335.5 24 l 1,1,2
 335.5 24 335.5 24 847.5 24 c 1,3,-1
 847.5 -101 l 1,4,-1
 335.5 -101 l 1,0,-1
847.5 24 m 1,5,-1
 847.5 152 l 1,6,7
 848.5 152 848.5 152 976.5 152 c 1,8,-1
 976.5 24 l 1,9,-1
 847.5 24 l 1,5,-1
206.5 24 m 1,10,-1
 206.5 152 l 1,11,-1
 335.5 152 l 1,12,-1
 335.5 24 l 1,13,-1
 206.5 24 l 1,10,-1
976.5 152 m 1,14,-1
 976.5 1688 l 1,15,-1
 1103.5 1688 l 1,16,-1
 1103.5 152 l 1,17,-1
 976.5 152 l 1,14,-1
79.5 152 m 1,18,-1
 79.5 1688 l 1,19,-1
 206.5 1688 l 1,20,-1
 206.5 152 l 1,21,-1
 79.5 152 l 1,18,-1
847.5 1688 m 1,22,-1
 847.5 1819 l 1,23,24
 848.5 1819 848.5 1819 976.5 1819 c 1,25,26
 976.5 1816 976.5 1816 976.5 1688 c 1,27,-1
 847.5 1688 l 1,22,-1
206.5 1688 m 1,28,-1
 206.5 1819 l 1,29,-1
 335.5 1819 l 1,30,31
 335.5 1816 335.5 1816 335.5 1688 c 1,32,-1
 206.5 1688 l 1,28,-1
335.5 1819 m 1,33,-1
 335.5 1944 l 1,34,35
 335.5 1944 335.5 1944 847.5 1944 c 1,36,-1
 847.5 1819 l 1,37,-1
 335.5 1819 l 1,33,-1
464.5 2072 m 1,38,-1
 464.5 2200 l 1,39,-1
 591.5 2200 l 1,40,-1
 591.5 2072 l 1,41,-1
 464.5 2072 l 1,38,-1
591.5 2072 m 1,42,-1
 591.5 2328 l 1,43,-1
 718.5 2328 l 1,44,-1
 718.5 2072 l 1,45,-1
 591.5 2072 l 1,42,-1
718.5 2200 m 1,46,-1
 718.5 2456 l 1,47,48
 718.5 2456 718.5 2456 847.5 2456 c 1,49,-1
 847.5 2200 l 1,50,-1
 718.5 2200 l 1,46,-1
EndSplineSet
Validated: 5
EndChar

StartChar: Ocircumflex
Encoding: 212 212 144
Width: 1183
VWidth: 3072
GlyphClass: 1
Flags: W
LayerCount: 2
Fore
SplineSet
335.5 -101 m 1,0,-1
 335.5 24 l 1,1,2
 335.5 24 335.5 24 847.5 24 c 1,3,-1
 847.5 -101 l 1,4,-1
 335.5 -101 l 1,0,-1
847.5 24 m 1,5,-1
 847.5 152 l 1,6,7
 848.5 152 848.5 152 976.5 152 c 1,8,-1
 976.5 24 l 1,9,-1
 847.5 24 l 1,5,-1
206.5 24 m 1,10,-1
 206.5 152 l 1,11,-1
 335.5 152 l 1,12,-1
 335.5 24 l 1,13,-1
 206.5 24 l 1,10,-1
976.5 152 m 1,14,-1
 976.5 1688 l 1,15,-1
 1103.5 1688 l 1,16,-1
 1103.5 152 l 1,17,-1
 976.5 152 l 1,14,-1
79.5 152 m 1,18,-1
 79.5 1688 l 1,19,-1
 206.5 1688 l 1,20,-1
 206.5 152 l 1,21,-1
 79.5 152 l 1,18,-1
847.5 1688 m 1,22,-1
 847.5 1819 l 1,23,24
 848.5 1819 848.5 1819 976.5 1819 c 1,25,26
 976.5 1816 976.5 1816 976.5 1688 c 1,27,-1
 847.5 1688 l 1,22,-1
206.5 1688 m 1,28,-1
 206.5 1819 l 1,29,-1
 335.5 1819 l 1,30,31
 335.5 1816 335.5 1816 335.5 1688 c 1,32,-1
 206.5 1688 l 1,28,-1
335.5 1819 m 1,33,-1
 335.5 1944 l 1,34,35
 335.5 1944 335.5 1944 847.5 1944 c 1,36,-1
 847.5 1819 l 1,37,-1
 335.5 1819 l 1,33,-1
847.5 2072 m 1,38,-1
 847.5 2200 l 1,39,40
 848.5 2200 848.5 2200 976.5 2200 c 1,41,-1
 976.5 2072 l 1,42,-1
 847.5 2072 l 1,38,-1
206.5 2072 m 1,43,-1
 206.5 2200 l 1,44,-1
 335.5 2200 l 1,45,-1
 335.5 2072 l 1,46,-1
 206.5 2072 l 1,43,-1
718.5 2200 m 1,47,-1
 718.5 2328 l 1,48,49
 718.5 2328 718.5 2328 847.5 2328 c 1,50,-1
 847.5 2200 l 1,51,-1
 718.5 2200 l 1,47,-1
335.5 2200 m 1,52,-1
 335.5 2328 l 1,53,54
 336.5 2328 336.5 2328 464.5 2328 c 1,55,-1
 464.5 2200 l 1,56,-1
 335.5 2200 l 1,52,-1
464.5 2328 m 1,57,-1
 464.5 2456 l 1,58,-1
 718.5 2456 l 1,59,-1
 718.5 2328 l 1,60,-1
 464.5 2328 l 1,57,-1
EndSplineSet
Validated: 5
EndChar

StartChar: Otilde
Encoding: 213 213 145
Width: 1183
VWidth: 3072
GlyphClass: 1
Flags: W
LayerCount: 2
Fore
SplineSet
335.5 -101 m 1,0,-1
 335.5 24 l 1,1,2
 335.5 24 335.5 24 847.5 24 c 1,3,-1
 847.5 -101 l 1,4,-1
 335.5 -101 l 1,0,-1
847.5 24 m 1,5,-1
 847.5 152 l 1,6,7
 848.5 152 848.5 152 976.5 152 c 1,8,-1
 976.5 24 l 1,9,-1
 847.5 24 l 1,5,-1
206.5 24 m 1,10,-1
 206.5 152 l 1,11,-1
 335.5 152 l 1,12,-1
 335.5 24 l 1,13,-1
 206.5 24 l 1,10,-1
976.5 152 m 1,14,-1
 976.5 1688 l 1,15,-1
 1103.5 1688 l 1,16,-1
 1103.5 152 l 1,17,-1
 976.5 152 l 1,14,-1
79.5 152 m 1,18,-1
 79.5 1688 l 1,19,-1
 206.5 1688 l 1,20,-1
 206.5 152 l 1,21,-1
 79.5 152 l 1,18,-1
847.5 1688 m 1,22,-1
 847.5 1819 l 1,23,24
 848.5 1819 848.5 1819 976.5 1819 c 1,25,26
 976.5 1816 976.5 1816 976.5 1688 c 1,27,-1
 847.5 1688 l 1,22,-1
206.5 1688 m 1,28,-1
 206.5 1819 l 1,29,-1
 335.5 1819 l 1,30,31
 335.5 1816 335.5 1816 335.5 1688 c 1,32,-1
 206.5 1688 l 1,28,-1
335.5 1819 m 1,33,-1
 335.5 1944 l 1,34,35
 335.5 1944 335.5 1944 847.5 1944 c 1,36,-1
 847.5 1819 l 1,37,-1
 335.5 1819 l 1,33,-1
718.5 2072 m 1,38,-1
 718.5 2200 l 1,39,-1
 976.5 2200 l 1,40,-1
 976.5 2072 l 1,41,-1
 718.5 2072 l 1,38,-1
464.5 2200 m 1,42,-1
 464.5 2328 l 1,43,-1
 718.5 2328 l 1,44,-1
 718.5 2200 l 1,45,-1
 464.5 2200 l 1,42,-1
79.5 2072 m 1,46,-1
 79.5 2328 l 1,47,-1
 206.5 2328 l 1,48,-1
 206.5 2072 l 1,49,-1
 79.5 2072 l 1,46,-1
976.5 2200 m 1,50,-1
 976.5 2456 l 1,51,-1
 1103.5 2456 l 1,52,-1
 1103.5 2200 l 1,53,-1
 976.5 2200 l 1,50,-1
206.5 2328 m 1,54,-1
 206.5 2456 l 1,55,-1
 464.5 2456 l 1,56,-1
 464.5 2328 l 1,57,-1
 206.5 2328 l 1,54,-1
EndSplineSet
Validated: 5
EndChar

StartChar: Odieresis
Encoding: 214 214 146
Width: 1183
VWidth: 3072
GlyphClass: 1
Flags: W
LayerCount: 2
Fore
SplineSet
335.5 -101 m 1,0,-1
 335.5 24 l 1,1,2
 335.5 24 335.5 24 847.5 24 c 1,3,-1
 847.5 -101 l 1,4,-1
 335.5 -101 l 1,0,-1
847.5 24 m 1,5,-1
 847.5 152 l 1,6,7
 848.5 152 848.5 152 976.5 152 c 1,8,-1
 976.5 24 l 1,9,-1
 847.5 24 l 1,5,-1
206.5 24 m 1,10,-1
 206.5 152 l 1,11,-1
 335.5 152 l 1,12,-1
 335.5 24 l 1,13,-1
 206.5 24 l 1,10,-1
976.5 152 m 1,14,-1
 976.5 1688 l 1,15,-1
 1103.5 1688 l 1,16,-1
 1103.5 152 l 1,17,-1
 976.5 152 l 1,14,-1
79.5 152 m 1,18,-1
 79.5 1688 l 1,19,-1
 206.5 1688 l 1,20,-1
 206.5 152 l 1,21,-1
 79.5 152 l 1,18,-1
847.5 1688 m 1,22,-1
 847.5 1819 l 1,23,24
 848.5 1819 848.5 1819 976.5 1819 c 1,25,26
 976.5 1816 976.5 1816 976.5 1688 c 1,27,-1
 847.5 1688 l 1,22,-1
206.5 1688 m 1,28,-1
 206.5 1819 l 1,29,-1
 335.5 1819 l 1,30,31
 335.5 1816 335.5 1816 335.5 1688 c 1,32,-1
 206.5 1688 l 1,28,-1
335.5 1819 m 1,33,-1
 335.5 1944 l 1,34,35
 335.5 1944 335.5 1944 847.5 1944 c 1,36,-1
 847.5 1819 l 1,37,-1
 335.5 1819 l 1,33,-1
718.5 2072 m 1,38,-1
 718.5 2328 l 1,39,-1
 976.5 2328 l 1,40,-1
 976.5 2072 l 1,41,-1
 718.5 2072 l 1,38,-1
206.5 2072 m 1,42,-1
 206.5 2328 l 1,43,-1
 464.5 2328 l 1,44,-1
 464.5 2072 l 1,45,-1
 206.5 2072 l 1,42,-1
EndSplineSet
Validated: 5
EndChar

StartChar: multiply
Encoding: 215 215 147
Width: 927
VWidth: 3072
GlyphClass: 1
Flags: W
LayerCount: 2
Fore
SplineSet
718.5 536 m 1,0,-1
 718.5 664 l 1,1,2
 718.5 664 718.5 664 847.5 664 c 1,3,-1
 847.5 536 l 1,4,-1
 718.5 536 l 1,0,-1
79.5 536 m 1,5,-1
 79.5 664 l 1,6,-1
 204.5 664 l 1,7,-1
 204.5 536 l 1,8,-1
 79.5 536 l 1,5,-1
588.5 664 m 1,9,-1
 588.5 792 l 1,10,11
 591.5 792 591.5 792 718.5 792 c 1,12,-1
 718.5 664 l 1,13,-1
 588.5 664 l 1,9,-1
204.5 664 m 1,14,-1
 204.5 792 l 1,15,16
 207.5 792 207.5 792 335.5 792 c 1,17,-1
 335.5 664 l 1,18,-1
 204.5 664 l 1,14,-1
335.5 792 m 1,19,-1
 335.5 1051 l 1,20,-1
 588.5 1051 l 1,21,-1
 588.5 792 l 1,22,-1
 335.5 792 l 1,19,-1
588.5 1051 m 1,23,-1
 588.5 1176 l 1,24,25
 591.5 1176 591.5 1176 718.5 1176 c 1,26,-1
 718.5 1051 l 1,27,-1
 588.5 1051 l 1,23,-1
204.5 1051 m 1,28,-1
 204.5 1176 l 1,29,30
 207.5 1176 207.5 1176 335.5 1176 c 1,31,-1
 335.5 1051 l 1,32,-1
 204.5 1051 l 1,28,-1
718.5 1176 m 1,33,-1
 718.5 1304 l 1,34,35
 718.5 1304 718.5 1304 847.5 1304 c 1,36,-1
 847.5 1176 l 1,37,-1
 718.5 1176 l 1,33,-1
79.5 1176 m 1,38,-1
 79.5 1304 l 1,39,-1
 204.5 1304 l 1,40,-1
 204.5 1176 l 1,41,-1
 79.5 1176 l 1,38,-1
EndSplineSet
Validated: 5
EndChar

StartChar: Oslash
Encoding: 216 216 148
Width: 1183
VWidth: 3072
GlyphClass: 1
Flags: W
LayerCount: 2
Fore
SplineSet
335.5 -101 m 1,0,-1
 335.5 24 l 1,1,2
 335.5 24 335.5 24 847.5 24 c 1,3,-1
 847.5 -101 l 1,4,-1
 335.5 -101 l 1,0,-1
847.5 24 m 1,5,-1
 847.5 152 l 1,6,7
 848.5 152 848.5 152 976.5 152 c 1,8,-1
 976.5 24 l 1,9,-1
 847.5 24 l 1,5,-1
79.5 -101 m 1,10,11
 79.5 -104 79.5 -104 79.5 152 c 1,12,-1
 206.5 152 l 1,13,-1
 206.5 -101 l 1,14,-1
 79.5 -101 l 1,10,11
206.5 24 m 1,15,-1
 206.5 408 l 1,16,-1
 335.5 408 l 1,17,-1
 335.5 24 l 1,18,-1
 206.5 24 l 1,15,-1
335.5 408 m 1,19,-1
 335.5 664 l 1,20,21
 336.5 664 336.5 664 464.5 664 c 1,22,-1
 464.5 408 l 1,23,-1
 335.5 408 l 1,19,-1
464.5 664 m 1,24,-1
 464.5 920 l 1,25,-1
 591.5 920 l 1,26,-1
 591.5 664 l 1,27,-1
 464.5 664 l 1,24,-1
591.5 920 m 1,28,-1
 591.5 1176 l 1,29,-1
 718.5 1176 l 1,30,-1
 718.5 920 l 1,31,-1
 591.5 920 l 1,28,-1
976.5 152 m 1,32,-1
 976.5 1435 l 1,33,-1
 1103.5 1435 l 1,34,35
 1103.5 1432 1103.5 1432 1103.5 152 c 1,36,-1
 976.5 152 l 1,32,-1
718.5 1176 m 1,37,-1
 718.5 1435 l 1,38,39
 718.5 1435 718.5 1435 847.5 1435 c 1,40,-1
 847.5 1176 l 1,41,-1
 718.5 1176 l 1,37,-1
79.5 283 m 1,42,43
 79.5 280 79.5 280 79.5 1688 c 1,44,-1
 206.5 1688 l 1,45,-1
 206.5 283 l 1,46,-1
 79.5 283 l 1,42,43
847.5 1435 m 1,47,-1
 847.5 1819 l 1,48,49
 848.5 1819 848.5 1819 976.5 1819 c 1,50,-1
 976.5 1435 l 1,51,-1
 847.5 1435 l 1,47,-1
206.5 1688 m 1,52,-1
 206.5 1819 l 1,53,-1
 335.5 1819 l 1,54,55
 335.5 1816 335.5 1816 335.5 1688 c 1,56,-1
 206.5 1688 l 1,52,-1
976.5 1688 m 1,57,-1
 976.5 1944 l 1,58,-1
 1103.5 1944 l 1,59,-1
 1103.5 1688 l 1,60,-1
 976.5 1688 l 1,57,-1
335.5 1819 m 1,61,-1
 335.5 1944 l 1,62,63
 335.5 1944 335.5 1944 847.5 1944 c 1,64,-1
 847.5 1819 l 1,65,-1
 335.5 1819 l 1,61,-1
EndSplineSet
Validated: 37
EndChar

StartChar: Ugrave
Encoding: 217 217 149
Width: 1183
VWidth: 3072
GlyphClass: 1
Flags: W
LayerCount: 2
Fore
SplineSet
335.5 -101 m 1,0,-1
 335.5 24 l 1,1,2
 335.5 24 335.5 24 847.5 24 c 1,3,-1
 847.5 -101 l 1,4,-1
 335.5 -101 l 1,0,-1
847.5 24 m 1,5,-1
 847.5 152 l 1,6,7
 848.5 152 848.5 152 976.5 152 c 1,8,-1
 976.5 24 l 1,9,-1
 847.5 24 l 1,5,-1
206.5 24 m 1,10,-1
 206.5 152 l 1,11,-1
 335.5 152 l 1,12,-1
 335.5 24 l 1,13,-1
 206.5 24 l 1,10,-1
976.5 152 m 1,14,-1
 976.5 1944 l 1,15,-1
 1103.5 1944 l 1,16,-1
 1103.5 152 l 1,17,-1
 976.5 152 l 1,14,-1
79.5 152 m 1,18,-1
 79.5 1944 l 1,19,-1
 206.5 1944 l 1,20,-1
 206.5 152 l 1,21,-1
 79.5 152 l 1,18,-1
591.5 2072 m 1,22,-1
 591.5 2200 l 1,23,-1
 718.5 2200 l 1,24,-1
 718.5 2072 l 1,25,-1
 591.5 2072 l 1,22,-1
464.5 2072 m 1,26,-1
 464.5 2328 l 1,27,-1
 591.5 2328 l 1,28,-1
 591.5 2072 l 1,29,-1
 464.5 2072 l 1,26,-1
335.5 2200 m 1,30,-1
 335.5 2456 l 1,31,32
 336.5 2456 336.5 2456 464.5 2456 c 1,33,-1
 464.5 2200 l 1,34,-1
 335.5 2200 l 1,30,-1
EndSplineSet
Validated: 5
EndChar

StartChar: Uacute
Encoding: 218 218 150
Width: 1183
VWidth: 3072
GlyphClass: 1
Flags: W
LayerCount: 2
Fore
SplineSet
335.5 -101 m 1,0,-1
 335.5 24 l 1,1,2
 335.5 24 335.5 24 847.5 24 c 1,3,-1
 847.5 -101 l 1,4,-1
 335.5 -101 l 1,0,-1
847.5 24 m 1,5,-1
 847.5 152 l 1,6,7
 848.5 152 848.5 152 976.5 152 c 1,8,-1
 976.5 24 l 1,9,-1
 847.5 24 l 1,5,-1
206.5 24 m 1,10,-1
 206.5 152 l 1,11,-1
 335.5 152 l 1,12,-1
 335.5 24 l 1,13,-1
 206.5 24 l 1,10,-1
976.5 152 m 1,14,-1
 976.5 1944 l 1,15,-1
 1103.5 1944 l 1,16,-1
 1103.5 152 l 1,17,-1
 976.5 152 l 1,14,-1
79.5 152 m 1,18,-1
 79.5 1944 l 1,19,-1
 206.5 1944 l 1,20,-1
 206.5 152 l 1,21,-1
 79.5 152 l 1,18,-1
464.5 2072 m 1,22,-1
 464.5 2200 l 1,23,-1
 591.5 2200 l 1,24,-1
 591.5 2072 l 1,25,-1
 464.5 2072 l 1,22,-1
591.5 2072 m 1,26,-1
 591.5 2328 l 1,27,-1
 718.5 2328 l 1,28,-1
 718.5 2072 l 1,29,-1
 591.5 2072 l 1,26,-1
718.5 2200 m 1,30,-1
 718.5 2456 l 1,31,32
 718.5 2456 718.5 2456 847.5 2456 c 1,33,-1
 847.5 2200 l 1,34,-1
 718.5 2200 l 1,30,-1
EndSplineSet
Validated: 5
EndChar

StartChar: Ucircumflex
Encoding: 219 219 151
Width: 1183
VWidth: 3072
GlyphClass: 1
Flags: W
LayerCount: 2
Fore
SplineSet
335.5 -101 m 1,0,-1
 335.5 24 l 1,1,2
 335.5 24 335.5 24 847.5 24 c 1,3,-1
 847.5 -101 l 1,4,-1
 335.5 -101 l 1,0,-1
847.5 24 m 1,5,-1
 847.5 152 l 1,6,7
 848.5 152 848.5 152 976.5 152 c 1,8,-1
 976.5 24 l 1,9,-1
 847.5 24 l 1,5,-1
206.5 24 m 1,10,-1
 206.5 152 l 1,11,-1
 335.5 152 l 1,12,-1
 335.5 24 l 1,13,-1
 206.5 24 l 1,10,-1
976.5 152 m 1,14,-1
 976.5 1944 l 1,15,-1
 1103.5 1944 l 1,16,-1
 1103.5 152 l 1,17,-1
 976.5 152 l 1,14,-1
79.5 152 m 1,18,-1
 79.5 1944 l 1,19,-1
 206.5 1944 l 1,20,-1
 206.5 152 l 1,21,-1
 79.5 152 l 1,18,-1
847.5 2072 m 1,22,-1
 847.5 2200 l 1,23,24
 848.5 2200 848.5 2200 976.5 2200 c 1,25,-1
 976.5 2072 l 1,26,-1
 847.5 2072 l 1,22,-1
206.5 2072 m 1,27,-1
 206.5 2200 l 1,28,-1
 335.5 2200 l 1,29,-1
 335.5 2072 l 1,30,-1
 206.5 2072 l 1,27,-1
718.5 2200 m 1,31,-1
 718.5 2328 l 1,32,33
 718.5 2328 718.5 2328 847.5 2328 c 1,34,-1
 847.5 2200 l 1,35,-1
 718.5 2200 l 1,31,-1
335.5 2200 m 1,36,-1
 335.5 2328 l 1,37,38
 336.5 2328 336.5 2328 464.5 2328 c 1,39,-1
 464.5 2200 l 1,40,-1
 335.5 2200 l 1,36,-1
464.5 2328 m 1,41,-1
 464.5 2456 l 1,42,-1
 718.5 2456 l 1,43,-1
 718.5 2328 l 1,44,-1
 464.5 2328 l 1,41,-1
EndSplineSet
Validated: 5
EndChar

StartChar: Udieresis
Encoding: 220 220 152
Width: 1183
VWidth: 3072
GlyphClass: 1
Flags: W
LayerCount: 2
Fore
SplineSet
335.5 -101 m 1,0,-1
 335.5 24 l 1,1,2
 335.5 24 335.5 24 847.5 24 c 1,3,-1
 847.5 -101 l 1,4,-1
 335.5 -101 l 1,0,-1
847.5 24 m 1,5,-1
 847.5 152 l 1,6,7
 848.5 152 848.5 152 976.5 152 c 1,8,-1
 976.5 24 l 1,9,-1
 847.5 24 l 1,5,-1
206.5 24 m 1,10,-1
 206.5 152 l 1,11,-1
 335.5 152 l 1,12,-1
 335.5 24 l 1,13,-1
 206.5 24 l 1,10,-1
976.5 152 m 1,14,-1
 976.5 1944 l 1,15,-1
 1103.5 1944 l 1,16,-1
 1103.5 152 l 1,17,-1
 976.5 152 l 1,14,-1
79.5 152 m 1,18,-1
 79.5 1944 l 1,19,-1
 206.5 1944 l 1,20,-1
 206.5 152 l 1,21,-1
 79.5 152 l 1,18,-1
718.5 2072 m 1,22,-1
 718.5 2328 l 1,23,-1
 976.5 2328 l 1,24,-1
 976.5 2072 l 1,25,-1
 718.5 2072 l 1,22,-1
206.5 2072 m 1,26,-1
 206.5 2328 l 1,27,-1
 464.5 2328 l 1,28,-1
 464.5 2072 l 1,29,-1
 206.5 2072 l 1,26,-1
EndSplineSet
Validated: 5
EndChar

StartChar: Yacute
Encoding: 221 221 153
Width: 1059
VWidth: 3072
GlyphClass: 1
Flags: W
LayerCount: 2
Fore
SplineSet
464.5 -101 m 1,0,-1
 464.5 1176 l 1,1,-1
 594.5 1176 l 1,2,-1
 594.5 -101 l 1,3,-1
 464.5 -101 l 1,0,-1
594.5 1176 m 1,4,-1
 594.5 1435 l 1,5,-1
 723.5 1435 l 1,6,-1
 723.5 1176 l 1,7,-1
 594.5 1176 l 1,4,-1
335.5 1176 m 1,8,-1
 335.5 1435 l 1,9,10
 336.5 1435 336.5 1435 464.5 1435 c 1,11,-1
 464.5 1176 l 1,12,-1
 335.5 1176 l 1,8,-1
723.5 1435 m 1,13,14
 723.5 1432 723.5 1432 723.5 1688 c 1,15,-1
 854.5 1688 l 1,16,-1
 854.5 1435 l 1,17,-1
 723.5 1435 l 1,13,14
206.5 1435 m 1,18,19
 206.5 1432 206.5 1432 206.5 1688 c 1,20,-1
 335.5 1688 l 1,21,-1
 335.5 1435 l 1,22,-1
 206.5 1435 l 1,18,19
854.5 1688 m 1,23,-1
 854.5 1944 l 1,24,-1
 979.5 1944 l 1,25,-1
 979.5 1688 l 1,26,-1
 854.5 1688 l 1,23,-1
79.5 1688 m 1,27,-1
 79.5 1944 l 1,28,-1
 206.5 1944 l 1,29,-1
 206.5 1688 l 1,30,-1
 79.5 1688 l 1,27,-1
402.5 2072 m 1,31,-1
 402.5 2200 l 1,32,33
 405.5 2200 405.5 2200 531.5 2200 c 1,34,-1
 531.5 2072 l 1,35,-1
 402.5 2072 l 1,31,-1
531.5 2072 m 1,36,-1
 531.5 2328 l 1,37,38
 532.5 2328 532.5 2328 658.5 2328 c 1,39,-1
 658.5 2072 l 1,40,-1
 531.5 2072 l 1,36,-1
658.5 2200 m 1,41,-1
 658.5 2456 l 1,42,43
 661.5 2456 661.5 2456 787.5 2456 c 1,44,-1
 787.5 2200 l 1,45,-1
 658.5 2200 l 1,41,-1
EndSplineSet
Validated: 37
EndChar

StartChar: Thorn
Encoding: 222 222 154
Width: 927
VWidth: 3072
GlyphClass: 1
Flags: W
LayerCount: 2
Fore
SplineSet
204.5 792 m 1,0,-1
 204.5 920 l 1,1,2
 207.5 920 207.5 920 718.5 920 c 1,3,-1
 718.5 792 l 1,4,-1
 204.5 792 l 1,0,-1
718.5 920 m 1,5,-1
 718.5 1435 l 1,6,7
 718.5 1435 718.5 1435 847.5 1435 c 1,8,9
 847.5 1432 847.5 1432 847.5 920 c 1,10,-1
 718.5 920 l 1,5,-1
204.5 1435 m 1,11,-1
 204.5 1560 l 1,12,13
 207.5 1560 207.5 1560 718.5 1560 c 1,14,-1
 718.5 1435 l 1,15,-1
 204.5 1435 l 1,11,-1
79.5 408 m 1,16,-1
 79.5 1944 l 1,17,-1
 204.5 1944 l 1,18,-1
 204.5 408 l 1,19,-1
 79.5 408 l 1,16,-1
EndSplineSet
Validated: 5
EndChar

StartChar: germandbls
Encoding: 223 223 155
Width: 1183
VWidth: 3072
GlyphClass: 1
Flags: W
LayerCount: 2
Fore
SplineSet
464.5 -101 m 1,0,-1
 464.5 24 l 1,1,-1
 847.5 24 l 1,2,-1
 847.5 -101 l 1,3,-1
 464.5 -101 l 1,0,-1
847.5 24 m 1,4,-1
 847.5 152 l 1,5,6
 848.5 152 848.5 152 976.5 152 c 1,7,-1
 976.5 24 l 1,8,-1
 847.5 24 l 1,4,-1
335.5 24 m 1,9,-1
 335.5 152 l 1,10,11
 336.5 152 336.5 152 464.5 152 c 1,12,-1
 464.5 24 l 1,13,-1
 335.5 24 l 1,9,-1
976.5 152 m 1,14,-1
 976.5 664 l 1,15,-1
 1103.5 664 l 1,16,-1
 1103.5 152 l 1,17,-1
 976.5 152 l 1,14,-1
847.5 664 m 1,18,-1
 847.5 792 l 1,19,20
 848.5 792 848.5 792 976.5 792 c 1,21,-1
 976.5 664 l 1,22,-1
 847.5 664 l 1,18,-1
718.5 792 m 1,23,-1
 718.5 920 l 1,24,25
 718.5 920 718.5 920 847.5 920 c 1,26,-1
 847.5 792 l 1,27,-1
 718.5 792 l 1,23,-1
591.5 792 m 1,28,-1
 591.5 1051 l 1,29,-1
 718.5 1051 l 1,30,-1
 718.5 792 l 1,31,-1
 591.5 792 l 1,28,-1
718.5 1051 m 1,32,-1
 718.5 1176 l 1,33,34
 718.5 1176 718.5 1176 847.5 1176 c 1,35,-1
 847.5 1051 l 1,36,-1
 718.5 1051 l 1,32,-1
847.5 1176 m 1,37,-1
 847.5 1688 l 1,38,39
 848.5 1688 848.5 1688 976.5 1688 c 1,40,-1
 976.5 1176 l 1,41,-1
 847.5 1176 l 1,37,-1
79.5 -101 m 1,42,43
 79.5 -104 79.5 -104 79.5 1688 c 1,44,-1
 206.5 1688 l 1,45,-1
 206.5 -101 l 1,46,-1
 79.5 -101 l 1,42,43
718.5 1688 m 1,47,-1
 718.5 1819 l 1,48,49
 718.5 1819 718.5 1819 847.5 1819 c 1,50,51
 847.5 1816 847.5 1816 847.5 1688 c 1,52,-1
 718.5 1688 l 1,47,-1
206.5 1688 m 1,53,-1
 206.5 1819 l 1,54,-1
 335.5 1819 l 1,55,56
 335.5 1816 335.5 1816 335.5 1688 c 1,57,-1
 206.5 1688 l 1,53,-1
335.5 1819 m 1,58,-1
 335.5 1944 l 1,59,60
 334.5 1944 334.5 1944 718.5 1944 c 1,61,-1
 718.5 1819 l 1,62,-1
 335.5 1819 l 1,58,-1
EndSplineSet
Validated: 37
EndChar

StartChar: agrave
Encoding: 224 224 156
Width: 1183
VWidth: 3072
GlyphClass: 1
Flags: W
LayerCount: 2
Fore
SplineSet
206.5 -101 m 1,0,-1
 206.5 24 l 1,1,-1
 847.5 24 l 1,2,-1
 847.5 -101 l 1,3,-1
 206.5 -101 l 1,0,-1
847.5 24 m 1,4,-1
 847.5 152 l 1,5,6
 848.5 152 848.5 152 976.5 152 c 1,7,-1
 976.5 24 l 1,8,-1
 847.5 24 l 1,4,-1
79.5 24 m 1,9,-1
 79.5 283 l 1,10,-1
 206.5 283 l 1,11,-1
 206.5 24 l 1,12,-1
 79.5 24 l 1,9,-1
847.5 283 m 1,13,-1
 847.5 408 l 1,14,15
 848.5 408 848.5 408 976.5 408 c 1,16,-1
 976.5 283 l 1,17,-1
 847.5 283 l 1,13,-1
206.5 283 m 1,18,-1
 206.5 408 l 1,19,-1
 335.5 408 l 1,20,-1
 335.5 283 l 1,21,-1
 206.5 283 l 1,18,-1
335.5 408 m 1,22,-1
 335.5 536 l 1,23,24
 335.5 536 335.5 536 847.5 536 c 1,25,-1
 847.5 408 l 1,26,-1
 335.5 408 l 1,22,-1
976.5 -101 m 1,27,28
 976.5 -104 976.5 -104 976.5 664 c 1,29,-1
 1103.5 664 l 1,30,-1
 1103.5 -101 l 1,31,-1
 976.5 -101 l 1,27,28
79.5 536 m 1,32,-1
 79.5 664 l 1,33,-1
 206.5 664 l 1,34,-1
 206.5 536 l 1,35,-1
 79.5 536 l 1,32,-1
847.5 664 m 1,36,-1
 847.5 792 l 1,37,38
 848.5 792 848.5 792 976.5 792 c 1,39,-1
 976.5 664 l 1,40,-1
 847.5 664 l 1,36,-1
206.5 664 m 1,41,-1
 206.5 792 l 1,42,-1
 335.5 792 l 1,43,-1
 335.5 664 l 1,44,-1
 206.5 664 l 1,41,-1
335.5 792 m 1,45,-1
 335.5 920 l 1,46,47
 335.5 920 335.5 920 847.5 920 c 1,48,-1
 847.5 792 l 1,49,-1
 335.5 792 l 1,45,-1
591.5 1051 m 1,50,-1
 591.5 1176 l 1,51,-1
 718.5 1176 l 1,52,-1
 718.5 1051 l 1,53,-1
 591.5 1051 l 1,50,-1
464.5 1051 m 1,54,55
 464.5 1048 464.5 1048 464.5 1304 c 1,56,-1
 591.5 1304 l 1,57,-1
 591.5 1051 l 1,58,-1
 464.5 1051 l 1,54,55
335.5 1176 m 1,59,-1
 335.5 1435 l 1,60,61
 336.5 1435 336.5 1435 464.5 1435 c 1,62,-1
 464.5 1176 l 1,63,-1
 335.5 1176 l 1,59,-1
EndSplineSet
Validated: 37
EndChar

StartChar: aacute
Encoding: 225 225 157
Width: 1183
VWidth: 3072
GlyphClass: 1
Flags: W
LayerCount: 2
Fore
SplineSet
206.5 -101 m 1,0,-1
 206.5 24 l 1,1,-1
 847.5 24 l 1,2,-1
 847.5 -101 l 1,3,-1
 206.5 -101 l 1,0,-1
847.5 24 m 1,4,-1
 847.5 152 l 1,5,6
 848.5 152 848.5 152 976.5 152 c 1,7,-1
 976.5 24 l 1,8,-1
 847.5 24 l 1,4,-1
79.5 24 m 1,9,-1
 79.5 283 l 1,10,-1
 206.5 283 l 1,11,-1
 206.5 24 l 1,12,-1
 79.5 24 l 1,9,-1
847.5 283 m 1,13,-1
 847.5 408 l 1,14,15
 848.5 408 848.5 408 976.5 408 c 1,16,-1
 976.5 283 l 1,17,-1
 847.5 283 l 1,13,-1
206.5 283 m 1,18,-1
 206.5 408 l 1,19,-1
 335.5 408 l 1,20,-1
 335.5 283 l 1,21,-1
 206.5 283 l 1,18,-1
335.5 408 m 1,22,-1
 335.5 536 l 1,23,24
 335.5 536 335.5 536 847.5 536 c 1,25,-1
 847.5 408 l 1,26,-1
 335.5 408 l 1,22,-1
976.5 -101 m 1,27,28
 976.5 -104 976.5 -104 976.5 664 c 1,29,-1
 1103.5 664 l 1,30,-1
 1103.5 -101 l 1,31,-1
 976.5 -101 l 1,27,28
79.5 536 m 1,32,-1
 79.5 664 l 1,33,-1
 206.5 664 l 1,34,-1
 206.5 536 l 1,35,-1
 79.5 536 l 1,32,-1
847.5 664 m 1,36,-1
 847.5 792 l 1,37,38
 848.5 792 848.5 792 976.5 792 c 1,39,-1
 976.5 664 l 1,40,-1
 847.5 664 l 1,36,-1
206.5 664 m 1,41,-1
 206.5 792 l 1,42,-1
 335.5 792 l 1,43,-1
 335.5 664 l 1,44,-1
 206.5 664 l 1,41,-1
335.5 792 m 1,45,-1
 335.5 920 l 1,46,47
 335.5 920 335.5 920 847.5 920 c 1,48,-1
 847.5 792 l 1,49,-1
 335.5 792 l 1,45,-1
464.5 1051 m 1,50,-1
 464.5 1176 l 1,51,-1
 591.5 1176 l 1,52,-1
 591.5 1051 l 1,53,-1
 464.5 1051 l 1,50,-1
591.5 1051 m 1,54,55
 591.5 1048 591.5 1048 591.5 1304 c 1,56,-1
 718.5 1304 l 1,57,-1
 718.5 1051 l 1,58,-1
 591.5 1051 l 1,54,55
718.5 1176 m 1,59,-1
 718.5 1435 l 1,60,61
 718.5 1435 718.5 1435 847.5 1435 c 1,62,-1
 847.5 1176 l 1,63,-1
 718.5 1176 l 1,59,-1
EndSplineSet
Validated: 37
EndChar

StartChar: acircumflex
Encoding: 226 226 158
Width: 1183
VWidth: 3072
GlyphClass: 1
Flags: W
LayerCount: 2
Fore
SplineSet
206.5 -101 m 1,0,-1
 206.5 24 l 1,1,-1
 847.5 24 l 1,2,-1
 847.5 -101 l 1,3,-1
 206.5 -101 l 1,0,-1
847.5 24 m 1,4,-1
 847.5 152 l 1,5,6
 848.5 152 848.5 152 976.5 152 c 1,7,-1
 976.5 24 l 1,8,-1
 847.5 24 l 1,4,-1
79.5 24 m 1,9,-1
 79.5 283 l 1,10,-1
 206.5 283 l 1,11,-1
 206.5 24 l 1,12,-1
 79.5 24 l 1,9,-1
847.5 283 m 1,13,-1
 847.5 408 l 1,14,15
 848.5 408 848.5 408 976.5 408 c 1,16,-1
 976.5 283 l 1,17,-1
 847.5 283 l 1,13,-1
206.5 283 m 1,18,-1
 206.5 408 l 1,19,-1
 335.5 408 l 1,20,-1
 335.5 283 l 1,21,-1
 206.5 283 l 1,18,-1
335.5 408 m 1,22,-1
 335.5 536 l 1,23,24
 335.5 536 335.5 536 847.5 536 c 1,25,-1
 847.5 408 l 1,26,-1
 335.5 408 l 1,22,-1
976.5 -101 m 1,27,28
 976.5 -104 976.5 -104 976.5 664 c 1,29,-1
 1103.5 664 l 1,30,-1
 1103.5 -101 l 1,31,-1
 976.5 -101 l 1,27,28
79.5 536 m 1,32,-1
 79.5 664 l 1,33,-1
 206.5 664 l 1,34,-1
 206.5 536 l 1,35,-1
 79.5 536 l 1,32,-1
847.5 664 m 1,36,-1
 847.5 792 l 1,37,38
 848.5 792 848.5 792 976.5 792 c 1,39,-1
 976.5 664 l 1,40,-1
 847.5 664 l 1,36,-1
206.5 664 m 1,41,-1
 206.5 792 l 1,42,-1
 335.5 792 l 1,43,-1
 335.5 664 l 1,44,-1
 206.5 664 l 1,41,-1
335.5 792 m 1,45,-1
 335.5 920 l 1,46,47
 335.5 920 335.5 920 847.5 920 c 1,48,-1
 847.5 792 l 1,49,-1
 335.5 792 l 1,45,-1
847.5 1051 m 1,50,-1
 847.5 1176 l 1,51,52
 848.5 1176 848.5 1176 976.5 1176 c 1,53,-1
 976.5 1051 l 1,54,-1
 847.5 1051 l 1,50,-1
206.5 1051 m 1,55,-1
 206.5 1176 l 1,56,-1
 335.5 1176 l 1,57,-1
 335.5 1051 l 1,58,-1
 206.5 1051 l 1,55,-1
718.5 1176 m 1,59,-1
 718.5 1304 l 1,60,61
 718.5 1304 718.5 1304 847.5 1304 c 1,62,-1
 847.5 1176 l 1,63,-1
 718.5 1176 l 1,59,-1
335.5 1176 m 1,64,-1
 335.5 1304 l 1,65,66
 336.5 1304 336.5 1304 464.5 1304 c 1,67,-1
 464.5 1176 l 1,68,-1
 335.5 1176 l 1,64,-1
464.5 1304 m 1,69,-1
 464.5 1435 l 1,70,-1
 718.5 1435 l 1,71,72
 718.5 1432 718.5 1432 718.5 1304 c 1,73,-1
 464.5 1304 l 1,69,-1
EndSplineSet
Validated: 37
EndChar

StartChar: atilde
Encoding: 227 227 159
Width: 1183
VWidth: 3072
GlyphClass: 1
Flags: W
LayerCount: 2
Fore
SplineSet
206.5 -101 m 1,0,-1
 206.5 24 l 1,1,-1
 847.5 24 l 1,2,-1
 847.5 -101 l 1,3,-1
 206.5 -101 l 1,0,-1
847.5 24 m 1,4,-1
 847.5 152 l 1,5,6
 848.5 152 848.5 152 976.5 152 c 1,7,-1
 976.5 24 l 1,8,-1
 847.5 24 l 1,4,-1
79.5 24 m 1,9,-1
 79.5 283 l 1,10,-1
 206.5 283 l 1,11,-1
 206.5 24 l 1,12,-1
 79.5 24 l 1,9,-1
847.5 283 m 1,13,-1
 847.5 408 l 1,14,15
 848.5 408 848.5 408 976.5 408 c 1,16,-1
 976.5 283 l 1,17,-1
 847.5 283 l 1,13,-1
206.5 283 m 1,18,-1
 206.5 408 l 1,19,-1
 335.5 408 l 1,20,-1
 335.5 283 l 1,21,-1
 206.5 283 l 1,18,-1
335.5 408 m 1,22,-1
 335.5 536 l 1,23,24
 335.5 536 335.5 536 847.5 536 c 1,25,-1
 847.5 408 l 1,26,-1
 335.5 408 l 1,22,-1
976.5 -101 m 1,27,28
 976.5 -104 976.5 -104 976.5 664 c 1,29,-1
 1103.5 664 l 1,30,-1
 1103.5 -101 l 1,31,-1
 976.5 -101 l 1,27,28
79.5 536 m 1,32,-1
 79.5 664 l 1,33,-1
 206.5 664 l 1,34,-1
 206.5 536 l 1,35,-1
 79.5 536 l 1,32,-1
847.5 664 m 1,36,-1
 847.5 792 l 1,37,38
 848.5 792 848.5 792 976.5 792 c 1,39,-1
 976.5 664 l 1,40,-1
 847.5 664 l 1,36,-1
206.5 664 m 1,41,-1
 206.5 792 l 1,42,-1
 335.5 792 l 1,43,-1
 335.5 664 l 1,44,-1
 206.5 664 l 1,41,-1
335.5 792 m 1,45,-1
 335.5 920 l 1,46,47
 335.5 920 335.5 920 847.5 920 c 1,48,-1
 847.5 792 l 1,49,-1
 335.5 792 l 1,45,-1
718.5 1051 m 1,50,-1
 718.5 1176 l 1,51,-1
 976.5 1176 l 1,52,-1
 976.5 1051 l 1,53,-1
 718.5 1051 l 1,50,-1
464.5 1176 m 1,54,-1
 464.5 1304 l 1,55,-1
 718.5 1304 l 1,56,-1
 718.5 1176 l 1,57,-1
 464.5 1176 l 1,54,-1
79.5 1051 m 1,58,59
 79.5 1048 79.5 1048 79.5 1304 c 1,60,-1
 206.5 1304 l 1,61,-1
 206.5 1051 l 1,62,-1
 79.5 1051 l 1,58,59
976.5 1176 m 1,63,-1
 976.5 1435 l 1,64,-1
 1103.5 1435 l 1,65,-1
 1103.5 1176 l 1,66,-1
 976.5 1176 l 1,63,-1
206.5 1304 m 1,67,-1
 206.5 1435 l 1,68,-1
 464.5 1435 l 1,69,70
 464.5 1432 464.5 1432 464.5 1304 c 1,71,-1
 206.5 1304 l 1,67,-1
EndSplineSet
Validated: 37
EndChar

StartChar: adieresis
Encoding: 228 228 160
Width: 1183
VWidth: 3072
GlyphClass: 1
Flags: W
LayerCount: 2
Fore
SplineSet
206.5 -101 m 1,0,-1
 206.5 24 l 1,1,-1
 847.5 24 l 1,2,-1
 847.5 -101 l 1,3,-1
 206.5 -101 l 1,0,-1
847.5 24 m 1,4,-1
 847.5 152 l 1,5,6
 848.5 152 848.5 152 976.5 152 c 1,7,-1
 976.5 24 l 1,8,-1
 847.5 24 l 1,4,-1
79.5 24 m 1,9,-1
 79.5 283 l 1,10,-1
 206.5 283 l 1,11,-1
 206.5 24 l 1,12,-1
 79.5 24 l 1,9,-1
847.5 283 m 1,13,-1
 847.5 408 l 1,14,15
 848.5 408 848.5 408 976.5 408 c 1,16,-1
 976.5 283 l 1,17,-1
 847.5 283 l 1,13,-1
206.5 283 m 1,18,-1
 206.5 408 l 1,19,-1
 335.5 408 l 1,20,-1
 335.5 283 l 1,21,-1
 206.5 283 l 1,18,-1
335.5 408 m 1,22,-1
 335.5 536 l 1,23,24
 335.5 536 335.5 536 847.5 536 c 1,25,-1
 847.5 408 l 1,26,-1
 335.5 408 l 1,22,-1
976.5 -101 m 1,27,28
 976.5 -104 976.5 -104 976.5 664 c 1,29,-1
 1103.5 664 l 1,30,-1
 1103.5 -101 l 1,31,-1
 976.5 -101 l 1,27,28
79.5 536 m 1,32,-1
 79.5 664 l 1,33,-1
 206.5 664 l 1,34,-1
 206.5 536 l 1,35,-1
 79.5 536 l 1,32,-1
847.5 664 m 1,36,-1
 847.5 792 l 1,37,38
 848.5 792 848.5 792 976.5 792 c 1,39,-1
 976.5 664 l 1,40,-1
 847.5 664 l 1,36,-1
206.5 664 m 1,41,-1
 206.5 792 l 1,42,-1
 335.5 792 l 1,43,-1
 335.5 664 l 1,44,-1
 206.5 664 l 1,41,-1
335.5 792 m 1,45,-1
 335.5 920 l 1,46,47
 335.5 920 335.5 920 847.5 920 c 1,48,-1
 847.5 792 l 1,49,-1
 335.5 792 l 1,45,-1
718.5 1051 m 1,50,51
 718.5 1048 718.5 1048 718.5 1304 c 1,52,-1
 976.5 1304 l 1,53,-1
 976.5 1051 l 1,54,-1
 718.5 1051 l 1,50,51
206.5 1051 m 1,55,56
 206.5 1048 206.5 1048 206.5 1304 c 1,57,-1
 464.5 1304 l 1,58,-1
 464.5 1051 l 1,59,-1
 206.5 1051 l 1,55,56
EndSplineSet
Validated: 37
EndChar

StartChar: aring
Encoding: 229 229 161
Width: 1183
VWidth: 3072
GlyphClass: 1
Flags: W
LayerCount: 2
Fore
SplineSet
206.5 -101 m 1,0,-1
 206.5 24 l 1,1,-1
 847.5 24 l 1,2,-1
 847.5 -101 l 1,3,-1
 206.5 -101 l 1,0,-1
847.5 24 m 1,4,-1
 847.5 152 l 1,5,6
 848.5 152 848.5 152 976.5 152 c 1,7,-1
 976.5 24 l 1,8,-1
 847.5 24 l 1,4,-1
79.5 24 m 1,9,-1
 79.5 283 l 1,10,-1
 206.5 283 l 1,11,-1
 206.5 24 l 1,12,-1
 79.5 24 l 1,9,-1
847.5 283 m 1,13,-1
 847.5 408 l 1,14,15
 848.5 408 848.5 408 976.5 408 c 1,16,-1
 976.5 283 l 1,17,-1
 847.5 283 l 1,13,-1
206.5 283 m 1,18,-1
 206.5 408 l 1,19,-1
 335.5 408 l 1,20,-1
 335.5 283 l 1,21,-1
 206.5 283 l 1,18,-1
335.5 408 m 1,22,-1
 335.5 536 l 1,23,24
 335.5 536 335.5 536 847.5 536 c 1,25,-1
 847.5 408 l 1,26,-1
 335.5 408 l 1,22,-1
976.5 -101 m 1,27,28
 976.5 -104 976.5 -104 976.5 664 c 1,29,-1
 1103.5 664 l 1,30,-1
 1103.5 -101 l 1,31,-1
 976.5 -101 l 1,27,28
79.5 536 m 1,32,-1
 79.5 664 l 1,33,-1
 206.5 664 l 1,34,-1
 206.5 536 l 1,35,-1
 79.5 536 l 1,32,-1
847.5 664 m 1,36,-1
 847.5 792 l 1,37,38
 848.5 792 848.5 792 976.5 792 c 1,39,-1
 976.5 664 l 1,40,-1
 847.5 664 l 1,36,-1
206.5 664 m 1,41,-1
 206.5 792 l 1,42,-1
 335.5 792 l 1,43,-1
 335.5 664 l 1,44,-1
 206.5 664 l 1,41,-1
335.5 792 m 1,45,-1
 335.5 920 l 1,46,47
 335.5 920 335.5 920 847.5 920 c 1,48,-1
 847.5 792 l 1,49,-1
 335.5 792 l 1,45,-1
464.5 1051 m 1,50,-1
 464.5 1176 l 1,51,-1
 718.5 1176 l 1,52,-1
 718.5 1051 l 1,53,-1
 464.5 1051 l 1,50,-1
718.5 1176 m 1,54,-1
 718.5 1435 l 1,55,56
 718.5 1435 718.5 1435 847.5 1435 c 1,57,-1
 847.5 1176 l 1,58,-1
 718.5 1176 l 1,54,-1
335.5 1176 m 1,59,-1
 335.5 1435 l 1,60,61
 336.5 1435 336.5 1435 464.5 1435 c 1,62,-1
 464.5 1176 l 1,63,-1
 335.5 1176 l 1,59,-1
464.5 1435 m 1,64,-1
 464.5 1560 l 1,65,-1
 718.5 1560 l 1,66,-1
 718.5 1435 l 1,67,-1
 464.5 1435 l 1,64,-1
EndSplineSet
Validated: 37
EndChar

StartChar: ae
Encoding: 230 230 162
Width: 1183
VWidth: 3072
GlyphClass: 1
Flags: W
LayerCount: 2
Fore
SplineSet
718.5 -101 m 1,0,-1
 718.5 24 l 1,1,-1
 976.5 24 l 1,2,-1
 976.5 -101 l 1,3,-1
 718.5 -101 l 1,0,-1
206.5 -101 m 1,4,-1
 206.5 24 l 1,5,-1
 464.5 24 l 1,6,-1
 464.5 -101 l 1,7,-1
 206.5 -101 l 1,4,-1
976.5 24 m 1,8,-1
 976.5 152 l 1,9,-1
 1103.5 152 l 1,10,-1
 1103.5 24 l 1,11,-1
 976.5 24 l 1,8,-1
79.5 24 m 1,12,-1
 79.5 408 l 1,13,-1
 206.5 408 l 1,14,-1
 206.5 24 l 1,15,-1
 79.5 24 l 1,12,-1
718.5 408 m 1,16,-1
 718.5 536 l 1,17,-1
 976.5 536 l 1,18,-1
 976.5 408 l 1,19,-1
 718.5 408 l 1,16,-1
206.5 408 m 1,20,-1
 206.5 536 l 1,21,-1
 464.5 536 l 1,22,-1
 464.5 408 l 1,23,-1
 206.5 408 l 1,20,-1
976.5 408 m 1,24,-1
 976.5 792 l 1,25,-1
 1103.5 792 l 1,26,-1
 1103.5 408 l 1,27,-1
 976.5 408 l 1,24,-1
464.5 24 m 1,28,-1
 464.5 792 l 1,29,-1
 718.5 792 l 1,30,-1
 718.5 24 l 1,31,-1
 464.5 24 l 1,28,-1
79.5 664 m 1,32,-1
 79.5 792 l 1,33,-1
 206.5 792 l 1,34,-1
 206.5 664 l 1,35,-1
 79.5 664 l 1,32,-1
718.5 792 m 1,36,-1
 718.5 920 l 1,37,-1
 976.5 920 l 1,38,-1
 976.5 792 l 1,39,-1
 718.5 792 l 1,36,-1
206.5 792 m 1,40,-1
 206.5 920 l 1,41,-1
 464.5 920 l 1,42,-1
 464.5 792 l 1,43,-1
 206.5 792 l 1,40,-1
EndSplineSet
Validated: 5
EndChar

StartChar: ccedilla
Encoding: 231 231 163
Width: 1056
VWidth: 3072
GlyphClass: 1
Flags: W
LayerCount: 2
Fore
SplineSet
464.5 -616 m 1,0,-1
 464.5 -485 l 1,1,-1
 718.5 -485 l 1,2,3
 718.5 -488 718.5 -488 718.5 -616 c 1,4,-1
 464.5 -616 l 1,0,-1
335.5 -485 m 1,5,-1
 335.5 -360 l 1,6,7
 336.5 -360 336.5 -360 464.5 -360 c 1,8,-1
 464.5 -485 l 1,9,-1
 335.5 -485 l 1,5,-1
718.5 -485 m 1,10,11
 718.5 -488 718.5 -488 718.5 -232 c 1,12,13
 718.5 -232 718.5 -232 847.5 -232 c 1,14,-1
 847.5 -485 l 1,15,-1
 718.5 -485 l 1,10,11
464.5 -232 m 1,16,-1
 464.5 -101 l 1,17,-1
 718.5 -101 l 1,18,19
 718.5 -104 718.5 -104 718.5 -232 c 1,20,-1
 464.5 -232 l 1,16,-1
335.5 -101 m 1,21,-1
 335.5 24 l 1,22,23
 335.5 24 335.5 24 847.5 24 c 1,24,-1
 847.5 -101 l 1,25,-1
 335.5 -101 l 1,21,-1
847.5 24 m 1,26,-1
 847.5 152 l 1,27,28
 848.5 152 848.5 152 976.5 152 c 1,29,-1
 976.5 24 l 1,30,-1
 847.5 24 l 1,26,-1
206.5 24 m 1,31,-1
 206.5 152 l 1,32,-1
 335.5 152 l 1,33,-1
 335.5 24 l 1,34,-1
 206.5 24 l 1,31,-1
79.5 152 m 1,35,-1
 79.5 664 l 1,36,-1
 206.5 664 l 1,37,-1
 206.5 152 l 1,38,-1
 79.5 152 l 1,35,-1
847.5 664 m 1,39,-1
 847.5 792 l 1,40,41
 848.5 792 848.5 792 976.5 792 c 1,42,-1
 976.5 664 l 1,43,-1
 847.5 664 l 1,39,-1
206.5 664 m 1,44,-1
 206.5 792 l 1,45,-1
 335.5 792 l 1,46,-1
 335.5 664 l 1,47,-1
 206.5 664 l 1,44,-1
335.5 792 m 1,48,-1
 335.5 920 l 1,49,50
 335.5 920 335.5 920 847.5 920 c 1,51,-1
 847.5 792 l 1,52,-1
 335.5 792 l 1,48,-1
EndSplineSet
Validated: 37
EndChar

StartChar: egrave
Encoding: 232 232 164
Width: 1183
VWidth: 3072
GlyphClass: 1
Flags: W
LayerCount: 2
Fore
SplineSet
335.5 -101 m 1,0,-1
 335.5 24 l 1,1,2
 336.5 24 336.5 24 976.5 24 c 1,3,-1
 976.5 -101 l 1,4,-1
 335.5 -101 l 1,0,-1
976.5 24 m 1,5,-1
 976.5 152 l 1,6,-1
 1103.5 152 l 1,7,-1
 1103.5 24 l 1,8,-1
 976.5 24 l 1,5,-1
206.5 24 m 1,9,-1
 206.5 152 l 1,10,-1
 335.5 152 l 1,11,-1
 335.5 24 l 1,12,-1
 206.5 24 l 1,9,-1
206.5 283 m 1,13,-1
 206.5 408 l 1,14,-1
 976.5 408 l 1,15,-1
 976.5 283 l 1,16,-1
 206.5 283 l 1,13,-1
976.5 408 m 1,17,-1
 976.5 664 l 1,18,-1
 1103.5 664 l 1,19,-1
 1103.5 408 l 1,20,-1
 976.5 408 l 1,17,-1
79.5 152 m 1,21,-1
 79.5 664 l 1,22,-1
 206.5 664 l 1,23,-1
 206.5 152 l 1,24,-1
 79.5 152 l 1,21,-1
847.5 664 m 1,25,-1
 847.5 792 l 1,26,27
 848.5 792 848.5 792 976.5 792 c 1,28,-1
 976.5 664 l 1,29,-1
 847.5 664 l 1,25,-1
206.5 664 m 1,30,-1
 206.5 792 l 1,31,-1
 335.5 792 l 1,32,-1
 335.5 664 l 1,33,-1
 206.5 664 l 1,30,-1
335.5 792 m 1,34,-1
 335.5 920 l 1,35,36
 335.5 920 335.5 920 847.5 920 c 1,37,-1
 847.5 792 l 1,38,-1
 335.5 792 l 1,34,-1
591.5 1051 m 1,39,-1
 591.5 1176 l 1,40,-1
 718.5 1176 l 1,41,-1
 718.5 1051 l 1,42,-1
 591.5 1051 l 1,39,-1
464.5 1051 m 1,43,44
 464.5 1048 464.5 1048 464.5 1304 c 1,45,-1
 591.5 1304 l 1,46,-1
 591.5 1051 l 1,47,-1
 464.5 1051 l 1,43,44
335.5 1176 m 1,48,-1
 335.5 1435 l 1,49,50
 336.5 1435 336.5 1435 464.5 1435 c 1,51,-1
 464.5 1176 l 1,52,-1
 335.5 1176 l 1,48,-1
EndSplineSet
Validated: 37
EndChar

StartChar: eacute
Encoding: 233 233 165
Width: 1183
VWidth: 3072
GlyphClass: 1
Flags: W
LayerCount: 2
Fore
SplineSet
335.5 -101 m 1,0,-1
 335.5 24 l 1,1,2
 336.5 24 336.5 24 976.5 24 c 1,3,-1
 976.5 -101 l 1,4,-1
 335.5 -101 l 1,0,-1
976.5 24 m 1,5,-1
 976.5 152 l 1,6,-1
 1103.5 152 l 1,7,-1
 1103.5 24 l 1,8,-1
 976.5 24 l 1,5,-1
206.5 24 m 1,9,-1
 206.5 152 l 1,10,-1
 335.5 152 l 1,11,-1
 335.5 24 l 1,12,-1
 206.5 24 l 1,9,-1
206.5 283 m 1,13,-1
 206.5 408 l 1,14,-1
 976.5 408 l 1,15,-1
 976.5 283 l 1,16,-1
 206.5 283 l 1,13,-1
976.5 408 m 1,17,-1
 976.5 664 l 1,18,-1
 1103.5 664 l 1,19,-1
 1103.5 408 l 1,20,-1
 976.5 408 l 1,17,-1
79.5 152 m 1,21,-1
 79.5 664 l 1,22,-1
 206.5 664 l 1,23,-1
 206.5 152 l 1,24,-1
 79.5 152 l 1,21,-1
847.5 664 m 1,25,-1
 847.5 792 l 1,26,27
 848.5 792 848.5 792 976.5 792 c 1,28,-1
 976.5 664 l 1,29,-1
 847.5 664 l 1,25,-1
206.5 664 m 1,30,-1
 206.5 792 l 1,31,-1
 335.5 792 l 1,32,-1
 335.5 664 l 1,33,-1
 206.5 664 l 1,30,-1
335.5 792 m 1,34,-1
 335.5 920 l 1,35,36
 335.5 920 335.5 920 847.5 920 c 1,37,-1
 847.5 792 l 1,38,-1
 335.5 792 l 1,34,-1
464.5 1051 m 1,39,-1
 464.5 1176 l 1,40,-1
 591.5 1176 l 1,41,-1
 591.5 1051 l 1,42,-1
 464.5 1051 l 1,39,-1
591.5 1051 m 1,43,44
 591.5 1048 591.5 1048 591.5 1304 c 1,45,-1
 718.5 1304 l 1,46,-1
 718.5 1051 l 1,47,-1
 591.5 1051 l 1,43,44
718.5 1176 m 1,48,-1
 718.5 1435 l 1,49,50
 718.5 1435 718.5 1435 847.5 1435 c 1,51,-1
 847.5 1176 l 1,52,-1
 718.5 1176 l 1,48,-1
EndSplineSet
Validated: 37
EndChar

StartChar: ecircumflex
Encoding: 234 234 166
Width: 1183
VWidth: 3072
GlyphClass: 1
Flags: W
LayerCount: 2
Fore
SplineSet
335.5 -101 m 1,0,-1
 335.5 24 l 1,1,2
 336.5 24 336.5 24 976.5 24 c 1,3,-1
 976.5 -101 l 1,4,-1
 335.5 -101 l 1,0,-1
976.5 24 m 1,5,-1
 976.5 152 l 1,6,-1
 1103.5 152 l 1,7,-1
 1103.5 24 l 1,8,-1
 976.5 24 l 1,5,-1
206.5 24 m 1,9,-1
 206.5 152 l 1,10,-1
 335.5 152 l 1,11,-1
 335.5 24 l 1,12,-1
 206.5 24 l 1,9,-1
206.5 283 m 1,13,-1
 206.5 408 l 1,14,-1
 976.5 408 l 1,15,-1
 976.5 283 l 1,16,-1
 206.5 283 l 1,13,-1
976.5 408 m 1,17,-1
 976.5 664 l 1,18,-1
 1103.5 664 l 1,19,-1
 1103.5 408 l 1,20,-1
 976.5 408 l 1,17,-1
79.5 152 m 1,21,-1
 79.5 664 l 1,22,-1
 206.5 664 l 1,23,-1
 206.5 152 l 1,24,-1
 79.5 152 l 1,21,-1
847.5 664 m 1,25,-1
 847.5 792 l 1,26,27
 848.5 792 848.5 792 976.5 792 c 1,28,-1
 976.5 664 l 1,29,-1
 847.5 664 l 1,25,-1
206.5 664 m 1,30,-1
 206.5 792 l 1,31,-1
 335.5 792 l 1,32,-1
 335.5 664 l 1,33,-1
 206.5 664 l 1,30,-1
335.5 792 m 1,34,-1
 335.5 920 l 1,35,36
 335.5 920 335.5 920 847.5 920 c 1,37,-1
 847.5 792 l 1,38,-1
 335.5 792 l 1,34,-1
847.5 1051 m 1,39,-1
 847.5 1176 l 1,40,41
 848.5 1176 848.5 1176 976.5 1176 c 1,42,-1
 976.5 1051 l 1,43,-1
 847.5 1051 l 1,39,-1
206.5 1051 m 1,44,-1
 206.5 1176 l 1,45,-1
 335.5 1176 l 1,46,-1
 335.5 1051 l 1,47,-1
 206.5 1051 l 1,44,-1
718.5 1176 m 1,48,-1
 718.5 1304 l 1,49,50
 718.5 1304 718.5 1304 847.5 1304 c 1,51,-1
 847.5 1176 l 1,52,-1
 718.5 1176 l 1,48,-1
335.5 1176 m 1,53,-1
 335.5 1304 l 1,54,55
 336.5 1304 336.5 1304 464.5 1304 c 1,56,-1
 464.5 1176 l 1,57,-1
 335.5 1176 l 1,53,-1
464.5 1304 m 1,58,-1
 464.5 1435 l 1,59,-1
 718.5 1435 l 1,60,61
 718.5 1432 718.5 1432 718.5 1304 c 1,62,-1
 464.5 1304 l 1,58,-1
EndSplineSet
Validated: 5
EndChar

StartChar: edieresis
Encoding: 235 235 167
Width: 1183
VWidth: 3072
GlyphClass: 1
Flags: W
LayerCount: 2
Fore
SplineSet
335.5 -101 m 1,0,-1
 335.5 24 l 1,1,2
 336.5 24 336.5 24 976.5 24 c 1,3,-1
 976.5 -101 l 1,4,-1
 335.5 -101 l 1,0,-1
976.5 24 m 1,5,-1
 976.5 152 l 1,6,-1
 1103.5 152 l 1,7,-1
 1103.5 24 l 1,8,-1
 976.5 24 l 1,5,-1
206.5 24 m 1,9,-1
 206.5 152 l 1,10,-1
 335.5 152 l 1,11,-1
 335.5 24 l 1,12,-1
 206.5 24 l 1,9,-1
206.5 283 m 1,13,-1
 206.5 408 l 1,14,-1
 976.5 408 l 1,15,-1
 976.5 283 l 1,16,-1
 206.5 283 l 1,13,-1
976.5 408 m 1,17,-1
 976.5 664 l 1,18,-1
 1103.5 664 l 1,19,-1
 1103.5 408 l 1,20,-1
 976.5 408 l 1,17,-1
79.5 152 m 1,21,-1
 79.5 664 l 1,22,-1
 206.5 664 l 1,23,-1
 206.5 152 l 1,24,-1
 79.5 152 l 1,21,-1
847.5 664 m 1,25,-1
 847.5 792 l 1,26,27
 848.5 792 848.5 792 976.5 792 c 1,28,-1
 976.5 664 l 1,29,-1
 847.5 664 l 1,25,-1
206.5 664 m 1,30,-1
 206.5 792 l 1,31,-1
 335.5 792 l 1,32,-1
 335.5 664 l 1,33,-1
 206.5 664 l 1,30,-1
335.5 792 m 1,34,-1
 335.5 920 l 1,35,36
 335.5 920 335.5 920 847.5 920 c 1,37,-1
 847.5 792 l 1,38,-1
 335.5 792 l 1,34,-1
718.5 1051 m 1,39,40
 718.5 1048 718.5 1048 718.5 1304 c 1,41,-1
 976.5 1304 l 1,42,-1
 976.5 1051 l 1,43,-1
 718.5 1051 l 1,39,40
206.5 1051 m 1,44,45
 206.5 1048 206.5 1048 206.5 1304 c 1,46,-1
 464.5 1304 l 1,47,-1
 464.5 1051 l 1,48,-1
 206.5 1051 l 1,44,45
EndSplineSet
Validated: 37
EndChar

StartChar: igrave
Encoding: 236 236 168
Width: 544
VWidth: 3072
GlyphClass: 1
Flags: W
LayerCount: 2
Fore
SplineSet
271.5 -101 m 1,0,-1
 271.5 792 l 1,1,-1
 402.5 792 l 1,2,-1
 402.5 -101 l 1,3,-1
 271.5 -101 l 1,0,-1
338.5 920 m 1,4,-1
 338.5 1051 l 1,5,6
 339.5 1051 339.5 1051 464.5 1051 c 1,7,8
 464.5 1048 464.5 1048 464.5 920 c 1,9,-1
 338.5 920 l 1,4,-1
206.5 920 m 1,10,-1
 206.5 1176 l 1,11,12
 207.5 1176 207.5 1176 338.5 1176 c 1,13,-1
 338.5 920 l 1,14,-1
 206.5 920 l 1,10,-1
79.5 1051 m 1,15,16
 79.5 1048 79.5 1048 79.5 1304 c 1,17,-1
 206.5 1304 l 1,18,-1
 206.5 1051 l 1,19,-1
 79.5 1051 l 1,15,16
EndSplineSet
Validated: 37
EndChar

StartChar: iacute
Encoding: 237 237 169
Width: 544
VWidth: 3072
GlyphClass: 1
Flags: W
LayerCount: 2
Fore
SplineSet
140.5 -101 m 1,0,-1
 140.5 792 l 1,1,-1
 274.5 792 l 1,2,-1
 274.5 -101 l 1,3,-1
 140.5 -101 l 1,0,-1
79.5 920 m 1,4,-1
 79.5 1051 l 1,5,-1
 206.5 1051 l 1,6,7
 206.5 1048 206.5 1048 206.5 920 c 1,8,-1
 79.5 920 l 1,4,-1
206.5 920 m 1,9,-1
 206.5 1176 l 1,10,-1
 335.5 1176 l 1,11,-1
 335.5 920 l 1,12,-1
 206.5 920 l 1,9,-1
335.5 1051 m 1,13,14
 335.5 1048 335.5 1048 335.5 1304 c 1,15,16
 336.5 1304 336.5 1304 464.5 1304 c 1,17,-1
 464.5 1051 l 1,18,-1
 335.5 1051 l 1,13,14
EndSplineSet
Validated: 37
EndChar

StartChar: icircumflex
Encoding: 238 238 170
Width: 927
VWidth: 3072
GlyphClass: 1
Flags: W
LayerCount: 2
Fore
SplineSet
395.5 -101 m 1,0,-1
 395.5 792 l 1,1,-1
 527.5 792 l 1,2,-1
 527.5 -101 l 1,3,-1
 395.5 -101 l 1,0,-1
718.5 920 m 1,4,-1
 718.5 1051 l 1,5,6
 718.5 1051 718.5 1051 847.5 1051 c 1,7,8
 847.5 1048 847.5 1048 847.5 920 c 1,9,-1
 718.5 920 l 1,4,-1
79.5 920 m 1,10,-1
 79.5 1051 l 1,11,-1
 204.5 1051 l 1,12,13
 204.5 1048 204.5 1048 204.5 920 c 1,14,-1
 79.5 920 l 1,10,-1
588.5 1051 m 1,15,-1
 588.5 1176 l 1,16,17
 591.5 1176 591.5 1176 718.5 1176 c 1,18,-1
 718.5 1051 l 1,19,-1
 588.5 1051 l 1,15,-1
204.5 1051 m 1,20,-1
 204.5 1176 l 1,21,22
 207.5 1176 207.5 1176 335.5 1176 c 1,23,-1
 335.5 1051 l 1,24,-1
 204.5 1051 l 1,20,-1
335.5 1176 m 1,25,-1
 335.5 1304 l 1,26,-1
 588.5 1304 l 1,27,-1
 588.5 1176 l 1,28,-1
 335.5 1176 l 1,25,-1
EndSplineSet
Validated: 5
EndChar

StartChar: idieresis
Encoding: 239 239 171
Width: 927
VWidth: 3072
GlyphClass: 1
Flags: W
LayerCount: 2
Fore
SplineSet
395.5 -101 m 1,0,-1
 395.5 792 l 1,1,-1
 527.5 792 l 1,2,-1
 527.5 -101 l 1,3,-1
 395.5 -101 l 1,0,-1
588.5 920 m 1,4,-1
 588.5 1176 l 1,5,6
 591.5 1176 591.5 1176 847.5 1176 c 1,7,-1
 847.5 920 l 1,8,-1
 588.5 920 l 1,4,-1
79.5 920 m 1,9,-1
 79.5 1176 l 1,10,-1
 335.5 1176 l 1,11,-1
 335.5 920 l 1,12,-1
 79.5 920 l 1,9,-1
EndSplineSet
Validated: 1
EndChar

StartChar: eth
Encoding: 240 240 172
Width: 1183
VWidth: 3072
GlyphClass: 1
Flags: W
LayerCount: 2
Fore
SplineSet
335.5 -101 m 1,0,-1
 335.5 24 l 1,1,2
 335.5 24 335.5 24 847.5 24 c 1,3,-1
 847.5 -101 l 1,4,-1
 335.5 -101 l 1,0,-1
847.5 24 m 1,5,-1
 847.5 152 l 1,6,7
 848.5 152 848.5 152 976.5 152 c 1,8,-1
 976.5 24 l 1,9,-1
 847.5 24 l 1,5,-1
206.5 24 m 1,10,-1
 206.5 152 l 1,11,-1
 335.5 152 l 1,12,-1
 335.5 24 l 1,13,-1
 206.5 24 l 1,10,-1
79.5 152 m 1,14,-1
 79.5 664 l 1,15,-1
 206.5 664 l 1,16,-1
 206.5 152 l 1,17,-1
 79.5 152 l 1,14,-1
847.5 664 m 1,18,-1
 847.5 792 l 1,19,20
 848.5 792 848.5 792 976.5 792 c 1,21,-1
 976.5 664 l 1,22,-1
 847.5 664 l 1,18,-1
206.5 664 m 1,23,-1
 206.5 792 l 1,24,-1
 335.5 792 l 1,25,-1
 335.5 664 l 1,26,-1
 206.5 664 l 1,23,-1
335.5 792 m 1,27,-1
 335.5 920 l 1,28,29
 335.5 920 335.5 920 847.5 920 c 1,30,-1
 847.5 792 l 1,31,-1
 335.5 792 l 1,27,-1
976.5 152 m 1,32,-1
 976.5 1051 l 1,33,-1
 1103.5 1051 l 1,34,35
 1103.5 1048 1103.5 1048 1103.5 152 c 1,36,-1
 976.5 152 l 1,32,-1
847.5 1051 m 1,37,38
 847.5 1048 847.5 1048 847.5 1304 c 1,39,40
 848.5 1304 848.5 1304 976.5 1304 c 1,41,-1
 976.5 1051 l 1,42,-1
 847.5 1051 l 1,37,38
335.5 1176 m 1,43,-1
 335.5 1304 l 1,44,45
 336.5 1304 336.5 1304 464.5 1304 c 1,46,-1
 464.5 1176 l 1,47,-1
 335.5 1176 l 1,43,-1
718.5 1304 m 1,48,-1
 718.5 1435 l 1,49,50
 718.5 1435 718.5 1435 847.5 1435 c 1,51,52
 847.5 1432 847.5 1432 847.5 1304 c 1,53,-1
 718.5 1304 l 1,48,-1
464.5 1304 m 1,54,-1
 464.5 1435 l 1,55,-1
 591.5 1435 l 1,56,57
 591.5 1432 591.5 1432 591.5 1304 c 1,58,-1
 464.5 1304 l 1,54,-1
591.5 1435 m 1,59,-1
 591.5 1560 l 1,60,-1
 718.5 1560 l 1,61,-1
 718.5 1435 l 1,62,-1
 591.5 1435 l 1,59,-1
718.5 1560 m 1,63,-1
 718.5 1688 l 1,64,65
 718.5 1688 718.5 1688 847.5 1688 c 1,66,-1
 847.5 1560 l 1,67,-1
 718.5 1560 l 1,63,-1
464.5 1560 m 1,68,-1
 464.5 1688 l 1,69,-1
 591.5 1688 l 1,70,-1
 591.5 1560 l 1,71,-1
 464.5 1560 l 1,68,-1
847.5 1688 m 1,72,-1
 847.5 1819 l 1,73,74
 848.5 1819 848.5 1819 976.5 1819 c 1,75,76
 976.5 1816 976.5 1816 976.5 1688 c 1,77,-1
 847.5 1688 l 1,72,-1
206.5 1688 m 1,78,-1
 206.5 1819 l 1,79,-1
 464.5 1819 l 1,80,81
 464.5 1816 464.5 1816 464.5 1688 c 1,82,-1
 206.5 1688 l 1,78,-1
EndSplineSet
Validated: 37
EndChar

StartChar: ntilde
Encoding: 241 241 173
Width: 1183
VWidth: 3072
GlyphClass: 1
Flags: W
LayerCount: 2
Fore
SplineSet
847.5 -101 m 1,0,-1
 847.5 792 l 1,1,2
 848.5 792 848.5 792 976.5 792 c 1,3,-1
 976.5 -101 l 1,4,-1
 847.5 -101 l 1,0,-1
335.5 664 m 1,5,-1
 335.5 792 l 1,6,7
 336.5 792 336.5 792 464.5 792 c 1,8,-1
 464.5 664 l 1,9,-1
 335.5 664 l 1,5,-1
464.5 792 m 1,10,-1
 464.5 920 l 1,11,-1
 847.5 920 l 1,12,-1
 847.5 792 l 1,13,-1
 464.5 792 l 1,10,-1
206.5 -101 m 1,14,15
 206.5 -104 206.5 -104 206.5 920 c 1,16,-1
 335.5 920 l 1,17,-1
 335.5 -101 l 1,18,-1
 206.5 -101 l 1,14,15
718.5 1051 m 1,19,-1
 718.5 1176 l 1,20,-1
 976.5 1176 l 1,21,-1
 976.5 1051 l 1,22,-1
 718.5 1051 l 1,19,-1
464.5 1176 m 1,23,-1
 464.5 1304 l 1,24,-1
 718.5 1304 l 1,25,-1
 718.5 1176 l 1,26,-1
 464.5 1176 l 1,23,-1
79.5 1051 m 1,27,28
 79.5 1048 79.5 1048 79.5 1304 c 1,29,-1
 206.5 1304 l 1,30,-1
 206.5 1051 l 1,31,-1
 79.5 1051 l 1,27,28
976.5 1176 m 1,32,-1
 976.5 1435 l 1,33,-1
 1103.5 1435 l 1,34,-1
 1103.5 1176 l 1,35,-1
 976.5 1176 l 1,32,-1
206.5 1304 m 1,36,-1
 206.5 1435 l 1,37,-1
 464.5 1435 l 1,38,39
 464.5 1432 464.5 1432 464.5 1304 c 1,40,-1
 206.5 1304 l 1,36,-1
EndSplineSet
Validated: 37
EndChar

StartChar: ograve
Encoding: 242 242 174
Width: 1183
VWidth: 3072
GlyphClass: 1
Flags: W
LayerCount: 2
Fore
SplineSet
335.5 -101 m 1,0,-1
 335.5 24 l 1,1,2
 335.5 24 335.5 24 847.5 24 c 1,3,-1
 847.5 -101 l 1,4,-1
 335.5 -101 l 1,0,-1
847.5 24 m 1,5,-1
 847.5 152 l 1,6,7
 848.5 152 848.5 152 976.5 152 c 1,8,-1
 976.5 24 l 1,9,-1
 847.5 24 l 1,5,-1
206.5 24 m 1,10,-1
 206.5 152 l 1,11,-1
 335.5 152 l 1,12,-1
 335.5 24 l 1,13,-1
 206.5 24 l 1,10,-1
976.5 152 m 1,14,-1
 976.5 664 l 1,15,-1
 1103.5 664 l 1,16,-1
 1103.5 152 l 1,17,-1
 976.5 152 l 1,14,-1
79.5 152 m 1,18,-1
 79.5 664 l 1,19,-1
 206.5 664 l 1,20,-1
 206.5 152 l 1,21,-1
 79.5 152 l 1,18,-1
847.5 664 m 1,22,-1
 847.5 792 l 1,23,24
 848.5 792 848.5 792 976.5 792 c 1,25,-1
 976.5 664 l 1,26,-1
 847.5 664 l 1,22,-1
206.5 664 m 1,27,-1
 206.5 792 l 1,28,-1
 335.5 792 l 1,29,-1
 335.5 664 l 1,30,-1
 206.5 664 l 1,27,-1
335.5 792 m 1,31,-1
 335.5 920 l 1,32,33
 335.5 920 335.5 920 847.5 920 c 1,34,-1
 847.5 792 l 1,35,-1
 335.5 792 l 1,31,-1
591.5 1051 m 1,36,-1
 591.5 1176 l 1,37,-1
 718.5 1176 l 1,38,-1
 718.5 1051 l 1,39,-1
 591.5 1051 l 1,36,-1
464.5 1051 m 1,40,41
 464.5 1048 464.5 1048 464.5 1304 c 1,42,-1
 591.5 1304 l 1,43,-1
 591.5 1051 l 1,44,-1
 464.5 1051 l 1,40,41
335.5 1176 m 1,45,-1
 335.5 1435 l 1,46,47
 336.5 1435 336.5 1435 464.5 1435 c 1,48,-1
 464.5 1176 l 1,49,-1
 335.5 1176 l 1,45,-1
EndSplineSet
Validated: 37
EndChar

StartChar: oacute
Encoding: 243 243 175
Width: 1183
VWidth: 3072
GlyphClass: 1
Flags: W
LayerCount: 2
Fore
SplineSet
335.5 -101 m 1,0,-1
 335.5 24 l 1,1,2
 335.5 24 335.5 24 847.5 24 c 1,3,-1
 847.5 -101 l 1,4,-1
 335.5 -101 l 1,0,-1
847.5 24 m 1,5,-1
 847.5 152 l 1,6,7
 848.5 152 848.5 152 976.5 152 c 1,8,-1
 976.5 24 l 1,9,-1
 847.5 24 l 1,5,-1
206.5 24 m 1,10,-1
 206.5 152 l 1,11,-1
 335.5 152 l 1,12,-1
 335.5 24 l 1,13,-1
 206.5 24 l 1,10,-1
976.5 152 m 1,14,-1
 976.5 664 l 1,15,-1
 1103.5 664 l 1,16,-1
 1103.5 152 l 1,17,-1
 976.5 152 l 1,14,-1
79.5 152 m 1,18,-1
 79.5 664 l 1,19,-1
 206.5 664 l 1,20,-1
 206.5 152 l 1,21,-1
 79.5 152 l 1,18,-1
847.5 664 m 1,22,-1
 847.5 792 l 1,23,24
 848.5 792 848.5 792 976.5 792 c 1,25,-1
 976.5 664 l 1,26,-1
 847.5 664 l 1,22,-1
206.5 664 m 1,27,-1
 206.5 792 l 1,28,-1
 335.5 792 l 1,29,-1
 335.5 664 l 1,30,-1
 206.5 664 l 1,27,-1
335.5 792 m 1,31,-1
 335.5 920 l 1,32,33
 335.5 920 335.5 920 847.5 920 c 1,34,-1
 847.5 792 l 1,35,-1
 335.5 792 l 1,31,-1
464.5 1051 m 1,36,-1
 464.5 1176 l 1,37,-1
 591.5 1176 l 1,38,-1
 591.5 1051 l 1,39,-1
 464.5 1051 l 1,36,-1
591.5 1051 m 1,40,41
 591.5 1048 591.5 1048 591.5 1304 c 1,42,-1
 718.5 1304 l 1,43,-1
 718.5 1051 l 1,44,-1
 591.5 1051 l 1,40,41
718.5 1176 m 1,45,-1
 718.5 1435 l 1,46,47
 718.5 1435 718.5 1435 847.5 1435 c 1,48,-1
 847.5 1176 l 1,49,-1
 718.5 1176 l 1,45,-1
EndSplineSet
Validated: 37
EndChar

StartChar: ocircumflex
Encoding: 244 244 176
Width: 1183
VWidth: 3072
GlyphClass: 1
Flags: W
LayerCount: 2
Fore
SplineSet
335.5 -101 m 1,0,-1
 335.5 24 l 1,1,2
 335.5 24 335.5 24 847.5 24 c 1,3,-1
 847.5 -101 l 1,4,-1
 335.5 -101 l 1,0,-1
847.5 24 m 1,5,-1
 847.5 152 l 1,6,7
 848.5 152 848.5 152 976.5 152 c 1,8,-1
 976.5 24 l 1,9,-1
 847.5 24 l 1,5,-1
206.5 24 m 1,10,-1
 206.5 152 l 1,11,-1
 335.5 152 l 1,12,-1
 335.5 24 l 1,13,-1
 206.5 24 l 1,10,-1
976.5 152 m 1,14,-1
 976.5 664 l 1,15,-1
 1103.5 664 l 1,16,-1
 1103.5 152 l 1,17,-1
 976.5 152 l 1,14,-1
79.5 152 m 1,18,-1
 79.5 664 l 1,19,-1
 206.5 664 l 1,20,-1
 206.5 152 l 1,21,-1
 79.5 152 l 1,18,-1
847.5 664 m 1,22,-1
 847.5 792 l 1,23,24
 848.5 792 848.5 792 976.5 792 c 1,25,-1
 976.5 664 l 1,26,-1
 847.5 664 l 1,22,-1
206.5 664 m 1,27,-1
 206.5 792 l 1,28,-1
 335.5 792 l 1,29,-1
 335.5 664 l 1,30,-1
 206.5 664 l 1,27,-1
335.5 792 m 1,31,-1
 335.5 920 l 1,32,33
 335.5 920 335.5 920 847.5 920 c 1,34,-1
 847.5 792 l 1,35,-1
 335.5 792 l 1,31,-1
847.5 1051 m 1,36,-1
 847.5 1176 l 1,37,38
 848.5 1176 848.5 1176 976.5 1176 c 1,39,-1
 976.5 1051 l 1,40,-1
 847.5 1051 l 1,36,-1
206.5 1051 m 1,41,-1
 206.5 1176 l 1,42,-1
 335.5 1176 l 1,43,-1
 335.5 1051 l 1,44,-1
 206.5 1051 l 1,41,-1
718.5 1176 m 1,45,-1
 718.5 1304 l 1,46,47
 718.5 1304 718.5 1304 847.5 1304 c 1,48,-1
 847.5 1176 l 1,49,-1
 718.5 1176 l 1,45,-1
335.5 1176 m 1,50,-1
 335.5 1304 l 1,51,52
 336.5 1304 336.5 1304 464.5 1304 c 1,53,-1
 464.5 1176 l 1,54,-1
 335.5 1176 l 1,50,-1
464.5 1304 m 1,55,-1
 464.5 1435 l 1,56,-1
 718.5 1435 l 1,57,58
 718.5 1432 718.5 1432 718.5 1304 c 1,59,-1
 464.5 1304 l 1,55,-1
EndSplineSet
Validated: 5
EndChar

